STARTFONT 2.1
FONT -Adobe-Helvetica-Medium-O-Normal--34-240-100-100-P-176-ISO10646-1
SIZE 24 100 100
FONTBOUNDINGBOX 42 48 -5 -11
COMMENT $Xorg: $
COMMENT ISO10646-1 extension by Markus Kuhn <mkuhn@acm.org>, 2001-03-20
COMMENT 
COMMENT +
COMMENT  Copyright 1984-1989, 1994 Adobe Systems Incorporated.
COMMENT  Copyright 1988, 1994 Digital Equipment Corporation.
COMMENT
COMMENT  Adobe is a trademark of Adobe Systems Incorporated which may be
COMMENT  registered in certain jurisdictions.
COMMENT  Permission to use these trademarks is hereby granted only in
COMMENT  association with the images described in this file.
COMMENT
COMMENT  Permission to use, copy, modify, distribute and sell this software
COMMENT  and its documentation for any purpose and without fee is hereby
COMMENT  granted, provided that the above copyright notices appear in all
COMMENT  copies and that both those copyright notices and this permission
COMMENT  notice appear in supporting documentation, and that the names of
COMMENT  Adobe Systems and Digital Equipment Corporation not be used in
COMMENT  advertising or publicity pertaining to distribution of the software
COMMENT  without specific, written prior permission.  Adobe Systems and
COMMENT  Digital Equipment Corporation make no representations about the
COMMENT  suitability of this software for any purpose.  It is provided "as
COMMENT  is" without express or implied warranty.
COMMENT -
STARTPROPERTIES 26
FOUNDRY "Adobe"
FAMILY_NAME "Helvetica"
WEIGHT_NAME "Medium"
SLANT "O"
SETWIDTH_NAME "Normal"
ADD_STYLE_NAME ""
PIXEL_SIZE 34
POINT_SIZE 240
RESOLUTION_X 100
RESOLUTION_Y 100
SPACING "P"
AVERAGE_WIDTH 176
CHARSET_REGISTRY "ISO10646"
CHARSET_ENCODING "1"
CAP_HEIGHT 25
X_HEIGHT 18
FONT_ASCENT 28
FONT_DESCENT 7
FACE_NAME "Helvetica Oblique"
COPYRIGHT "Copyright (c) 1984, 1987 Adobe Systems Incorporated. All Rights Reserved. Copyright (c) 1988, 1991 Digital Equipment Corporation. All Rights Reserved."

STARTCHAR char0
ENCODING 0
SWIDTH 722 0
DWIDTH 24 0
BBX 23 25 3 0
BITMAP
AAAAAA
000000
800002
000000
800002
000000
800002
000000
800002
000000
800002
000000
800002
000000
800002
000000
800002
000000
800002
000000
800002
000000
800002
000000
AAAAAA
ENDCHAR
STARTCHAR space
ENCODING 32
SWIDTH 278 0
DWIDTH 9 0
BBX 1 1 0 0
BITMAP
00
ENDCHAR
STARTCHAR exclam
ENCODING 33
SWIDTH 278 0
DWIDTH 9 0
BBX 9 25 3 0
BITMAP
0380
0380
0380
0380
0700
0700
0700
0700
0600
0E00
0E00
0E00
0E00
0C00
1C00
1C00
1800
3800
3000
3000
0000
0000
F000
F000
F000
ENDCHAR
STARTCHAR quotedbl
ENCODING 34
SWIDTH 355 0
DWIDTH 12 0
BBX 9 8 6 17
BITMAP
7380
7380
F780
E700
E700
E700
C600
C600
ENDCHAR
STARTCHAR numbersign
ENCODING 35
SWIDTH 556 0
DWIDTH 19 0
BBX 19 23 2 0
BITMAP
0030C0
0071C0
006180
00E180
00E380
00C300
1FFFE0
1FFFE0
1FFFE0
038E00
030C00
071C00
071C00
0E3800
FFFF00
FFFF00
FFFF00
1C7000
38E000
38E000
30C000
71C000
618000
ENDCHAR
STARTCHAR dollar
ENCODING 36
SWIDTH 556 0
DWIDTH 18 0
BBX 18 30 2 -4
BITMAP
001800
001800
00FF00
03FF80
07B3C0
0E31C0
0E31C0
1C31C0
1C3000
1C7000
1E6000
1F6000
0FE000
07F800
01FE00
00FF00
00C780
00C780
01C380
E18380
E18700
E18F00
F19E00
7FFC00
7FF800
1FE000
030000
030000
070000
060000
ENDCHAR
STARTCHAR percent
ENCODING 37
SWIDTH 889 0
DWIDTH 29 0
BBX 25 24 4 0
BITMAP
00000600
07C00C00
1FE01C00
3CF03800
70703000
60706000
E070C000
E061C000
E0E18000
71C30000
7F860000
3F0E0000
000C0000
00183E00
0030FF00
0071E700
00638380
00C30380
01870380
03870380
03070700
06038F00
0E03FE00
1C01F800
ENDCHAR
STARTCHAR ampersand
ENCODING 38
SWIDTH 667 0
DWIDTH 22 0
BBX 18 23 3 0
BITMAP
007C00
01FE00
03C700
038700
070700
070700
078F00
039E00
03FC00
01F000
03E000
0FF000
1E71C0
3839C0
703B80
701F00
E01F00
E00E00
F01E00
F07F00
7FF780
3FE3C0
0F0000
ENDCHAR
STARTCHAR quotesingle
ENCODING 39
SWIDTH 191 0
DWIDTH 6 0
BBX 4 8 6 15
BITMAP
70
70
F0
E0
E0
E0
C0
C0
ENDCHAR
STARTCHAR parenleft
ENCODING 40
SWIDTH 333 0
DWIDTH 11 0
BBX 11 31 3 -6
BITMAP
0060
00C0
01C0
0380
0300
0700
0E00
0E00
1C00
1C00
3800
3800
3800
7000
7000
7000
F000
E000
E000
E000
E000
E000
E000
E000
E000
7000
7000
7000
3000
3000
1800
ENDCHAR
STARTCHAR parenright
ENCODING 41
SWIDTH 333 0
DWIDTH 11 0
BBX 10 31 1 -6
BITMAP
0300
0300
0380
0180
0180
01C0
01C0
01C0
01C0
01C0
01C0
01C0
01C0
01C0
01C0
01C0
0180
0380
0380
0380
0700
0700
0E00
0E00
1C00
1800
3800
3000
6000
C000
C000
ENDCHAR
STARTCHAR asterisk
ENCODING 42
SWIDTH 389 0
DWIDTH 13 0
BBX 9 10 6 15
BITMAP
0C00
0C00
0C00
CD80
FF80
7E00
3C00
6E00
C700
C300
ENDCHAR
STARTCHAR plus
ENCODING 43
SWIDTH 584 0
DWIDTH 19 0
BBX 16 17 4 -1
BITMAP
00E0
00E0
00E0
01C0
01C0
01C0
01C0
7FFF
FFFF
FFFE
0380
0380
0380
0700
0700
0700
0700
ENDCHAR
STARTCHAR comma
ENCODING 44
SWIDTH 278 0
DWIDTH 9 0
BBX 5 8 2 -5
BITMAP
78
78
78
30
30
60
C0
80
ENDCHAR
STARTCHAR hyphen
ENCODING 45
SWIDTH 333 0
DWIDTH 11 0
BBX 9 2 3 8
BITMAP
FF80
FF80
ENDCHAR
STARTCHAR period
ENCODING 46
SWIDTH 278 0
DWIDTH 9 0
BBX 4 3 3 0
BITMAP
F0
F0
F0
ENDCHAR
STARTCHAR slash
ENCODING 47
SWIDTH 278 0
DWIDTH 9 0
BBX 14 24 0 0
BITMAP
000C
000C
0018
0018
0030
0030
0060
0060
00C0
00C0
0180
0300
0300
0600
0600
0C00
0C00
1800
1800
3000
3000
6000
C000
C000
ENDCHAR
STARTCHAR zero
ENCODING 48
SWIDTH 556 0
DWIDTH 18 0
BBX 17 24 3 0
BITMAP
00FC00
03FE00
07FF00
0F0F80
1E0780
1C0380
3C0380
380380
380380
700380
700380
700380
F00700
E00700
E00700
E00E00
E00E00
E00E00
E01C00
F03C00
F87800
7FF000
3FE000
0F8000
ENDCHAR
STARTCHAR one
ENCODING 49
SWIDTH 556 0
DWIDTH 18 0
BBX 10 24 7 0
BITMAP
00C0
01C0
03C0
0780
1F80
FF80
FF80
0300
0700
0700
0700
0700
0E00
0E00
0E00
0E00
0E00
1C00
1C00
1C00
1C00
1C00
3800
3800
ENDCHAR
STARTCHAR two
ENCODING 50
SWIDTH 556 0
DWIDTH 18 0
BBX 18 24 3 0
BITMAP
007C00
01FF00
07FF80
0F8780
0E03C0
1E01C0
1C01C0
1C0380
000380
000780
000F00
001E00
007C00
01F800
03E000
0F8000
1E0000
3C0000
700000
600000
E00000
FFFC00
FFFC00
FFFC00
ENDCHAR
STARTCHAR three
ENCODING 51
SWIDTH 556 0
DWIDTH 18 0
BBX 17 24 3 0
BITMAP
00FC00
03FF00
07FF80
0F0780
1E0380
1C0380
380380
380780
000700
001F00
01FC00
01FC00
01FE00
001F00
000F00
000700
000700
E00F00
E00E00
E01E00
F07C00
7FF800
7FE000
1F0000
ENDCHAR
STARTCHAR four
ENCODING 52
SWIDTH 556 0
DWIDTH 18 0
BBX 17 24 2 0
BITMAP
000380
000780
000F80
001F00
001F00
003F00
007700
00E600
01CE00
038E00
070E00
0E0E00
1E1C00
3C1C00
381C00
701C00
FFFF80
FFFF80
FFFF00
003800
003800
007000
007000
007000
ENDCHAR
STARTCHAR five
ENCODING 53
SWIDTH 556 0
DWIDTH 18 0
BBX 19 24 2 0
BITMAP
01FFE0
01FFE0
03FFC0
038000
070000
070000
060000
0E0000
0EF800
1FFE00
1FFF00
1E0F80
1C0780
000780
000380
000380
000380
F00780
F00700
F00F00
783E00
7FFC00
3FF000
0FC000
ENDCHAR
STARTCHAR six
ENCODING 54
SWIDTH 556 0
DWIDTH 18 0
BBX 17 24 3 0
BITMAP
007C00
01FF00
03FF00
078780
0E0380
1C0380
1C0000
380000
380000
71F000
77FC00
7FFE00
FC0E00
F80F00
F00700
E00700
E00700
E00F00
E00E00
E01C00
707C00
7FF800
3FE000
0F8000
ENDCHAR
STARTCHAR seven
ENCODING 55
SWIDTH 556 0
DWIDTH 18 0
BBX 17 24 6 0
BITMAP
3FFF80
7FFF80
7FFF80
000700
000E00
001C00
003800
007000
00E000
00C000
01C000
038000
070000
070000
0E0000
1C0000
1C0000
380000
780000
700000
700000
E00000
E00000
E00000
ENDCHAR
STARTCHAR eight
ENCODING 56
SWIDTH 556 0
DWIDTH 18 0
BBX 19 24 2 0
BITMAP
007C00
01FF80
03FFC0
07C3C0
0F01E0
0E00E0
1E00E0
1C01C0
1C01C0
1E0780
0F9F00
07FC00
1FFE00
3E1F00
780700
700780
F00380
E00380
E00700
F00F00
783E00
7FFC00
3FF000
0FC000
ENDCHAR
STARTCHAR nine
ENCODING 57
SWIDTH 556 0
DWIDTH 18 0
BBX 17 24 3 0
BITMAP
00F800
03FE00
07FF00
0F0F00
1E0780
3C0380
380380
380380
700380
700380
700780
780F80
783F80
3FFF00
3FF700
0FC700
000E00
000E00
E01C00
E03C00
F07800
FFF000
7FC000
3F0000
ENDCHAR
STARTCHAR colon
ENCODING 58
SWIDTH 278 0
DWIDTH 9 0
BBX 7 17 4 0
BITMAP
1E
1E
1E
00
00
00
00
00
00
00
00
00
00
00
F0
F0
F0
ENDCHAR
STARTCHAR semicolon
ENCODING 59
SWIDTH 278 0
DWIDTH 9 0
BBX 8 21 3 -4
BITMAP
0F
0F
0F
00
00
00
00
00
00
00
00
00
00
00
78
78
78
30
30
60
C0
ENDCHAR
STARTCHAR less
ENCODING 60
SWIDTH 584 0
DWIDTH 19 0
BBX 17 16 4 0
BITMAP
000180
000780
001F80
00FE00
03F000
1FC000
7E0000
F00000
F00000
3C0000
1F0000
07E000
01F800
007E00
001E00
000600
ENDCHAR
STARTCHAR equal
ENCODING 61
SWIDTH 584 0
DWIDTH 19 0
BBX 17 9 3 4
BITMAP
3FFF80
7FFF80
7FFF00
000000
000000
000000
7FFF00
FFFF00
FFFE00
ENDCHAR
STARTCHAR greater
ENCODING 62
SWIDTH 584 0
DWIDTH 19 0
BBX 18 16 2 0
BITMAP
180000
1E0000
1F8000
0FE000
01F800
007E00
001F80
0007C0
0007C0
003F80
00FC00
07F000
3F8000
FE0000
F00000
C00000
ENDCHAR
STARTCHAR question
ENCODING 63
SWIDTH 556 0
DWIDTH 18 0
BBX 14 25 7 0
BITMAP
07E0
0FF8
3FF8
783C
701C
E01C
E01C
E03C
0038
0078
00F0
01E0
03C0
0780
0F00
1E00
1C00
1C00
1C00
0000
0000
0000
7800
7800
7800
ENDCHAR
STARTCHAR at
ENCODING 64
SWIDTH 1015 0
DWIDTH 34 0
BBX 32 30 3 -5
BITMAP
00007C00
0007FF80
001FFFE0
007E03F0
00F800F8
01E0007C
03C0001E
0780001E
0F01F38E
1E07FB8E
3C0F3F0F
381C1F07
70381E07
70701E07
E0701C0F
E0E0380E
E0E0381C
E1E07038
E1E07078
E1E0E0F0
E0F3F3E0
E0FF7FC0
F07C7F00
F0000000
78000000
3C000000
1F000000
0FE0F000
07FFF000
01FFC000
ENDCHAR
STARTCHAR A
ENCODING 65
SWIDTH 667 0
DWIDTH 22 0
BBX 20 25 1 0
BITMAP
000780
000F80
000F80
001FC0
001DC0
003DC0
0039C0
0079C0
00F1C0
00E1C0
01E0E0
01C0E0
03C0E0
0380E0
0780E0
0FFFE0
0FFFF0
1FFFF0
1C0070
3C0070
380070
780070
700070
F00070
E00070
ENDCHAR
STARTCHAR B
ENCODING 66
SWIDTH 667 0
DWIDTH 22 0
BBX 21 25 3 0
BITMAP
07FFC0
07FFF0
07FFF0
0F0078
0E0038
0E0038
0E0038
0E0078
1C0070
1C00F0
1C01E0
1FFFC0
1FFF80
3FFFC0
3801C0
3800E0
3800E0
7800E0
7000E0
7000E0
7001C0
7003C0
FFFF80
FFFF00
FFFC00
ENDCHAR
STARTCHAR C
ENCODING 67
SWIDTH 722 0
DWIDTH 24 0
BBX 21 25 4 0
BITMAP
003F00
00FFC0
03FFE0
07C1F0
0F8070
0E0078
1E0038
3C0038
380000
780000
700000
700000
F00000
E00000
E00000
E00070
E000F0
E000E0
F001E0
7003C0
780780
3C1F00
3FFE00
1FF800
07E000
ENDCHAR
STARTCHAR D
ENCODING 68
SWIDTH 722 0
DWIDTH 24 0
BBX 22 25 3 0
BITMAP
07FF80
07FFE0
07FFF0
0F00F8
0E0038
0E003C
0E001C
0E001C
1C001C
1C001C
1C001C
1C001C
1C001C
38001C
380038
380038
380078
780070
7000E0
7001E0
7003C0
700F80
FFFF00
FFFE00
FFF000
ENDCHAR
STARTCHAR E
ENCODING 69
SWIDTH 667 0
DWIDTH 22 0
BBX 22 25 3 0
BITMAP
07FFFC
07FFFC
07FFF8
070000
0F0000
0E0000
0E0000
0E0000
1C0000
1C0000
1C0000
1FFFE0
1FFFE0
3FFFC0
380000
380000
380000
780000
700000
700000
700000
700000
FFFFC0
FFFFC0
FFFF80
ENDCHAR
STARTCHAR F
ENCODING 70
SWIDTH 611 0
DWIDTH 20 0
BBX 21 25 3 0
BITMAP
07FFF8
07FFF8
07FFF0
070000
0F0000
0E0000
0E0000
0E0000
0E0000
1C0000
1C0000
1FFF80
1FFF80
3FFF00
380000
380000
380000
380000
700000
700000
700000
700000
E00000
E00000
E00000
ENDCHAR
STARTCHAR G
ENCODING 71
SWIDTH 778 0
DWIDTH 25 0
BBX 23 25 4 0
BITMAP
001FC0
007FF0
01FFFC
03E07C
07801E
0F001E
1E000E
1C000E
380000
380000
700000
700000
700FFE
E00FFE
E00FFC
E0001C
E0001C
F0003C
F00038
700078
7800F8
3E03F8
3FFFB0
0FFE30
03F800
ENDCHAR
STARTCHAR H
ENCODING 72
SWIDTH 722 0
DWIDTH 24 0
BBX 23 25 3 0
BITMAP
07000E
07000E
07000E
07000E
0E001E
0E001C
0E001C
0E001C
0E003C
1C0038
1C0038
1FFFF8
1FFFF8
3FFFF8
380070
380070
380070
780070
7000F0
7000E0
7000E0
7000E0
E001C0
E001C0
E001C0
ENDCHAR
STARTCHAR I
ENCODING 73
SWIDTH 278 0
DWIDTH 9 0
BBX 8 25 3 0
BITMAP
07
07
07
07
0F
0E
0E
0E
1E
1C
1C
1C
1C
3C
38
38
38
38
78
70
70
70
F0
E0
E0
ENDCHAR
STARTCHAR J
ENCODING 74
SWIDTH 500 0
DWIDTH 16 0
BBX 17 25 2 0
BITMAP
000380
000380
000380
000380
000780
000700
000700
000700
000700
000E00
000E00
000E00
000E00
001E00
001C00
001C00
E01C00
E03C00
E03C00
E03800
E07800
F0F000
7FE000
7FC000
1F0000
ENDCHAR
STARTCHAR K
ENCODING 75
SWIDTH 667 0
DWIDTH 22 0
BBX 23 25 3 0
BITMAP
07001E
07003C
070078
0F00F0
0F01E0
0E03C0
0E0780
0E0F00
1E1E00
1C3C00
1CF800
1DF800
1FF800
3F3C00
3E1C00
3C1E00
380E00
780F00
780F00
700780
700780
7003C0
F003C0
E001E0
E001E0
ENDCHAR
STARTCHAR L
ENCODING 76
SWIDTH 556 0
DWIDTH 18 0
BBX 15 25 3 0
BITMAP
0700
0700
0700
0700
0F00
0E00
0E00
0E00
1E00
1C00
1C00
1C00
1C00
3C00
3800
3800
3800
7800
7800
7000
7000
7000
FFFE
FFFE
FFFC
ENDCHAR
STARTCHAR M
ENCODING 77
SWIDTH 833 0
DWIDTH 27 0
BBX 29 25 2 0
BITMAP
07C000F8
07C001F8
07C001F8
07C003F0
0FC003F0
0FC007F0
0EE00EE0
0EE00EE0
1EE01CE0
1CE01CE0
1CE039C0
1CE039C0
1CE071C0
3CE0E3C0
3870E380
3871C380
3871C380
38738380
78738700
70770700
70770700
707E0700
F03E0F00
E03C0E00
E0380E00
ENDCHAR
STARTCHAR N
ENCODING 78
SWIDTH 722 0
DWIDTH 24 0
BBX 23 25 3 0
BITMAP
07800E
07800E
07C00E
0FC00E
0FC01E
0EE01C
0EE01C
0EF01C
1E701C
1C7038
1C7838
1C3838
1C3838
3C3C38
381C70
381C70
381E70
780E70
700E60
700760
7007E0
7007E0
F003C0
E003C0
E003C0
ENDCHAR
STARTCHAR O
ENCODING 79
SWIDTH 778 0
DWIDTH 25 0
BBX 25 25 3 0
BITMAP
000FC000
007FF800
01FFFC00
03E03E00
07801F00
0F000F00
1E000780
3C000780
38000380
78000380
70000380
F0000380
F0000780
E0000780
E0000700
E0000F00
E0000E00
F0001E00
70003C00
78007800
7C00F800
3E03E000
1FFFC000
0FFF0000
01F80000
ENDCHAR
STARTCHAR P
ENCODING 80
SWIDTH 667 0
DWIDTH 22 0
BBX 21 25 3 0
BITMAP
07FF80
07FFE0
07FFF0
0700F8
0E0078
0E0038
0E0038
0E0038
0E0078
1C0070
1C00F0
1C01E0
1FFFC0
3FFF80
3FFE00
380000
380000
380000
700000
700000
700000
700000
E00000
E00000
E00000
ENDCHAR
STARTCHAR Q
ENCODING 81
SWIDTH 778 0
DWIDTH 26 0
BBX 25 26 3 -1
BITMAP
000FC000
007FF800
01FFFE00
03E03E00
07801F00
0F000F00
1E000780
3C000780
38000380
78000380
70000380
F0000380
F0000780
E0000780
E0000700
E0000F00
E0000E00
F0021E00
70073C00
7807BC00
7C03F800
3E01F000
1FFFF000
0FFF7800
01FC3C00
00001800
ENDCHAR
STARTCHAR R
ENCODING 82
SWIDTH 722 0
DWIDTH 24 0
BBX 23 25 3 0
BITMAP
07FFE0
07FFF8
07FFFC
0F003E
0E001E
0E000E
0E000E
0E001E
1C001E
1C001C
1C003C
1C00F8
1FFFF0
3FFFE0
3FFFF0
3800F0
380078
780078
700078
700078
700070
E000F0
E000F0
E000F0
E000F8
ENDCHAR
STARTCHAR S
ENCODING 83
SWIDTH 667 0
DWIDTH 22 0
BBX 21 25 3 0
BITMAP
003F00
01FFE0
03FFF0
0780F8
0E0078
0E0038
1C0038
1C0038
1C0000
1F0000
0FE000
0FFE00
03FF80
007FE0
0007E0
0001F0
0000F0
E000F0
E000E0
E001E0
F003C0
FC07C0
7FFF00
3FFE00
07F000
ENDCHAR
STARTCHAR T
ENCODING 84
SWIDTH 611 0
DWIDTH 20 0
BBX 19 25 6 0
BITMAP
7FFFE0
FFFFE0
FFFFC0
01E000
01E000
01C000
01C000
01C000
03C000
038000
038000
038000
038000
078000
070000
070000
070000
0F0000
0F0000
0E0000
0E0000
0E0000
1E0000
1C0000
1C0000
ENDCHAR
STARTCHAR U
ENCODING 85
SWIDTH 722 0
DWIDTH 24 0
BBX 22 25 4 0
BITMAP
0E001C
0E001C
0E001C
1E003C
1C003C
1C0038
1C0038
1C0038
3C0078
380070
380070
380070
380070
7800F0
7000E0
7000E0
F000E0
F001E0
F001C0
7003C0
780780
7C0F00
3FFE00
1FFC00
07E000
ENDCHAR
STARTCHAR V
ENCODING 86
SWIDTH 667 0
DWIDTH 22 0
BBX 20 25 7 0
BITMAP
E000F0
E000E0
E001E0
E001C0
E003C0
F00380
F00780
F00700
700E00
700E00
701C00
703C00
703800
787800
787000
38F000
38E000
39C000
39C000
3B8000
3B8000
3F0000
3F0000
1E0000
1E0000
ENDCHAR
STARTCHAR W
ENCODING 87
SWIDTH 944 0
DWIDTH 31 0
BBX 31 25 6 0
BITMAP
E007801E
E007801C
E00F803C
E00F8038
E01F8078
E01F8070
E03BC0F0
F03BC0E0
F073C1E0
F071C1C0
F0F1C1C0
F0E1C3C0
71E1C380
71C1C780
73C1C700
7381CF00
7781CE00
7701DE00
7F01DC00
7E01DC00
7E01F800
7C01F800
7C00F000
7800F000
7800F000
ENDCHAR
STARTCHAR X
ENCODING 88
SWIDTH 667 0
DWIDTH 22 0
BBX 25 25 1 0
BITMAP
07800780
07800F00
03C01E00
03C03C00
01E03C00
00E07800
00F0F000
00F1E000
007BC000
007F8000
003F0000
001E0000
001E0000
003E0000
007F0000
00F70000
01E78000
03C78000
07838000
0F03C000
1E01C000
1C01E000
3C00E000
7800F000
F000F000
ENDCHAR
STARTCHAR Y
ENCODING 89
SWIDTH 667 0
DWIDTH 22 0
BBX 22 25 6 0
BITMAP
F0007C
F000F8
7800F0
7801E0
3803C0
3C0780
3C0700
1E0F00
1E1E00
0E3C00
0F7800
0F7000
07E000
07E000
03C000
038000
038000
078000
078000
070000
070000
070000
0F0000
0E0000
0E0000
ENDCHAR
STARTCHAR Z
ENCODING 90
SWIDTH 611 0
DWIDTH 20 0
BBX 23 25 1 0
BITMAP
01FFFE
03FFFE
03FFFE
00001E
00003C
000078
0000F0
0001E0
0003C0
000780
000F00
001E00
003C00
007800
00F000
01E000
03C000
078000
0F0000
1E0000
3C0000
780000
FFFFE0
FFFFE0
FFFFC0
ENDCHAR
STARTCHAR bracketleft
ENCODING 91
SWIDTH 278 0
DWIDTH 9 0
BBX 12 32 1 -6
BITMAP
03F0
03F0
0380
0380
0700
0700
0700
0700
0700
0E00
0E00
0E00
0E00
1C00
1C00
1C00
1C00
1C00
3800
3800
3800
3800
3800
7000
7000
7000
7000
E000
E000
E000
FC00
FC00
ENDCHAR
STARTCHAR backslash
ENCODING 92
SWIDTH 278 0
DWIDTH 9 0
BBX 4 24 5 0
BITMAP
C0
C0
C0
C0
60
60
60
60
60
60
60
60
60
60
60
30
30
30
30
30
30
30
30
30
ENDCHAR
STARTCHAR bracketright
ENCODING 93
SWIDTH 278 0
DWIDTH 9 0
BBX 13 32 -1 -6
BITMAP
01F8
01F8
0038
0038
0070
0070
0070
0070
0070
00E0
00E0
00E0
00E0
01C0
01C0
01C0
01C0
01C0
0380
0380
0380
0380
0380
0700
0700
0700
0700
0E00
0E00
0E00
FE00
FE00
ENDCHAR
STARTCHAR asciicircum
ENCODING 94
SWIDTH 469 0
DWIDTH 16 0
BBX 12 13 4 11
BITMAP
01C0
03C0
03C0
07E0
0EE0
0CE0
1C60
1860
3870
7070
6070
E030
C030
ENDCHAR
STARTCHAR underscore
ENCODING 95
SWIDTH 556 0
DWIDTH 19 0
BBX 20 2 -2 -6
BITMAP
FFFFF0
FFFFF0
ENDCHAR
STARTCHAR grave
ENCODING 96
SWIDTH 333 0
DWIDTH 11 0
BBX 5 5 7 20
BITMAP
E0
F0
70
38
18
ENDCHAR
STARTCHAR a
ENCODING 97
SWIDTH 556 0
DWIDTH 18 0
BBX 17 18 2 0
BITMAP
01FE00
07FF00
0F9F80
1C0380
1C0380
000380
000700
007F00
0FFF00
3FC700
7C0700
700E00
E00E00
E01E00
E03E00
F1FE00
7FCF00
3F8F00
ENDCHAR
STARTCHAR b
ENCODING 98
SWIDTH 556 0
DWIDTH 18 0
BBX 17 25 2 0
BITMAP
070000
070000
070000
060000
0E0000
0E0000
0E0000
0C7C00
0DFF00
1FFF00
1F0780
1E0380
1C0380
3C0380
380380
380380
380380
380780
780700
780F00
780E00
7C3C00
FFF800
EFF000
03C000
ENDCHAR
STARTCHAR c
ENCODING 99
SWIDTH 500 0
DWIDTH 17 0
BBX 15 18 3 0
BITMAP
00F0
07FC
0FFE
1E1E
380E
780E
7000
F000
E000
E000
E000
E01C
E01C
E03C
F078
7FF0
7FE0
1F00
ENDCHAR
STARTCHAR d
ENCODING 100
SWIDTH 556 0
DWIDTH 18 0
BBX 19 25 3 0
BITMAP
0000E0
0000E0
0000E0
0000E0
0001C0
0001C0
0001C0
03F1C0
07F980
1FFF80
3E1F80
380780
780780
700700
F00700
E00700
E00700
E00F00
E00E00
E01E00
E03E00
F0FE00
7FEE00
3FCE00
1F8E00
ENDCHAR
STARTCHAR e
ENCODING 101
SWIDTH 556 0
DWIDTH 18 0
BBX 16 18 3 0
BITMAP
01F8
07FE
1FFE
3E0F
3807
7007
7007
FFFF
FFFF
FFFF
E000
E000
E00E
F01E
787C
7FF8
3FF0
0FC0
ENDCHAR
STARTCHAR f
ENCODING 102
SWIDTH 278 0
DWIDTH 9 0
BBX 11 25 3 0
BITMAP
01E0
03E0
07C0
0700
0E00
0E00
0E00
3F80
7F80
7F00
1C00
1C00
1C00
3800
3800
3800
3800
3800
7000
7000
7000
7000
7000
E000
E000
ENDCHAR
STARTCHAR g
ENCODING 103
SWIDTH 556 0
DWIDTH 18 0
BBX 19 25 1 -7
BITMAP
00F8E0
01FEE0
07FFC0
0F87C0
0E03C0
1C03C0
1C0380
380380
380380
380380
380780
380700
380F00
380F00
3C3F00
1FF700
0FE600
078E00
000E00
E01C00
E01C00
F07800
7FF000
7FE000
1FC000
ENDCHAR
STARTCHAR h
ENCODING 104
SWIDTH 556 0
DWIDTH 18 0
BBX 17 25 2 0
BITMAP
070000
070000
070000
070000
0E0000
0E0000
0E0000
0E3C00
0CFF00
1FFF80
1F0780
1E0380
1C0380
380700
380700
380700
380700
380700
700E00
700E00
700E00
700E00
E01C00
E01C00
E01C00
ENDCHAR
STARTCHAR i
ENCODING 105
SWIDTH 222 0
DWIDTH 7 0
BBX 8 25 2 0
BITMAP
07
07
07
07
00
00
00
0E
0E
0C
1C
1C
1C
1C
38
38
38
38
70
70
70
70
70
E0
E0
ENDCHAR
STARTCHAR j
ENCODING 106
SWIDTH 222 0
DWIDTH 7 0
BBX 12 32 -2 -7
BITMAP
0070
0070
0070
0070
0000
0000
0000
00E0
00E0
01C0
01C0
01C0
01C0
0180
0180
0380
0380
0380
0380
0700
0700
0700
0700
0700
0E00
0E00
0E00
0C00
1C00
3C00
F800
F000
ENDCHAR
STARTCHAR k
ENCODING 107
SWIDTH 500 0
DWIDTH 17 0
BBX 17 25 2 0
BITMAP
070000
070000
070000
070000
0E0000
0E0000
0E0000
0E0780
0C0F00
1C1E00
1C3C00
1C7000
19E000
3BC000
3FE000
3FE000
3CF000
387000
707000
703800
703800
703C00
703C00
E01C00
E01E00
ENDCHAR
STARTCHAR l
ENCODING 108
SWIDTH 222 0
DWIDTH 7 0
BBX 8 25 2 0
BITMAP
07
07
07
07
0E
0E
0E
0E
0C
1C
1C
1C
1C
38
38
38
38
38
70
70
70
70
F0
E0
E0
ENDCHAR
STARTCHAR m
ENCODING 109
SWIDTH 833 0
DWIDTH 28 0
BBX 26 18 2 0
BITMAP
1C7C1F00
1DFE7F80
1FFFFFC0
1F0FC3C0
1E0781C0
1C0701C0
3C0E0380
380E0380
380E0380
380E0380
380E0380
701C0700
701C0700
701C0700
701C0700
60180700
E0380E00
E0380E00
ENDCHAR
STARTCHAR n
ENCODING 110
SWIDTH 556 0
DWIDTH 18 0
BBX 17 18 2 0
BITMAP
1C3C00
1CFF00
1FFF00
1F0780
1E0380
1C0380
3C0380
380700
380700
380700
380700
700E00
700E00
700E00
700E00
600E00
E01C00
E01C00
ENDCHAR
STARTCHAR o
ENCODING 111
SWIDTH 556 0
DWIDTH 19 0
BBX 16 18 3 0
BITMAP
01F0
07FC
1FFE
3E1F
380F
7007
7007
F007
E007
E007
E00E
E00E
E01E
E03C
F078
7FF0
7FE0
1F80
ENDCHAR
STARTCHAR p
ENCODING 112
SWIDTH 556 0
DWIDTH 19 0
BBX 18 25 1 -7
BITMAP
003E00
0EFF00
0FFF80
0F83C0
0F01C0
0E01C0
1E01C0
1C01C0
1C01C0
1C01C0
1C03C0
3C0380
3C0780
3C0700
3E1F00
3FFE00
77F800
73F000
700000
700000
600000
E00000
E00000
E00000
E00000
ENDCHAR
STARTCHAR q
ENCODING 113
SWIDTH 556 0
DWIDTH 19 0
BBX 18 25 3 -7
BITMAP
01F000
07F9C0
1FFDC0
3E0FC0
380780
780780
700780
F00700
E00700
E00700
E00F00
E00F00
E01E00
F01E00
F07E00
7FFE00
7FFC00
1F9C00
001C00
001C00
003800
003800
003800
003800
003800
ENDCHAR
STARTCHAR r
ENCODING 114
SWIDTH 333 0
DWIDTH 11 0
BBX 12 18 2 0
BITMAP
1C70
1CF0
1DF0
1FC0
1F00
1E00
3C00
3800
3800
3800
7000
7000
7000
7000
7000
E000
E000
E000
ENDCHAR
STARTCHAR s
ENCODING 115
SWIDTH 500 0
DWIDTH 17 0
BBX 15 18 2 0
BITMAP
03F0
0FFC
1FFE
1C1E
380E
3800
3C00
3F00
1FE0
0FF8
01FC
003C
E01C
E01C
F038
FFF8
7FF0
1FC0
ENDCHAR
STARTCHAR t
ENCODING 116
SWIDTH 278 0
DWIDTH 9 0
BBX 8 22 4 0
BITMAP
1C
1C
1C
1C
7F
FF
FE
38
38
38
70
70
70
70
70
E0
E0
E0
E0
F8
F8
70
ENDCHAR
STARTCHAR u
ENCODING 117
SWIDTH 556 0
DWIDTH 19 0
BBX 17 18 3 0
BITMAP
1C0380
1C0380
380700
380700
380700
380700
700F00
700E00
700E00
700E00
700E00
E01E00
E01C00
E03C00
F0FC00
FFFC00
7F9C00
3E1C00
ENDCHAR
STARTCHAR v
ENCODING 118
SWIDTH 500 0
DWIDTH 17 0
BBX 15 18 4 0
BITMAP
E00E
E00E
E01C
E01C
E038
E070
E070
60E0
70E0
71C0
7380
7380
7700
7700
7E00
3E00
3C00
3800
ENDCHAR
STARTCHAR w
ENCODING 119
SWIDTH 722 0
DWIDTH 24 0
BBX 23 18 4 0
BITMAP
E0380E
E0781E
E0781C
E0F838
E0F838
E1F870
E1B870
E3B8E0
E3B8E0
E739C0
E719C0
EE1B80
6E1B80
7C1F00
7C1F00
781E00
781E00
701C00
ENDCHAR
STARTCHAR x
ENCODING 120
SWIDTH 500 0
DWIDTH 17 0
BBX 18 18 2 0
BITMAP
0E01C0
0F03C0
070780
078F00
039E00
03FC00
01F800
01F000
00E000
01E000
03F000
07F000
0F7800
1E3800
3C3C00
781C00
F01E00
E00E00
ENDCHAR
STARTCHAR y
ENCODING 121
SWIDTH 500 0
DWIDTH 17 0
BBX 19 25 0 -7
BITMAP
0E00E0
0E01E0
0E01C0
0F0380
0F0380
070700
070700
070E00
071E00
071C00
073800
07B800
07F000
07F000
03E000
03C000
03C000
038000
038000
070000
0F0000
0E0000
FC0000
F80000
F00000
ENDCHAR
STARTCHAR z
ENCODING 122
SWIDTH 500 0
DWIDTH 17 0
BBX 16 18 2 0
BITMAP
1FFF
1FFF
1FFF
000F
001E
003C
0078
00F0
01E0
03C0
0780
0F00
1E00
3C00
7800
FFFC
FFFC
FFFC
ENDCHAR
STARTCHAR braceleft
ENCODING 123
SWIDTH 334 0
DWIDTH 11 0
BBX 12 32 3 -7
BITMAP
00F0
01C0
0380
0380
0300
0700
0700
0700
0600
0E00
0E00
0E00
1C00
1C00
3800
7000
F000
7000
3800
3800
3800
3800
3000
7000
7000
7000
7000
6000
6000
6000
7000
3800
ENDCHAR
STARTCHAR bar
ENCODING 124
SWIDTH 260 0
DWIDTH 9 0
BBX 8 30 2 -6
BITMAP
03
03
07
06
06
06
06
0E
0C
0C
0C
0C
1C
18
18
18
18
30
30
30
30
70
60
60
60
60
E0
C0
C0
C0
ENDCHAR
STARTCHAR braceright
ENCODING 125
SWIDTH 334 0
DWIDTH 11 0
BBX 11 32 0 -7
BITMAP
03C0
00E0
0060
0060
00E0
00C0
00C0
01C0
01C0
01C0
0180
0180
0180
0180
01C0
00E0
01C0
03C0
0300
0700
0600
0E00
0E00
0E00
0C00
1C00
1C00
1C00
1800
3800
7000
E000
ENDCHAR
STARTCHAR asciitilde
ENCODING 126
SWIDTH 584 0
DWIDTH 19 0
BBX 16 6 4 9
BITMAP
0E03
3F03
7FC3
E3E7
C1FE
C078
ENDCHAR
STARTCHAR space
ENCODING 160
SWIDTH 278 0
DWIDTH 9 0
BBX 1 1 0 0
BITMAP
00
ENDCHAR
STARTCHAR exclamdown
ENCODING 161
SWIDTH 333 0
DWIDTH 11 0
BBX 8 25 3 -7
BITMAP
0F
0F
0F
00
00
00
0C
0C
1C
18
18
18
38
38
38
38
70
70
70
70
E0
E0
E0
E0
E0
ENDCHAR
STARTCHAR cent
ENCODING 162
SWIDTH 556 0
DWIDTH 18 0
BBX 16 25 4 -4
BITMAP
000C
0008
0018
03F8
07FC
1F3E
3C6F
3847
70C7
7080
E180
E100
E300
E200
E61E
E61E
EC3C
FC78
79F0
7FE0
3F80
3000
2000
6000
4000
ENDCHAR
STARTCHAR sterling
ENCODING 163
SWIDTH 556 0
DWIDTH 18 0
BBX 19 24 2 0
BITMAP
003E00
00FF80
03FFC0
07C3E0
0701E0
0E00E0
0E00E0
1E0000
1E0000
0E0000
0F0000
7FF800
7FF800
070000
070000
070000
060000
0E0000
1C0000
380000
77C380
FFFF80
FFFF00
40FC00
ENDCHAR
STARTCHAR currency
ENCODING 164
SWIDTH 556 0
DWIDTH 18 0
BBX 15 14 4 5
BITMAP
3806
39EE
3FFE
1FFC
3C38
3818
3818
3018
3038
3038
3878
7FF0
FFF8
EFB8
ENDCHAR
STARTCHAR yen
ENCODING 165
SWIDTH 556 0
DWIDTH 18 0
BBX 20 24 4 0
BITMAP
700070
3800E0
3801C0
180380
1C0300
1C0600
0C0E00
0E1C00
0E3800
073000
077000
03E000
7FFE00
7FFE00
038000
038000
FFFC00
FFFC00
070000
070000
070000
060000
0E0000
0E0000
ENDCHAR
STARTCHAR brokenbar
ENCODING 166
SWIDTH 260 0
DWIDTH 9 0
BBX 8 32 2 -7
BITMAP
03
03
03
07
06
06
06
06
0E
0C
0C
0C
0C
00
00
00
00
00
00
30
30
30
70
60
60
60
60
E0
C0
C0
C0
C0
ENDCHAR
STARTCHAR section
ENCODING 167
SWIDTH 556 0
DWIDTH 18 0
BBX 18 32 2 -7
BITMAP
003E00
00FF80
01FF80
03C3C0
0381C0
0701C0
0701C0
078000
03C000
07F000
0FF800
1E7C00
1C3E00
3C1E00
380F00
380700
380700
1C0700
1E0E00
1F9E00
0FFC00
03F800
01F000
00F000
007800
E03800
E07800
E07000
F0F000
FFE000
7FC000
1F0000
ENDCHAR
STARTCHAR dieresis
ENCODING 168
SWIDTH 333 0
DWIDTH 11 0
BBX 10 3 5 22
BITMAP
F3C0
F3C0
F3C0
ENDCHAR
STARTCHAR copyright
ENCODING 169
SWIDTH 737 0
DWIDTH 25 0
BBX 26 25 2 0
BITMAP
000FE000
007FF800
01E01C00
03800600
06000300
080F8180
183FE180
307060C0
20C030C0
61C030C0
618000C0
C18000C0
C30000C0
C3000080
C3000180
C380C180
C180C300
41C38600
60FF0600
603C0C00
70003800
38007000
1E01C000
07FF0000
01FC0000
ENDCHAR
STARTCHAR ordfeminine
ENCODING 170
SWIDTH 370 0
DWIDTH 12 0
BBX 11 15 4 10
BITMAP
0FC0
1CE0
3860
0060
03E0
1FC0
70C0
E0C0
C180
E7C0
7CC0
0000
0000
FF80
FF80
ENDCHAR
STARTCHAR guillemotleft
ENCODING 171
SWIDTH 556 0
DWIDTH 18 0
BBX 14 9 4 5
BITMAP
0C18
1E3C
3C78
78F0
F1E0
F1E0
78F0
3C78
1830
ENDCHAR
STARTCHAR logicalnot
ENCODING 172
SWIDTH 584 0
DWIDTH 19 0
BBX 17 9 3 3
BITMAP
7FFF80
FFFF80
FFFF80
000380
000300
000300
000700
000700
000700
ENDCHAR
STARTCHAR hyphen
ENCODING 173
SWIDTH 333 0
DWIDTH 11 0
BBX 9 2 3 8
BITMAP
FF80
FF80
ENDCHAR
STARTCHAR registered
ENCODING 174
SWIDTH 737 0
DWIDTH 25 0
BBX 26 25 2 0
BITMAP
000FE000
007FF800
01E01C00
03800E00
06000300
0C000180
187FC180
306060C0
206030C0
60C030C0
60C030C0
C0C0E0C0
C0FFC0C0
C0CE0080
C1860180
C1830180
C1838300
41818600
6181C600
60000C00
70003800
38007000
1E01C000
07FF0000
01FC0000
ENDCHAR
STARTCHAR macron
ENCODING 175
SWIDTH 333 0
DWIDTH 11 0
BBX 10 2 5 22
BITMAP
FFC0
FFC0
ENDCHAR
STARTCHAR degree
ENCODING 176
SWIDTH 400 0
DWIDTH 13 0
BBX 9 9 6 14
BITMAP
1F00
7F80
6180
C180
C180
C180
C300
FF00
7C00
ENDCHAR
STARTCHAR plusminus
ENCODING 177
SWIDTH 584 0
DWIDTH 19 0
BBX 19 21 2 0
BITMAP
001C00
001C00
001C00
003800
003800
003800
003800
0FFFE0
1FFFE0
1FFFC0
007000
007000
007000
00E000
00E000
00E000
000000
000000
7FFF80
FFFF80
FFFF00
ENDCHAR
STARTCHAR twosuperior
ENCODING 178
SWIDTH 333 0
DWIDTH 11 0
BBX 12 15 3 9
BITMAP
03C0
0FE0
1C70
3830
3830
0070
0060
01C0
0780
1E00
3800
6000
C000
FFC0
FFC0
ENDCHAR
STARTCHAR threesuperior
ENCODING 179
SWIDTH 333 0
DWIDTH 11 0
BBX 11 15 3 9
BITMAP
0780
1FC0
1860
3060
3060
00E0
07C0
07C0
00E0
0060
C060
C0E0
E1C0
7F80
3E00
ENDCHAR
STARTCHAR acute
ENCODING 180
SWIDTH 333 0
DWIDTH 11 0
BBX 7 5 8 22
BITMAP
1E
3C
78
70
E0
ENDCHAR
STARTCHAR mu
ENCODING 181
SWIDTH 556 0
DWIDTH 19 0
BBX 19 24 1 -6
BITMAP
0700E0
0700E0
0E01C0
0E01C0
0E01C0
0E01C0
1C0380
1C0380
1C0380
1C0380
1C0380
380700
380700
380F00
3C3F00
3FFF00
7FEE00
778E00
700000
700000
E00000
E00000
E00000
E00000
ENDCHAR
STARTCHAR paragraph
ENCODING 182
SWIDTH 537 0
DWIDTH 17 0
BBX 18 31 4 -6
BITMAP
01FFC0
07FFC0
0FE300
1FE700
3FE700
7FC600
7FC600
FFC600
FFCE00
FF8C00
FF8C00
7F8C00
7F9C00
3F9C00
3F1800
071800
031800
073800
073800
063000
063000
063000
0E7000
0E6000
0C6000
0C6000
0CE000
1CE000
18C000
18C000
18C000
ENDCHAR
STARTCHAR periodcentered
ENCODING 183
SWIDTH 278 0
DWIDTH 9 0
BBX 5 4 5 10
BITMAP
78
78
F0
F0
ENDCHAR
STARTCHAR cedilla
ENCODING 184
SWIDTH 333 0
DWIDTH 11 0
BBX 7 7 1 -7
BITMAP
18
18
1C
0E
06
CE
7C
ENDCHAR
STARTCHAR onesuperior
ENCODING 185
SWIDTH 333 0
DWIDTH 11 0
BBX 6 15 6 9
BITMAP
0C
1C
FC
F8
18
18
18
30
30
30
30
60
60
60
60
ENDCHAR
STARTCHAR ordmasculine
ENCODING 186
SWIDTH 365 0
DWIDTH 12 0
BBX 11 15 4 10
BITMAP
0780
1FC0
18E0
3060
3060
6060
6060
60E0
60C0
71C0
3F80
1E00
0000
FF80
FF80
ENDCHAR
STARTCHAR guillemotright
ENCODING 187
SWIDTH 556 0
DWIDTH 18 0
BBX 14 9 3 5
BITMAP
3060
78F0
3C78
1E3C
1E3C
3C78
78F0
F1E0
60C0
ENDCHAR
STARTCHAR onequarter
ENCODING 188
SWIDTH 834 0
DWIDTH 28 0
BBX 23 25 5 0
BITMAP
00000E
0C001C
1C0038
FC0030
F80070
1800E0
1801C0
180380
180700
300E00
300C00
301C06
30380E
60701C
60E03C
61C07C
0180EC
0381CC
070398
0E0718
1C0FFE
380FFE
300038
700030
E00030
ENDCHAR
STARTCHAR onehalf
ENCODING 189
SWIDTH 834 0
DWIDTH 28 0
BBX 25 25 4 0
BITMAP
00000E00
06001C00
0E003800
7E007000
7C00E000
0C00E000
0C01C000
0C038000
0C070000
180E0000
181C0000
181C1F00
18387F80
3070E380
30E1C180
31C18180
03800380
03800700
07001E00
0E007800
1C01C000
38038000
70030000
E007FE00
C007FE00
ENDCHAR
STARTCHAR threequarters
ENCODING 190
SWIDTH 834 0
DWIDTH 28 0
BBX 26 24 4 0
BITMAP
078001C0
1FE00380
38600700
30600E00
30600C00
00E01C00
07803800
07807000
01C0E000
00C1C000
C0C38380
C1C38780
C3870F00
7F0E1F00
3C1C3B00
00387300
0070E300
00E1C600
00E38600
01C7FF80
0387FF80
07000E00
0E000C00
1C000C00
ENDCHAR
STARTCHAR questiondown
ENCODING 191
SWIDTH 611 0
DWIDTH 20 0
BBX 15 25 3 -7
BITMAP
0078
0078
0078
0000
0000
0000
0070
0070
00E0
01E0
03C0
0780
0F00
1E00
3C00
7800
F000
E00E
E00E
E01C
E03C
F078
FFF0
7FE0
1F80
ENDCHAR
STARTCHAR Agrave
ENCODING 192
SWIDTH 667 0
DWIDTH 22 0
BBX 20 31 1 0
BITMAP
001E00
000F00
000700
000380
0001C0
000000
000780
000F80
000F80
001FC0
001DC0
003DC0
0039C0
0079C0
00F1C0
00E1C0
01E0E0
01C0E0
03C0E0
0380E0
0780E0
0FFFE0
0FFFF0
1FFFF0
1C0070
3C0070
380070
780070
700070
F00070
E00070
ENDCHAR
STARTCHAR Aacute
ENCODING 193
SWIDTH 667 0
DWIDTH 22 0
BBX 20 31 1 0
BITMAP
0000F0
0001E0
0003C0
000700
000E00
000000
000780
000F80
000F80
001FC0
001DC0
003DC0
0039C0
0079C0
00F1C0
00E1C0
01E0E0
01C0E0
03C0E0
0380E0
0780E0
0FFFE0
0FFFF0
1FFFF0
1C0070
3C0070
380070
780070
700070
F00070
E00070
ENDCHAR
STARTCHAR Acircumflex
ENCODING 194
SWIDTH 667 0
DWIDTH 22 0
BBX 20 31 1 0
BITMAP
0003C0
0007C0
000EE0
001CE0
003870
000000
000780
000F80
000F80
001FC0
001DC0
003DC0
0039C0
0079C0
00F1C0
00E1C0
01E0E0
01C0E0
03C0E0
0380E0
0780E0
0FFFE0
0FFFF0
1FFFF0
1C0070
3C0070
380070
780070
700070
F00070
E00070
ENDCHAR
STARTCHAR Atilde
ENCODING 195
SWIDTH 667 0
DWIDTH 22 0
BBX 21 31 1 0
BITMAP
000F18
001FB8
003BF0
0031E0
000000
000000
000780
000F80
000F80
001FC0
001DC0
003DC0
0039C0
0079C0
00F1C0
00E1C0
01E0E0
01C0E0
03C0E0
0380E0
0780E0
0FFFE0
0FFFF0
1FFFF0
1C0070
3C0070
380070
780070
700070
F00070
E00070
ENDCHAR
STARTCHAR Adieresis
ENCODING 196
SWIDTH 667 0
DWIDTH 22 0
BBX 20 30 1 0
BITMAP
003CF0
003CF0
003CF0
000000
000000
000780
000F80
000F80
001FC0
001DC0
003DC0
0039C0
0079C0
00F1C0
00E1C0
01E0E0
01C0E0
03C0E0
0380E0
0780E0
0FFFE0
0FFFF0
1FFFF0
1C0070
3C0070
380070
780070
700070
F00070
E00070
ENDCHAR
STARTCHAR Aring
ENCODING 197
SWIDTH 667 0
DWIDTH 22 0
BBX 20 31 1 0
BITMAP
0003C0
000660
000C20
000860
000CC0
000780
000000
000F80
000F80
001FC0
001DC0
003DC0
0039C0
0079C0
00F1C0
00E1C0
01E0E0
01C0E0
03C0E0
0380E0
0780E0
0FFFE0
0FFFF0
1FFFF0
1C0070
3C0070
380070
780070
700070
F00070
E00070
ENDCHAR
STARTCHAR AE
ENCODING 198
SWIDTH 1000 0
DWIDTH 33 0
BBX 34 25 1 0
BITMAP
000FFFFFC0
000FFFFFC0
001FFFFF80
001C380000
003C380000
0038700000
0078700000
0070700000
00F0E00000
00E0E00000
01E0E00000
01C0FFFE00
03C1FFFE00
0381FFFC00
0781C00000
0FFFC00000
0FFF800000
1FFF800000
1C07800000
3C07000000
3807000000
7807000000
780FFFFC00
F00FFFFC00
F00FFFF800
ENDCHAR
STARTCHAR Ccedilla
ENCODING 199
SWIDTH 722 0
DWIDTH 24 0
BBX 21 32 4 -7
BITMAP
001F00
00FFC0
03FFE0
07C1F0
0F8078
0E0078
1E0038
3C0038
380000
780000
780000
700000
F00000
F00000
F00000
E00070
E000F0
F000E0
F001E0
7003C0
780780
3C1F00
3FFE00
1FF800
07E000
018000
030000
03C000
00E000
106000
18E000
0FC000
ENDCHAR
STARTCHAR Egrave
ENCODING 200
SWIDTH 667 0
DWIDTH 22 0
BBX 22 31 3 0
BITMAP
003C00
001E00
000E00
000700
000380
000000
07FFFC
07FFFC
07FFF8
070000
0F0000
0E0000
0E0000
0E0000
1C0000
1C0000
1C0000
1FFFE0
1FFFE0
3FFFC0
380000
380000
380000
780000
700000
700000
700000
700000
FFFFC0
FFFFC0
FFFF80
ENDCHAR
STARTCHAR Eacute
ENCODING 201
SWIDTH 667 0
DWIDTH 22 0
BBX 22 31 3 0
BITMAP
0003C0
000780
000F00
001C00
003800
000000
07FFFC
07FFFC
07FFF8
070000
0F0000
0E0000
0E0000
0E0000
1C0000
1C0000
1C0000
1FFFE0
1FFFE0
3FFFC0
380000
380000
380000
780000
700000
700000
700000
700000
FFFFC0
FFFFC0
FFFF80
ENDCHAR
STARTCHAR Ecircumflex
ENCODING 202
SWIDTH 667 0
DWIDTH 22 0
BBX 22 31 3 0
BITMAP
000700
000F80
001DC0
0039C0
0070E0
000000
07FFFC
07FFFC
07FFF8
070000
0F0000
0E0000
0E0000
0E0000
1C0000
1C0000
1C0000
1FFFE0
1FFFE0
3FFFC0
380000
380000
380000
780000
700000
700000
700000
700000
FFFFC0
FFFFC0
FFFF80
ENDCHAR
STARTCHAR Edieresis
ENCODING 203
SWIDTH 667 0
DWIDTH 22 0
BBX 22 30 3 0
BITMAP
00F1E0
00F1E0
00F1E0
000000
000000
07FFFC
07FFFC
07FFF8
070000
0F0000
0E0000
0E0000
0E0000
1C0000
1C0000
1C0000
1FFFE0
1FFFE0
3FFFC0
380000
380000
380000
780000
700000
700000
700000
700000
FFFFC0
FFFFC0
FFFF80
ENDCHAR
STARTCHAR Igrave
ENCODING 204
SWIDTH 278 0
DWIDTH 9 0
BBX 10 31 3 0
BITMAP
1E00
0F00
0700
0380
01C0
0000
0700
0700
0700
0700
0F00
0E00
0E00
0E00
1E00
1C00
1C00
1C00
1C00
3C00
3800
3800
3800
3800
7800
7000
7000
7000
F000
E000
E000
ENDCHAR
STARTCHAR Iacute
ENCODING 205
SWIDTH 278 0
DWIDTH 9 0
BBX 11 31 3 0
BITMAP
01E0
03C0
0780
0E00
1C00
0000
0700
0700
0700
0700
0F00
0E00
0E00
0E00
1E00
1C00
1C00
1C00
1C00
3C00
3800
3800
3800
3800
7800
7000
7000
7000
F000
E000
E000
ENDCHAR
STARTCHAR Icircumflex
ENCODING 206
SWIDTH 278 0
DWIDTH 9 0
BBX 12 31 3 0
BITMAP
0380
07C0
0EE0
1CE0
3870
0000
0700
0700
0700
0700
0F00
0E00
0E00
0E00
1E00
1C00
1C00
1C00
1C00
3C00
3800
3800
3800
3800
7800
7000
7000
7000
F000
E000
E000
ENDCHAR
STARTCHAR Idieresis
ENCODING 207
SWIDTH 278 0
DWIDTH 9 0
BBX 12 30 3 0
BITMAP
3CF0
3CF0
3CF0
0000
0000
0700
0700
0700
0700
0F00
0E00
0E00
0E00
1E00
1C00
1C00
1C00
1C00
3C00
3800
3800
3800
3800
7800
7000
7000
7000
F000
E000
E000
ENDCHAR
STARTCHAR Eth
ENCODING 208
SWIDTH 722 0
DWIDTH 24 0
BBX 22 25 3 0
BITMAP
07FF80
07FFE0
07FFF0
0F00F8
0E003C
0E003C
0E001C
0E001C
1E001C
1C001C
1C001C
FFC01C
FFC01C
3C003C
380038
380078
380078
780070
7800F0
7001E0
7003C0
700F80
FFFF00
FFFE00
FFF000
ENDCHAR
STARTCHAR Ntilde
ENCODING 209
SWIDTH 722 0
DWIDTH 24 0
BBX 23 30 3 0
BITMAP
001E10
003F70
0077E0
0043C0
000000
07800E
07800E
07C00E
0FC00E
0FC01E
0EE01C
0EE01C
0EF01C
1E701C
1C7038
1C7838
1C3838
1C3838
3C3C38
381C70
381C70
381E70
780E70
700E60
700760
7007E0
7007E0
F003C0
E003C0
E003C0
ENDCHAR
STARTCHAR Ograve
ENCODING 210
SWIDTH 778 0
DWIDTH 25 0
BBX 25 31 3 0
BITMAP
000F0000
00078000
00038000
0001C000
0000E000
00000000
000FC000
007FF800
01FFFC00
03E03E00
07801F00
0F000F00
1E000780
3C000780
38000380
78000380
70000380
F0000380
F0000780
E0000780
E0000700
E0000F00
E0000E00
F0001E00
70003C00
78007800
7C00F800
3E03E000
1FFFC000
0FFF0000
01F80000
ENDCHAR
STARTCHAR Oacute
ENCODING 211
SWIDTH 778 0
DWIDTH 25 0
BBX 25 31 3 0
BITMAP
00001E00
00003C00
00007800
0000E000
0001C000
00000000
000F8000
007FF000
01FFFC00
03E07E00
07801F00
0F000F00
1E000780
3C000780
38000380
78000380
70000380
F0000380
E0000380
E0000780
E0000700
E0000F00
E0000E00
F0001E00
F0003C00
78007800
7C00F800
3E03E000
1FFFC000
0FFF0000
03F80000
ENDCHAR
STARTCHAR Ocircumflex
ENCODING 212
SWIDTH 778 0
DWIDTH 25 0
BBX 25 31 3 0
BITMAP
0001E000
0003E000
00077000
000E7000
001C3800
00000000
000FC000
007FF800
01FFFC00
03E03E00
07801F00
0F000F00
1E000780
3C000780
38000380
78000380
70000380
F0000380
F0000780
E0000780
E0000700
E0000F00
E0000E00
F0001E00
70003C00
78007800
7C00F800
3E03E000
1FFFC000
0FFF0000
01F80000
ENDCHAR
STARTCHAR Otilde
ENCODING 213
SWIDTH 778 0
DWIDTH 25 0
BBX 25 30 3 0
BITMAP
001E1000
003F7000
0077E000
0043C000
00000000
000FC000
007FF800
01FFFC00
03E03E00
07801F00
0F000F00
1E000780
3C000780
38000380
78000380
70000380
F0000380
F0000780
E0000780
E0000700
E0000F00
E0000E00
F0001E00
70003C00
78007800
7C00F800
3E03E000
1FFFC000
0FFF0000
01F80000
ENDCHAR
STARTCHAR Odieresis
ENCODING 214
SWIDTH 778 0
DWIDTH 25 0
BBX 25 30 3 0
BITMAP
00787800
00787800
00787800
00000000
00000000
000FC000
007FF800
01FFFC00
03E03E00
07801F00
0F000F00
1E000780
3C000780
38000380
78000380
70000380
F0000380
F0000780
E0000780
E0000700
E0000F00
E0000E00
F0001E00
70003C00
78007800
7C00F800
3E03E000
1FFFC000
0FFF0000
01F80000
ENDCHAR
STARTCHAR multiply
ENCODING 215
SWIDTH 584 0
DWIDTH 19 0
BBX 18 15 3 1
BITMAP
180180
3C03C0
1C0780
0E0F00
0F1C00
07B800
03F000
01E000
03E000
07F000
0E7800
3C3C00
781E00
F00E00
600400
ENDCHAR
STARTCHAR Oslash
ENCODING 216
SWIDTH 778 0
DWIDTH 26 0
BBX 29 25 1 0
BITMAP
0003F818
001FFE30
007FFFE0
00F80FC0
01E003C0
03C007C0
07800DE0
0F0019E0
0E0030E0
1E00E0E0
1C0180E0
1C0300E0
1C0601E0
3C0C01E0
3C1801C0
3C7003C0
3CC00380
3D800780
1F000F00
1E001E00
1F003E00
3FC0F800
67FFF000
C1FFC000
007E0000
ENDCHAR
STARTCHAR Ugrave
ENCODING 217
SWIDTH 722 0
DWIDTH 24 0
BBX 22 31 4 0
BITMAP
003C00
001E00
000E00
000700
000380
000000
0E001C
0E001C
0E001C
1E003C
1C003C
1C0038
1C0038
1C0038
3C0078
380070
380070
380070
380070
7800F0
7000E0
7000E0
F000E0
F001E0
F001C0
7003C0
780780
7C0F00
3FFE00
1FFC00
07E000
ENDCHAR
STARTCHAR Uacute
ENCODING 218
SWIDTH 722 0
DWIDTH 24 0
BBX 22 31 4 0
BITMAP
0003C0
000780
000F00
001C00
003800
000000
0E001C
0E001C
0E001C
1E003C
1C003C
1C0038
1C0038
1C0038
3C0078
380070
380070
380070
380070
7800F0
7000E0
7000E0
F000E0
F001E0
F001C0
7003C0
780780
7C0F00
3FFE00
1FFC00
07E000
ENDCHAR
STARTCHAR Ucircumflex
ENCODING 219
SWIDTH 722 0
DWIDTH 24 0
BBX 22 31 4 0
BITMAP
000780
000F80
001DC0
0039C0
0070E0
000000
0E001C
0E001C
0E001C
1E003C
1C003C
1C0038
1C0038
1C0038
3C0078
380070
380070
380070
380070
7800F0
7000E0
7000E0
F000E0
F001E0
F001C0
7003C0
780780
7C0F00
3FFE00
1FFC00
07E000
ENDCHAR
STARTCHAR Udieresis
ENCODING 220
SWIDTH 722 0
DWIDTH 24 0
BBX 22 30 4 0
BITMAP
00F1E0
00F1E0
00F1E0
000000
000000
0E001C
0E001C
0E001C
1E003C
1C003C
1C0038
1C0038
1C0038
3C0078
380070
380070
380070
380070
7800F0
7000E0
7000E0
F000E0
F001E0
F001C0
7003C0
780780
7C0F00
3FFE00
1FFC00
07E000
ENDCHAR
STARTCHAR Yacute
ENCODING 221
SWIDTH 667 0
DWIDTH 22 0
BBX 22 31 6 0
BITMAP
001E00
003C00
007800
00E000
01C000
000000
F0007C
F000F8
7800F0
7801E0
3803C0
3C0780
3C0700
1E0F00
1E1E00
0E3C00
0F7800
0F7000
07E000
07E000
03C000
038000
038000
078000
078000
070000
070000
070000
0F0000
0E0000
0E0000
ENDCHAR
STARTCHAR Thorn
ENCODING 222
SWIDTH 667 0
DWIDTH 22 0
BBX 20 25 3 0
BITMAP
070000
070000
070000
0F0000
0E0000
0FFF80
0FFFE0
0FFFF0
1E00F0
1C0070
1C0070
1C0070
1C0070
3C00F0
3800E0
3803E0
3FFFC0
7FFF80
7FFE00
700000
700000
700000
F00000
E00000
E00000
ENDCHAR
STARTCHAR germandbls
ENCODING 223
SWIDTH 611 0
DWIDTH 20 0
BBX 18 25 4 0
BITMAP
003E00
01FF80
03FF80
0783C0
0701C0
0E01C0
0E01C0
0E03C0
1E0380
1C0F00
1C7E00
1C7E00
1C7F00
3C0F00
380780
380380
380380
380380
700700
700700
700E00
703E00
F3FC00
E3F000
E3C000
ENDCHAR
STARTCHAR agrave
ENCODING 224
SWIDTH 556 0
DWIDTH 18 0
BBX 17 25 2 0
BITMAP
03C000
01E000
00E000
007000
003800
000000
000000
01FE00
07FF80
0F9F80
1C0380
1C0380
000380
000700
003F00
0FFF00
3FE700
7C0700
700E00
E00E00
E01E00
E03E00
F1FE00
7FCF00
3F8F00
ENDCHAR
STARTCHAR aacute
ENCODING 225
SWIDTH 556 0
DWIDTH 18 0
BBX 17 25 2 0
BITMAP
000F00
001E00
003C00
007000
00E000
000000
000000
01FE00
07FF80
0F9F80
1C0380
1C0380
000380
000700
003F00
0FFF00
3FE700
7C0700
700E00
E00E00
E01E00
E03E00
F1FE00
7FCF00
3F8F00
ENDCHAR
STARTCHAR acircumflex
ENCODING 226
SWIDTH 556 0
DWIDTH 18 0
BBX 17 25 2 0
BITMAP
003C00
007C00
00EE00
01CE00
038700
000000
000000
01FE00
07FF80
0F9F80
1C0380
1C0380
000380
000700
003F00
0FFF00
3FE700
7C0700
700E00
E00E00
E01E00
E03E00
F1FE00
7FCF00
3F8F00
ENDCHAR
STARTCHAR atilde
ENCODING 227
SWIDTH 556 0
DWIDTH 18 0
BBX 17 24 2 0
BITMAP
01E100
03F700
077E00
043C00
000000
000000
01FE00
07FF80
0F9F80
1C0380
1C0380
000380
000700
003F00
0FFF00
3FE700
7C0700
700E00
E00E00
E01E00
E03E00
F1FE00
7FCF00
3F8F00
ENDCHAR
STARTCHAR adieresis
ENCODING 228
SWIDTH 556 0
DWIDTH 18 0
BBX 17 23 2 0
BITMAP
078F00
078F00
078F00
000000
000000
01FE00
07FF80
0F9F80
1C0380
1C0380
000380
000700
003F00
0FFF00
3FE700
7C0700
700E00
E00E00
E01E00
E03E00
F1FE00
7FCF00
3F8F00
ENDCHAR
STARTCHAR aring
ENCODING 229
SWIDTH 556 0
DWIDTH 18 0
BBX 17 25 2 0
BITMAP
001C00
003600
006200
004600
006C00
003800
000000
01FE00
07FF80
0F9F80
1C0380
1C0380
000380
000700
003F00
0FFF00
3FE700
7C0700
700E00
E00E00
E01E00
E03E00
F1FE00
7FCF00
3F8F00
ENDCHAR
STARTCHAR ae
ENCODING 230
SWIDTH 889 0
DWIDTH 29 0
BBX 28 18 2 0
BITMAP
01FC1F80
07FF3FE0
0FCF7BE0
1E07E0F0
1C03C070
38038070
00078070
003F0070
07FFFFF0
1FFFFFF0
3F07FFF0
780E0000
F00E00E0
E01F01E0
E03F01C0
F1F78780
7FE3FF00
3F81FC00
ENDCHAR
STARTCHAR ccedilla
ENCODING 231
SWIDTH 500 0
DWIDTH 17 0
BBX 15 25 3 -7
BITMAP
00F0
07FC
0FFE
1E0E
380E
780E
7000
F000
E000
E000
E000
E01E
E01C
E03C
F078
7FF0
7FE0
1F00
0600
0600
0700
0380
0180
3380
1F00
ENDCHAR
STARTCHAR egrave
ENCODING 232
SWIDTH 556 0
DWIDTH 18 0
BBX 16 25 3 0
BITMAP
03C0
01E0
00E0
0070
0038
0000
0000
01F8
07FE
1FFE
3E0F
3807
7007
7007
FFFF
FFFF
FFFF
E000
E000
E00E
F01E
787C
7FF8
3FF0
0FC0
ENDCHAR
STARTCHAR eacute
ENCODING 233
SWIDTH 556 0
DWIDTH 18 0
BBX 16 24 3 0
BITMAP
000F
001E
003C
0070
00E0
0000
01F8
07FE
1FFE
3E0F
3807
7007
7007
FFFF
FFFF
FFFF
E000
E000
E00E
F01E
787C
7FF8
3FF0
0FC0
ENDCHAR
STARTCHAR ecircumflex
ENCODING 234
SWIDTH 556 0
DWIDTH 18 0
BBX 16 24 3 0
BITMAP
003C
007C
00EE
01CE
0387
0000
01F8
07FE
1FFE
3E0F
3807
7007
7007
FFFF
FFFF
FFFF
E000
E000
E00E
F01E
787C
7FF8
3FF0
0FC0
ENDCHAR
STARTCHAR edieresis
ENCODING 235
SWIDTH 556 0
DWIDTH 18 0
BBX 17 23 3 0
BITMAP
03C780
03C780
03C780
000000
000000
01F800
07FE00
1FFE00
3E0F00
380700
700700
700700
FFFF00
FFFF00
FFFF00
E00000
E00000
E00E00
F01E00
787C00
7FF800
3FF000
0FC000
ENDCHAR
STARTCHAR igrave
ENCODING 236
SWIDTH 278 0
DWIDTH 9 0
BBX 7 25 3 0
BITMAP
F0
78
38
1C
0E
00
00
0E
0E
1C
1C
1C
1C
38
38
38
38
38
70
70
70
70
70
E0
E0
ENDCHAR
STARTCHAR iacute
ENCODING 237
SWIDTH 278 0
DWIDTH 9 0
BBX 12 25 3 0
BITMAP
00F0
01E0
03C0
0700
0E00
0000
0000
0E00
0E00
1C00
1C00
1C00
1C00
3800
3800
3800
3800
3800
7000
7000
7000
7000
7000
E000
E000
ENDCHAR
STARTCHAR icircumflex
ENCODING 238
SWIDTH 278 0
DWIDTH 9 0
BBX 11 25 3 0
BITMAP
0780
0F80
1DC0
39C0
70E0
0000
0000
0E00
0C00
1C00
1C00
1C00
1C00
3800
3800
3800
3800
3800
7000
7000
7000
7000
7000
E000
E000
ENDCHAR
STARTCHAR idieresis
ENCODING 239
SWIDTH 278 0
DWIDTH 9 0
BBX 11 23 3 0
BITMAP
79E0
79E0
79E0
0000
0000
0E00
0C00
1C00
1C00
1C00
1C00
3800
3800
3800
3800
3800
7000
7000
7000
7000
7000
E000
E000
ENDCHAR
STARTCHAR eth
ENCODING 240
SWIDTH 556 0
DWIDTH 19 0
BBX 16 27 3 0
BITMAP
0C00
1E00
0F08
07BC
03F0
01E0
07F0
1E78
083C
01FC
07FE
1FFE
3E1F
380F
7007
7007
E007
E007
E007
E00E
E00E
E01E
E03C
F078
7FF0
3FE0
1F80
ENDCHAR
STARTCHAR ntilde
ENCODING 241
SWIDTH 556 0
DWIDTH 18 0
BBX 17 24 2 0
BITMAP
01E100
03F700
077E00
043C00
000000
000000
003C00
1CFF00
1FFF80
1F0780
1E0380
1C0380
3C0380
380700
380700
380700
380700
700E00
700E00
700E00
700E00
600E00
E01C00
E01C00
ENDCHAR
STARTCHAR ograve
ENCODING 242
SWIDTH 556 0
DWIDTH 19 0
BBX 16 25 3 0
BITMAP
03C0
01E0
00E0
0070
0038
0000
0000
01F0
07FC
1FFE
3E1F
380F
7007
7007
F007
E007
E007
E00E
E00E
E01E
E03C
F078
7FF0
7FE0
1F80
ENDCHAR
STARTCHAR oacute
ENCODING 243
SWIDTH 556 0
DWIDTH 19 0
BBX 16 25 3 0
BITMAP
000F
001E
003C
0070
00E0
0000
0000
01F0
07FC
1FFE
3E1F
380F
7007
7007
F007
E007
E007
E00E
E00E
E01E
E03C
F078
7FF0
7FE0
1F80
ENDCHAR
STARTCHAR ocircumflex
ENCODING 244
SWIDTH 556 0
DWIDTH 19 0
BBX 16 24 3 0
BITMAP
003C
007C
00EE
01CE
0387
0000
01F0
07FC
1FFE
3E1F
380F
7007
7007
F007
E007
E007
E00E
E00E
E01E
E03C
F078
7FF0
7FE0
1F80
ENDCHAR
STARTCHAR otilde
ENCODING 245
SWIDTH 556 0
DWIDTH 19 0
BBX 16 24 3 0
BITMAP
01E1
03F7
077E
043C
0000
0000
01F0
07FC
1FFE
3E1F
380F
7007
7007
F007
E007
E007
E00E
E00E
E01E
E03C
F078
7FF0
7FE0
1F80
ENDCHAR
STARTCHAR odieresis
ENCODING 246
SWIDTH 556 0
DWIDTH 19 0
BBX 17 22 3 0
BITMAP
078780
078780
078780
000000
01F000
07FC00
1FFE00
3E1F00
380F00
700700
700700
F00700
E00700
E00700
E00E00
E00E00
E01E00
E03C00
F07800
7FF000
7FE000
1F8000
ENDCHAR
STARTCHAR divide
ENCODING 247
SWIDTH 584 0
DWIDTH 19 0
BBX 15 15 4 1
BITMAP
00E0
01E0
01C0
0000
0000
0000
7FFE
FFFE
FFFC
0000
0000
0000
0700
0F00
0E00
ENDCHAR
STARTCHAR oslash
ENCODING 248
SWIDTH 611 0
DWIDTH 20 0
BBX 21 18 1 0
BITMAP
007C18
01FF30
07FFE0
0F8780
0E03C0
1E07C0
1C0DC0
3819C0
3831C0
3861C0
39C380
3B0380
3E0780
3C0F00
3E1E00
3FFC00
6FF800
C7E000
ENDCHAR
STARTCHAR ugrave
ENCODING 249
SWIDTH 556 0
DWIDTH 18 0
BBX 17 25 3 0
BITMAP
078000
03C000
01C000
00E000
007000
000000
000000
1C0380
1C0380
380700
380700
380700
380700
700E00
700E00
700E00
700E00
700E00
E01C00
E01C00
E03C00
F0FC00
FFF800
7FB800
3E3800
ENDCHAR
STARTCHAR uacute
ENCODING 250
SWIDTH 556 0
DWIDTH 18 0
BBX 17 25 3 0
BITMAP
000780
000F00
001E00
003800
007000
000000
000000
1C0380
1C0380
380700
380700
380700
380700
700E00
700E00
700E00
700E00
700E00
E01C00
E01C00
E03C00
F0FC00
FFF800
7FB800
3E3800
ENDCHAR
STARTCHAR ucircumflex
ENCODING 251
SWIDTH 556 0
DWIDTH 18 0
BBX 17 25 3 0
BITMAP
003C00
007C00
00EE00
01C600
038700
000000
000000
1C0380
1C0380
380700
380700
380700
380700
700E00
700E00
700E00
700E00
700E00
E01C00
E01C00
E03C00
F0FC00
FFF800
7FB800
3E3800
ENDCHAR
STARTCHAR udieresis
ENCODING 252
SWIDTH 556 0
DWIDTH 18 0
BBX 17 23 3 0
BITMAP
078F00
078F00
078F00
000000
000000
1C0380
1C0380
380700
380700
380700
380700
700E00
700E00
700E00
700E00
700E00
E01C00
E01C00
E03C00
F0FC00
FFF800
7FB800
3E3800
ENDCHAR
STARTCHAR yacute
ENCODING 253
SWIDTH 500 0
DWIDTH 17 0
BBX 19 32 0 -7
BITMAP
0003C0
000780
000F00
001C00
003800
000000
000000
0E00E0
0E01E0
0E01C0
0F0380
0F0380
070700
070700
070E00
071E00
071C00
073800
07B800
07F000
07F000
03E000
03C000
03C000
038000
038000
070000
0F0000
0E0000
FC0000
F80000
F00000
ENDCHAR
STARTCHAR thorn
ENCODING 254
SWIDTH 556 0
DWIDTH 19 0
BBX 18 31 1 -6
BITMAP
038000
038000
038000
030000
070000
070000
070000
073E00
067F80
0FFFC0
0FC3C0
0F01C0
0E01C0
1E01C0
1C01C0
1C01C0
1C01C0
1C03C0
3C0380
3C0780
3C0700
3E1E00
37FE00
73F800
71E000
700000
700000
E00000
E00000
E00000
E00000
ENDCHAR
STARTCHAR ydieresis
ENCODING 255
SWIDTH 500 0
DWIDTH 17 0
BBX 19 30 0 -7
BITMAP
03C780
03C780
03C780
000000
000000
0E00E0
0E01E0
0E01C0
0F0380
0F0380
070700
070700
070E00
071E00
071C00
073800
07B800
07F000
07F000
03E000
03C000
03C000
038000
038000
070000
0F0000
0E0000
FC0000
F80000
F00000
ENDCHAR
STARTCHAR Amacron
ENCODING 256
SWIDTH 667 0
DWIDTH 22 0
BBX 20 28 1 0
BITMAP
00FFC0
00FFC0
000000
000780
000F80
000F80
001FC0
001DC0
003DC0
0039C0
0079C0
00F1C0
00E1C0
01E0E0
01C0E0
03C0E0
0380E0
0780E0
0FFFE0
0FFFF0
1FFFF0
1C0070
3C0070
380070
780070
700070
F00070
E00070
ENDCHAR
STARTCHAR amacron
ENCODING 257
SWIDTH 556 0
DWIDTH 18 0
BBX 17 21 2 0
BITMAP
07FE00
07FE00
000000
01FE00
07FF00
0F9F80
1C0380
1C0380
000380
000700
007F00
0FFF00
3FC700
7C0700
700E00
E00E00
E01E00
E03E00
F1FE00
7FCF00
3F8F00
ENDCHAR
STARTCHAR Abreve
ENCODING 258
SWIDTH 667 0
DWIDTH 22 0
BBX 20 30 1 0
BITMAP
008080
00E380
007F00
003E00
000000
000780
000F80
000F80
001FC0
001DC0
003DC0
0039C0
0079C0
00F1C0
00E1C0
01E0E0
01C0E0
03C0E0
0380E0
0780E0
0FFFE0
0FFFF0
1FFFF0
1C0070
3C0070
380070
780070
700070
F00070
E00070
ENDCHAR
STARTCHAR abreve
ENCODING 259
SWIDTH 556 0
DWIDTH 18 0
BBX 17 23 2 0
BITMAP
040400
071C00
03F800
01F000
000000
01FE00
07FF00
0F9F80
1C0380
1C0380
000380
000700
007F00
0FFF00
3FC700
7C0700
700E00
E00E00
E01E00
E03E00
F1FE00
7FCF00
3F8F00
ENDCHAR
STARTCHAR Aogonek
ENCODING 260
SWIDTH 667 0
DWIDTH 22 0
BBX 20 31 1 -6
BITMAP
000780
000F80
000F80
001FC0
001DC0
003DC0
0039C0
0079C0
00F1C0
00E1C0
01E0E0
01C0E0
03C0E0
0380E0
0780E0
0FFFE0
0FFFF0
1FFFF0
1C0070
3C0070
380070
780070
700070
F00070
E06070
00E000
00C000
01C000
01C400
01FC00
00F800
ENDCHAR
STARTCHAR aogonek
ENCODING 261
SWIDTH 556 0
DWIDTH 18 0
BBX 17 24 2 -6
BITMAP
01FE00
07FF00
0F9F80
1C0380
1C0380
000380
000700
007F00
0FFF00
3FC700
7C0700
700E00
E00E00
E01E00
E03E00
F1FE00
7FCF00
3F8F00
038000
030000
070000
071000
07F000
03E000
ENDCHAR
STARTCHAR Cacute
ENCODING 262
SWIDTH 722 0
DWIDTH 24 0
BBX 21 31 4 0
BITMAP
000F00
001E00
003C00
003800
007000
000000
003F00
00FFC0
03FFE0
07C1F0
0F8070
0E0078
1E0038
3C0038
380000
780000
700000
700000
F00000
E00000
E00000
E00070
E000F0
E000E0
F001E0
7003C0
780780
3C1F00
3FFE00
1FF800
07E000
ENDCHAR
STARTCHAR cacute
ENCODING 263
SWIDTH 500 0
DWIDTH 17 0
BBX 15 24 3 0
BITMAP
0078
00F0
01E0
01C0
0380
0000
00F0
07FC
0FFE
1E1E
380E
780E
7000
F000
E000
E000
E000
E01C
E01C
E03C
F078
7FF0
7FE0
1F00
ENDCHAR
STARTCHAR Ccircumflex
ENCODING 264
SWIDTH 722 0
DWIDTH 24 0
BBX 21 31 4 0
BITMAP
001E00
003E00
007700
00E700
00C300
000000
003F00
00FFC0
03FFE0
07C1F0
0F8070
0E0078
1E0038
3C0038
380000
780000
700000
700000
F00000
E00000
E00000
E00070
E000F0
E000E0
F001E0
7003C0
780780
3C1F00
3FFE00
1FF800
07E000
ENDCHAR
STARTCHAR ccircumflex
ENCODING 265
SWIDTH 500 0
DWIDTH 17 0
BBX 15 24 3 0
BITMAP
00F0
01F0
03B8
0738
0618
0000
00F0
07FC
0FFE
1E1E
380E
780E
7000
F000
E000
E000
E000
E01C
E01C
E03C
F078
7FF0
7FE0
1F00
ENDCHAR
STARTCHAR Cdotaccent
ENCODING 266
SWIDTH 722 0
DWIDTH 24 0
BBX 21 29 4 0
BITMAP
003C00
003C00
003C00
000000
003F00
00FFC0
03FFE0
07C1F0
0F8070
0E0078
1E0038
3C0038
380000
780000
700000
700000
F00000
E00000
E00000
E00070
E000F0
E000E0
F001E0
7003C0
780780
3C1F00
3FFE00
1FF800
07E000
ENDCHAR
STARTCHAR cdotaccent
ENCODING 267
SWIDTH 500 0
DWIDTH 17 0
BBX 15 22 3 0
BITMAP
01E0
01E0
01E0
0000
00F0
07FC
0FFE
1E1E
380E
780E
7000
F000
E000
E000
E000
E01C
E01C
E03C
F078
7FF0
7FE0
1F00
ENDCHAR
STARTCHAR Ccaron
ENCODING 268
SWIDTH 722 0
DWIDTH 24 0
BBX 21 31 4 0
BITMAP
01C300
00C700
00EE00
007C00
007800
000000
003F00
00FFC0
03FFE0
07C1F0
0F8070
0E0078
1E0038
3C0038
380000
780000
700000
700000
F00000
E00000
E00000
E00070
E000F0
E000E0
F001E0
7003C0
780780
3C1F00
3FFE00
1FF800
07E000
ENDCHAR
STARTCHAR ccaron
ENCODING 269
SWIDTH 500 0
DWIDTH 17 0
BBX 15 24 3 0
BITMAP
0E18
0638
0770
03E0
03C0
0000
00F0
07FC
0FFE
1E1E
380E
780E
7000
F000
E000
E000
E000
E01C
E01C
E03C
F078
7FF0
7FE0
1F00
ENDCHAR
STARTCHAR Dcaron
ENCODING 270
SWIDTH 722 0
DWIDTH 24 0
BBX 22 31 3 0
BITMAP
00E180
006380
007700
003E00
003C00
000000
07FF80
07FFE0
07FFF0
0F00F8
0E0038
0E003C
0E001C
0E001C
1C001C
1C001C
1C001C
1C001C
1C001C
38001C
380038
380038
380078
780070
7000E0
7001E0
7003C0
700F80
FFFF00
FFFE00
FFF000
ENDCHAR
STARTCHAR dcaron
ENCODING 271
SWIDTH 750 0
DWIDTH 24 0
BBX 24 25 3 0
BITMAP
0000E7
0000E7
0000E7
0000E3
0001C3
0001C6
0001CC
03F1C0
07F980
1FFF80
3E1F80
380780
780780
700700
F00700
E00700
E00700
E00F00
E00E00
E01E00
E03E00
F0FE00
7FEE00
3FCE00
1F8E00
ENDCHAR
STARTCHAR Dcroat
ENCODING 272
SWIDTH 722 0
DWIDTH 24 0
BBX 22 25 3 0
BITMAP
07FF80
07FFE0
07FFF0
0F00F8
0E003C
0E003C
0E001C
0E001C
1E001C
1C001C
1C001C
FFC01C
FFC01C
3C003C
380038
380078
380078
780070
7800F0
7001E0
7003C0
700F80
FFFF00
FFFE00
FFF000
ENDCHAR
STARTCHAR dcroat
ENCODING 273
SWIDTH 556 0
DWIDTH 18 0
BBX 19 25 3 0
BITMAP
0000E0
0000E0
0000E0
0000E0
0001C0
003FC0
003FC0
03F1C0
07F980
1FFF80
3E1F80
380780
780780
700700
F00700
E00700
E00700
E00F00
E00E00
E01E00
E03E00
F0FE00
7FEE00
3FCE00
1F8E00
ENDCHAR
STARTCHAR Emacron
ENCODING 274
SWIDTH 667 0
DWIDTH 22 0
BBX 22 28 3 0
BITMAP
01FF80
01FF80
000000
07FFFC
07FFFC
07FFF8
070000
0F0000
0E0000
0E0000
0E0000
1C0000
1C0000
1C0000
1FFFE0
1FFFE0
3FFFC0
380000
380000
380000
780000
700000
700000
700000
700000
FFFFC0
FFFFC0
FFFF80
ENDCHAR
STARTCHAR emacron
ENCODING 275
SWIDTH 556 0
DWIDTH 18 0
BBX 16 21 3 0
BITMAP
0FFC
0FFC
0000
01F8
07FE
1FFE
3E0F
3807
7007
7007
FFFF
FFFF
FFFF
E000
E000
E00E
F01E
787C
7FF8
3FF0
0FC0
ENDCHAR
STARTCHAR Ebreve
ENCODING 276
SWIDTH 667 0
DWIDTH 22 0
BBX 22 30 3 0
BITMAP
010100
01C700
00FE00
007C00
000000
07FFFC
07FFFC
07FFF8
070000
0F0000
0E0000
0E0000
0E0000
1C0000
1C0000
1C0000
1FFFE0
1FFFE0
3FFFC0
380000
380000
380000
780000
700000
700000
700000
700000
FFFFC0
FFFFC0
FFFF80
ENDCHAR
STARTCHAR ebreve
ENCODING 277
SWIDTH 556 0
DWIDTH 18 0
BBX 16 23 3 0
BITMAP
0808
0E38
07F0
03E0
0000
01F8
07FE
1FFE
3E0F
3807
7007
7007
FFFF
FFFF
FFFF
E000
E000
E00E
F01E
787C
7FF8
3FF0
0FC0
ENDCHAR
STARTCHAR Edotaccent
ENCODING 278
SWIDTH 667 0
DWIDTH 22 0
BBX 22 29 3 0
BITMAP
003C00
003C00
003C00
000000
07FFFC
07FFFC
07FFF8
070000
0F0000
0E0000
0E0000
0E0000
1C0000
1C0000
1C0000
1FFFE0
1FFFE0
3FFFC0
380000
380000
380000
780000
700000
700000
700000
700000
FFFFC0
FFFFC0
FFFF80
ENDCHAR
STARTCHAR edotaccent
ENCODING 279
SWIDTH 556 0
DWIDTH 18 0
BBX 16 22 3 0
BITMAP
01E0
01E0
01E0
0000
01F8
07FE
1FFE
3E0F
3807
7007
7007
FFFF
FFFF
FFFF
E000
E000
E00E
F01E
787C
7FF8
3FF0
0FC0
ENDCHAR
STARTCHAR Eogonek
ENCODING 280
SWIDTH 667 0
DWIDTH 22 0
BBX 22 31 3 -6
BITMAP
07FFFC
07FFFC
07FFF8
070000
0F0000
0E0000
0E0000
0E0000
1C0000
1C0000
1C0000
1FFFE0
1FFFE0
3FFFC0
380000
380000
380000
780000
700000
700000
700000
700000
FFFFC0
FFFFC0
FFFF80
01C000
018000
038000
038800
03F800
01F000
ENDCHAR
STARTCHAR eogonek
ENCODING 281
SWIDTH 556 0
DWIDTH 18 0
BBX 16 24 3 -6
BITMAP
01F8
07FE
1FFE
3E0F
3807
7007
7007
FFFF
FFFF
FFFF
E000
E000
E00E
F01E
787C
7FF8
3FF0
0FC0
0380
0300
0700
0710
07F0
03E0
ENDCHAR
STARTCHAR Ecaron
ENCODING 282
SWIDTH 667 0
DWIDTH 22 0
BBX 22 31 3 0
BITMAP
01C300
00C700
00EE00
007C00
007800
000000
07FFFC
07FFFC
07FFF8
070000
0F0000
0E0000
0E0000
0E0000
1C0000
1C0000
1C0000
1FFFE0
1FFFE0
3FFFC0
380000
380000
380000
780000
700000
700000
700000
700000
FFFFC0
FFFFC0
FFFF80
ENDCHAR
STARTCHAR ecaron
ENCODING 283
SWIDTH 556 0
DWIDTH 18 0
BBX 16 24 3 0
BITMAP
070C
031C
03B8
01F0
01E0
0000
01F8
07FE
1FFE
3E0F
3807
7007
7007
FFFF
FFFF
FFFF
E000
E000
E00E
F01E
787C
7FF8
3FF0
0FC0
ENDCHAR
STARTCHAR Gcircumflex
ENCODING 284
SWIDTH 778 0
DWIDTH 25 0
BBX 23 31 4 0
BITMAP
000F00
001F00
003B80
007380
006180
000000
001FC0
007FF0
01FFFC
03E07C
07801E
0F001E
1E000E
1C000E
380000
380000
700000
700000
700FFE
E00FFE
E00FFC
E0001C
E0001C
F0003C
F00038
700078
7800F8
3E03F8
3FFFB0
0FFE30
03F800
ENDCHAR
STARTCHAR gcircumflex
ENCODING 285
SWIDTH 556 0
DWIDTH 18 0
BBX 19 31 1 -7
BITMAP
003C00
007C00
00EE00
01CE00
018600
000000
00F8E0
01FEE0
07FFC0
0F87C0
0E03C0
1C03C0
1C0380
380380
380380
380380
380780
380700
380F00
380F00
3C3F00
1FF700
0FE600
078E00
000E00
E01C00
E01C00
F07800
7FF000
7FE000
1FC000
ENDCHAR
STARTCHAR Gbreve
ENCODING 286
SWIDTH 778 0
DWIDTH 25 0
BBX 23 30 4 0
BITMAP
004040
0071C0
003F80
001F00
000000
001FC0
007FF0
01FFFC
03E07C
07801E
0F001E
1E000E
1C000E
380000
380000
700000
700000
700FFE
E00FFE
E00FFC
E0001C
E0001C
F0003C
F00038
700078
7800F8
3E03F8
3FFFB0
0FFE30
03F800
ENDCHAR
STARTCHAR gbreve
ENCODING 287
SWIDTH 556 0
DWIDTH 18 0
BBX 19 30 1 -7
BITMAP
020200
038E00
01FC00
00F800
000000
00F8E0
01FEE0
07FFC0
0F87C0
0E03C0
1C03C0
1C0380
380380
380380
380380
380780
380700
380F00
380F00
3C3F00
1FF700
0FE600
078E00
000E00
E01C00
E01C00
F07800
7FF000
7FE000
1FC000
ENDCHAR
STARTCHAR Gdotaccent
ENCODING 288
SWIDTH 778 0
DWIDTH 25 0
BBX 23 29 4 0
BITMAP
001E00
001E00
001E00
000000
001FC0
007FF0
01FFFC
03E07C
07801E
0F001E
1E000E
1C000E
380000
380000
700000
700000
700FFE
E00FFE
E00FFC
E0001C
E0001C
F0003C
F00038
700078
7800F8
3E03F8
3FFFB0
0FFE30
03F800
ENDCHAR
STARTCHAR gdotaccent
ENCODING 289
SWIDTH 556 0
DWIDTH 18 0
BBX 19 29 1 -7
BITMAP
007800
007800
007800
000000
00F8E0
01FEE0
07FFC0
0F87C0
0E03C0
1C03C0
1C0380
380380
380380
380380
380780
380700
380F00
380F00
3C3F00
1FF700
0FE600
078E00
000E00
E01C00
E01C00
F07800
7FF000
7FE000
1FC000
ENDCHAR
STARTCHAR Gcommaaccent
ENCODING 290
SWIDTH 778 0
DWIDTH 25 0
BBX 23 34 4 -9
BITMAP
001FC0
007FF0
01FFFC
03E07C
07801E
0F001E
1E000E
1C000E
380000
380000
700000
700000
700FFE
E00FFE
E00FFC
E0001C
E0001C
F0003C
F00038
700078
7800F8
3E03F8
3FFFB0
0FFE30
03F800
000000
007800
007800
007800
003000
003000
006000
00C000
008000
ENDCHAR
STARTCHAR gcommaaccent
ENCODING 291
SWIDTH 556 0
DWIDTH 18 0
BBX 19 33 1 -7
BITMAP
001000
003000
006000
006000
007000
007000
007000
000000
00F8E0
01FEE0
07FFC0
0F87C0
0E03C0
1C03C0
1C0380
380380
380380
380380
380780
380700
380F00
380F00
3C3F00
1FF700
0FE600
078E00
000E00
E01C00
E01C00
F07800
7FF000
7FE000
1FC000
ENDCHAR
STARTCHAR Hcircumflex
ENCODING 292
SWIDTH 722 0
DWIDTH 24 0
BBX 23 31 3 0
BITMAP
000F00
001F00
003B80
007380
006180
000000
07000E
07000E
07000E
07000E
0E001E
0E001C
0E001C
0E001C
0E003C
1C0038
1C0038
1FFFF8
1FFFF8
3FFFF8
380070
380070
380070
780070
7000F0
7000E0
7000E0
7000E0
E001C0
E001C0
E001C0
ENDCHAR
STARTCHAR hcircumflex
ENCODING 293
SWIDTH 556 0
DWIDTH 18 0
BBX 17 31 2 0
BITMAP
03C000
07C000
0EE000
1CE000
186000
000000
070000
070000
070000
070000
0E0000
0E0000
0E0000
0E3C00
0CFF00
1FFF80
1F0780
1E0380
1C0380
380700
380700
380700
380700
380700
700E00
700E00
700E00
700E00
E01C00
E01C00
E01C00
ENDCHAR
STARTCHAR Hbar
ENCODING 294
SWIDTH 722 0
DWIDTH 24 0
BBX 23 25 3 0
BITMAP
07000E
07000E
07000E
07000E
0E001E
0E001C
FFFFFE
FFFFFE
0E003C
1C0038
1C0038
1FFFF8
1FFFF8
3FFFF8
380070
380070
380070
780070
7000F0
7000E0
7000E0
7000E0
E001C0
E001C0
E001C0
ENDCHAR
STARTCHAR hbar
ENCODING 295
SWIDTH 556 0
DWIDTH 18 0
BBX 17 25 2 0
BITMAP
070000
070000
070000
070000
0E0000
FF0000
FF0000
0E3C00
0CFF00
1FFF80
1F0780
1E0380
1C0380
380700
380700
380700
380700
380700
700E00
700E00
700E00
700E00
E01C00
E01C00
E01C00
ENDCHAR
STARTCHAR Itilde
ENCODING 296
SWIDTH 278 0
DWIDTH 9 0
BBX 11 30 3 0
BITMAP
3C20
7EE0
EFC0
8780
0000
0700
0700
0700
0700
0F00
0E00
0E00
0E00
1E00
1C00
1C00
1C00
1C00
3C00
3800
3800
3800
3800
7800
7000
7000
7000
F000
E000
E000
ENDCHAR
STARTCHAR itilde
ENCODING 297
SWIDTH 278 0
DWIDTH 9 0
BBX 11 23 2 0
BITMAP
3C20
7EE0
EFC0
8780
0000
0700
0600
0E00
0E00
0E00
0E00
1C00
1C00
1C00
1C00
1C00
3800
3800
3800
3800
3800
7000
7000
ENDCHAR
STARTCHAR Imacron
ENCODING 298
SWIDTH 278 0
DWIDTH 9 0
BBX 10 28 3 0
BITMAP
FFC0
FFC0
0000
0700
0700
0700
0700
0F00
0E00
0E00
0E00
1E00
1C00
1C00
1C00
1C00
3C00
3800
3800
3800
3800
7800
7000
7000
7000
F000
E000
E000
ENDCHAR
STARTCHAR imacron
ENCODING 299
SWIDTH 278 0
DWIDTH 9 0
BBX 10 21 2 0
BITMAP
FFC0
FFC0
0000
0700
0600
0E00
0E00
0E00
0E00
1C00
1C00
1C00
1C00
1C00
3800
3800
3800
3800
3800
7000
7000
ENDCHAR
STARTCHAR Ibreve
ENCODING 300
SWIDTH 278 0
DWIDTH 9 0
BBX 10 30 3 0
BITMAP
4040
71C0
3F80
1F00
0000
0700
0700
0700
0700
0F00
0E00
0E00
0E00
1E00
1C00
1C00
1C00
1C00
3C00
3800
3800
3800
3800
7800
7000
7000
7000
F000
E000
E000
ENDCHAR
STARTCHAR ibreve
ENCODING 301
SWIDTH 278 0
DWIDTH 9 0
BBX 9 23 3 0
BITMAP
8080
E380
7F00
3E00
0000
0E00
0C00
1C00
1C00
1C00
1C00
3800
3800
3800
3800
3800
7000
7000
7000
7000
7000
E000
E000
ENDCHAR
STARTCHAR Iogonek
ENCODING 302
SWIDTH 278 0
DWIDTH 9 0
BBX 8 31 3 -6
BITMAP
07
07
07
07
0F
0E
0E
0E
1E
1C
1C
1C
1C
3C
38
38
38
38
78
70
70
70
F0
E0
F0
70
60
E0
E2
FE
7C
ENDCHAR
STARTCHAR iogonek
ENCODING 303
SWIDTH 222 0
DWIDTH 7 0
BBX 8 31 2 -6
BITMAP
07
07
07
07
00
00
00
0E
0E
0C
1C
1C
1C
1C
38
38
38
38
70
70
70
70
70
E0
F0
70
60
E0
E2
FE
7C
ENDCHAR
STARTCHAR Idotaccent
ENCODING 304
SWIDTH 278 0
DWIDTH 9 0
BBX 8 29 3 0
BITMAP
1E
1E
1E
00
07
07
07
07
0F
0E
0E
0E
1E
1C
1C
1C
1C
3C
38
38
38
38
78
70
70
70
F0
E0
E0
ENDCHAR
STARTCHAR dotlessi
ENCODING 305
SWIDTH 278 0
DWIDTH 9 0
BBX 7 18 3 0
BITMAP
0E
0C
1C
1C
1C
1C
38
38
38
38
38
70
70
70
70
70
E0
E0
ENDCHAR
STARTCHAR IJ
ENCODING 306
SWIDTH 764 0
DWIDTH 25 0
BBX 25 25 3 0
BITMAP
07000380
07000380
07000380
07000380
0F000780
0E000700
0E000700
0E000700
1E000700
1C000E00
1C000E00
1C000E00
1C000E00
3C001E00
38001C00
38001C00
38E01C00
38E03C00
78E03C00
70E03800
70E07800
70F0F000
F07FE000
E07FC000
E01F0000
ENDCHAR
STARTCHAR ij
ENCODING 307
SWIDTH 433 0
DWIDTH 14 0
BBX 15 32 2 -7
BITMAP
070E
070E
070E
070E
0000
0000
0000
0E1C
0E1C
0C38
1C38
1C38
1C38
1C30
3830
3870
3870
3870
7070
70E0
70E0
70E0
70E0
E0E0
E1C0
01C0
01C0
0180
0380
0780
1F00
1E00
ENDCHAR
STARTCHAR Jcircumflex
ENCODING 308
SWIDTH 500 0
DWIDTH 16 0
BBX 17 31 2 0
BITMAP
000F00
001F00
003B80
007380
006180
000000
000380
000380
000380
000380
000780
000700
000700
000700
000700
000E00
000E00
000E00
000E00
001E00
001C00
001C00
E01C00
E03C00
E03C00
E03800
E07800
F0F000
7FE000
7FC000
1F0000
ENDCHAR
STARTCHAR jcircumflex
ENCODING 309
SWIDTH 222 0
DWIDTH 7 0
BBX 12 31 -2 -7
BITMAP
01E0
03E0
0770
0E70
0C30
0000
00E0
00E0
01C0
01C0
01C0
01C0
0180
0180
0380
0380
0380
0380
0700
0700
0700
0700
0700
0E00
0E00
0E00
0C00
1C00
3C00
F800
F000
ENDCHAR
STARTCHAR Kcommaaccent
ENCODING 310
SWIDTH 667 0
DWIDTH 22 0
BBX 23 34 3 -9
BITMAP
07001E
07003C
070078
0F00F0
0F01E0
0E03C0
0E0780
0E0F00
1E1E00
1C3C00
1CF800
1DF800
1FF800
3F3C00
3E1C00
3C1E00
380E00
780F00
780F00
700780
700780
7003C0
F003C0
E001E0
E001E0
000000
00F000
00F000
00F000
006000
006000
00C000
018000
010000
ENDCHAR
STARTCHAR kcommaaccent
ENCODING 311
SWIDTH 500 0
DWIDTH 17 0
BBX 17 34 2 -9
BITMAP
070000
070000
070000
070000
0E0000
0E0000
0E0000
0E0780
0C0F00
1C1E00
1C3C00
1C7000
19E000
3BC000
3FE000
3FE000
3CF000
387000
707000
703800
703800
703C00
703C00
E01C00
E01E00
000000
03C000
03C000
03C000
018000
018000
030000
060000
040000
ENDCHAR
STARTCHAR kgreenlandic
ENCODING 312
SWIDTH 500 0
DWIDTH 17 0
BBX 17 18 2 0
BITMAP
0E0780
0C0F00
1C1E00
1C3C00
1C7000
19E000
3BC000
3FE000
3FE000
3CF000
387000
707000
703800
703800
703C00
703C00
E01C00
E01E00
ENDCHAR
STARTCHAR Lacute
ENCODING 313
SWIDTH 556 0
DWIDTH 18 0
BBX 15 31 3 0
BITMAP
01E0
03C0
0780
0700
0E00
0000
0700
0700
0700
0700
0F00
0E00
0E00
0E00
1E00
1C00
1C00
1C00
1C00
3C00
3800
3800
3800
7800
7800
7000
7000
7000
FFFE
FFFE
FFFC
ENDCHAR
STARTCHAR lacute
ENCODING 314
SWIDTH 222 0
DWIDTH 7 0
BBX 10 31 2 0
BITMAP
03C0
0780
0F00
0E00
1C00
0000
0700
0700
0700
0700
0E00
0E00
0E00
0E00
0C00
1C00
1C00
1C00
1C00
3800
3800
3800
3800
3800
7000
7000
7000
7000
F000
E000
E000
ENDCHAR
STARTCHAR Lcommaaccent
ENCODING 315
SWIDTH 556 0
DWIDTH 18 0
BBX 15 34 3 -9
BITMAP
0700
0700
0700
0700
0F00
0E00
0E00
0E00
1E00
1C00
1C00
1C00
1C00
3C00
3800
3800
3800
7800
7800
7000
7000
7000
FFFE
FFFE
FFFC
0000
0780
0780
0780
0300
0300
0600
0C00
0800
ENDCHAR
STARTCHAR lcommaaccent
ENCODING 316
SWIDTH 222 0
DWIDTH 7 0
BBX 8 34 2 -9
BITMAP
07
07
07
07
0E
0E
0E
0E
0C
1C
1C
1C
1C
38
38
38
38
38
70
70
70
70
F0
E0
E0
00
78
78
78
30
30
60
C0
80
ENDCHAR
STARTCHAR Lcaron
ENCODING 317
SWIDTH 750 0
DWIDTH 24 0
BBX 24 25 3 0
BITMAP
070007
070007
070007
070003
0F0003
0E0006
0E000C
0E0000
1E0000
1C0000
1C0000
1C0000
1C0000
3C0000
380000
380000
380000
780000
780000
700000
700000
700000
FFFE00
FFFE00
FFFC00
ENDCHAR
STARTCHAR lcaron
ENCODING 318
SWIDTH 433 0
DWIDTH 14 0
BBX 15 25 2 0
BITMAP
070E
070E
070E
0706
0E06
0E0C
0E18
0E00
0C00
1C00
1C00
1C00
1C00
3800
3800
3800
3800
3800
7000
7000
7000
7000
F000
E000
E000
ENDCHAR
STARTCHAR Ldot
ENCODING 319
SWIDTH 806 0
DWIDTH 26 0
BBX 24 25 3 0
BITMAP
070000
070000
070000
070000
0F0000
0E0000
0E0000
0E0000
1E0000
1C0000
1C0000
1C000F
1C000F
3C001E
38001E
380000
380000
780000
780000
700000
700000
700000
FFFE00
FFFE00
FFFC00
ENDCHAR
STARTCHAR ldot
ENCODING 320
SWIDTH 489 0
DWIDTH 16 0
BBX 15 25 2 0
BITMAP
0700
0700
0700
0700
0E00
0E00
0E00
0E00
0C00
1C00
1C00
1C1E
1C1E
383C
383C
3800
3800
3800
7000
7000
7000
7000
F000
E000
E000
ENDCHAR
STARTCHAR Lslash
ENCODING 321
SWIDTH 556 0
DWIDTH 19 0
BBX 17 25 2 0
BITMAP
038000
038000
038000
078000
078000
070000
070000
070000
0F7000
0FC000
0F0000
1E0000
7E0000
FE0000
9C0000
1C0000
1C0000
3C0000
3C0000
380000
380000
380000
7FFF80
7FFF80
7FFF00
ENDCHAR
STARTCHAR lslash
ENCODING 322
SWIDTH 222 0
DWIDTH 7 0
BBX 8 25 2 0
BITMAP
07
07
07
07
0E
0E
0E
0E
0C
1D
1F
1E
3C
F8
38
38
38
38
70
70
70
70
70
E0
E0
ENDCHAR
STARTCHAR Nacute
ENCODING 323
SWIDTH 722 0
DWIDTH 24 0
BBX 23 31 3 0
BITMAP
000780
000F00
001E00
001C00
003800
000000
07800E
07800E
07C00E
0FC00E
0FC01E
0EE01C
0EE01C
0EF01C
1E701C
1C7038
1C7838
1C3838
1C3838
3C3C38
381C70
381C70
381E70
780E70
700E60
700760
7007E0
7007E0
F003C0
E003C0
E003C0
ENDCHAR
STARTCHAR nacute
ENCODING 324
SWIDTH 556 0
DWIDTH 18 0
BBX 17 24 2 0
BITMAP
003C00
007800
00F000
00E000
01C000
000000
1C3C00
1CFF00
1FFF00
1F0780
1E0380
1C0380
3C0380
380700
380700
380700
380700
700E00
700E00
700E00
700E00
600E00
E01C00
E01C00
ENDCHAR
STARTCHAR Ncommaaccent
ENCODING 325
SWIDTH 722 0
DWIDTH 24 0
BBX 23 34 3 -9
BITMAP
07800E
07800E
07C00E
0FC00E
0FC01E
0EE01C
0EE01C
0EF01C
1E701C
1C7038
1C7838
1C3838
1C3838
3C3C38
381C70
381C70
381E70
780E70
700E60
700760
7007E0
7007E0
F003C0
E003C0
E003C0
000000
007800
007800
007800
003000
003000
006000
00C000
008000
ENDCHAR
STARTCHAR ncommaaccent
ENCODING 326
SWIDTH 556 0
DWIDTH 18 0
BBX 17 27 2 -9
BITMAP
1C3C00
1CFF00
1FFF00
1F0780
1E0380
1C0380
3C0380
380700
380700
380700
380700
700E00
700E00
700E00
700E00
600E00
E01C00
E01C00
000000
03C000
03C000
03C000
018000
018000
030000
060000
040000
ENDCHAR
STARTCHAR Ncaron
ENCODING 327
SWIDTH 722 0
DWIDTH 24 0
BBX 23 31 3 0
BITMAP
00E180
006380
007700
003E00
003C00
000000
07800E
07800E
07C00E
0FC00E
0FC01E
0EE01C
0EE01C
0EF01C
1E701C
1C7038
1C7838
1C3838
1C3838
3C3C38
381C70
381C70
381E70
780E70
700E60
700760
7007E0
7007E0
F003C0
E003C0
E003C0
ENDCHAR
STARTCHAR ncaron
ENCODING 328
SWIDTH 556 0
DWIDTH 18 0
BBX 17 24 2 0
BITMAP
070C00
031C00
03B800
01F000
01E000
000000
1C3C00
1CFF00
1FFF00
1F0780
1E0380
1C0380
3C0380
380700
380700
380700
380700
700E00
700E00
700E00
700E00
600E00
E01C00
E01C00
ENDCHAR
STARTCHAR napostrophe
ENCODING 329
SWIDTH 767 0
DWIDTH 25 0
BBX 20 25 6 0
BITMAP
700000
700000
700000
300000
300000
600000
C00000
038780
039FE0
03FFE0
03E0F0
03C070
038070
078070
0700E0
0700E0
0700E0
0700E0
0E01C0
0E01C0
0E01C0
0E01C0
0C01C0
1C0380
1C0380
ENDCHAR
STARTCHAR Eng
ENCODING 330
SWIDTH 722 0
DWIDTH 24 0
BBX 23 32 3 -7
BITMAP
07800E
07800E
07C00E
0FC00E
0FC01E
0EE01C
0EE01C
0EF01C
1E701C
1C7038
1C7838
1C3838
1C3838
3C3C38
381C70
381C70
381E70
780E70
700E70
7007E0
7007E0
7007E0
F003E0
E003E0
E003C0
0001C0
0001C0
000180
000380
000780
001F00
001E00
ENDCHAR
STARTCHAR eng
ENCODING 331
SWIDTH 556 0
DWIDTH 18 0
BBX 17 25 2 -7
BITMAP
1C3C00
1CFF00
1FFF00
1F0780
1E0380
1C0380
3C0380
380700
380700
380700
380700
700700
700E00
700E00
700E00
600E00
E00E00
E01C00
001C00
001C00
001800
003800
007800
01F000
01E000
ENDCHAR
STARTCHAR Omacron
ENCODING 332
SWIDTH 778 0
DWIDTH 25 0
BBX 25 28 3 0
BITMAP
007FE000
007FE000
00000000
000FC000
007FF800
01FFFC00
03E03E00
07801F00
0F000F00
1E000780
3C000780
38000380
78000380
70000380
F0000380
F0000780
E0000780
E0000700
E0000F00
E0000E00
F0001E00
70003C00
78007800
7C00F800
3E03E000
1FFFC000
0FFF0000
01F80000
ENDCHAR
STARTCHAR omacron
ENCODING 333
SWIDTH 556 0
DWIDTH 19 0
BBX 16 21 3 0
BITMAP
0FFC
0FFC
0000
01F0
07FC
1FFE
3E1F
380F
7007
7007
F007
E007
E007
E00E
E00E
E01E
E03C
F078
7FF0
7FE0
1F80
ENDCHAR
STARTCHAR Obreve
ENCODING 334
SWIDTH 778 0
DWIDTH 25 0
BBX 25 30 3 0
BITMAP
00404000
0071C000
003F8000
001F0000
00000000
000FC000
007FF800
01FFFC00
03E03E00
07801F00
0F000F00
1E000780
3C000780
38000380
78000380
70000380
F0000380
F0000780
E0000780
E0000700
E0000F00
E0000E00
F0001E00
70003C00
78007800
7C00F800
3E03E000
1FFFC000
0FFF0000
01F80000
ENDCHAR
STARTCHAR obreve
ENCODING 335
SWIDTH 556 0
DWIDTH 19 0
BBX 16 23 3 0
BITMAP
0808
0E38
07F0
03E0
0000
01F0
07FC
1FFE
3E1F
380F
7007
7007
F007
E007
E007
E00E
E00E
E01E
E03C
F078
7FF0
7FE0
1F80
ENDCHAR
STARTCHAR Ohungarumlaut
ENCODING 336
SWIDTH 778 0
DWIDTH 25 0
BBX 25 31 3 0
BITMAP
000E3800
001E7800
0038E000
0071C000
00618000
00000000
000FC000
007FF800
01FFFC00
03E03E00
07801F00
0F000F00
1E000780
3C000780
38000380
78000380
70000380
F0000380
F0000780
E0000780
E0000700
E0000F00
E0000E00
F0001E00
70003C00
78007800
7C00F800
3E03E000
1FFFC000
0FFF0000
01F80000
ENDCHAR
STARTCHAR ohungarumlaut
ENCODING 337
SWIDTH 556 0
DWIDTH 19 0
BBX 16 24 3 0
BITMAP
01C7
03CF
071C
0E38
0C30
0000
01F0
07FC
1FFE
3E1F
380F
7007
7007
F007
E007
E007
E00E
E00E
E01E
E03C
F078
7FF0
7FE0
1F80
ENDCHAR
STARTCHAR OE
ENCODING 338
SWIDTH 1000 0
DWIDTH 33 0
BBX 34 25 3 0
BITMAP
001F8FFFC0
00FFCFFFC0
01FFEFFFC0
07C0FE0000
07807E0000
0E003C0000
1C003C0000
3C003C0000
38003C0000
7800380000
7000380000
70003FFF00
70007FFF00
F0007FFF00
E000700000
E000700000
E000700000
E000F00000
F000F00000
F001E00000
7803E00000
7C0FE00000
3FFFFFFC00
1FFDFFFC00
07E1FFFC00
ENDCHAR
STARTCHAR oe
ENCODING 339
SWIDTH 944 0
DWIDTH 31 0
BBX 29 18 3 0
BITMAP
01F80FE0
07FE3FF0
0FBE7FF8
1C0FF078
3807E038
7007C038
70078038
E0070038
E007FFF8
E007FFF8
E0070000
E00E0000
E00F0070
E01F00F0
F03F01E0
F8FBC3C0
7FF3FF80
1FC0FE00
ENDCHAR
STARTCHAR Racute
ENCODING 340
SWIDTH 722 0
DWIDTH 24 0
BBX 23 31 3 0
BITMAP
000780
000F00
001E00
001C00
003800
000000
07FFE0
07FFF8
07FFFC
0F003E
0E001E
0E000E
0E000E
0E001E
1C001E
1C001C
1C003C
1C00F8
1FFFF0
3FFFE0
3FFFF0
3800F0
380078
780078
700078
700078
700070
E000F0
E000F0
E000F0
E000F8
ENDCHAR
STARTCHAR racute
ENCODING 341
SWIDTH 333 0
DWIDTH 11 0
BBX 12 24 2 0
BITMAP
01E0
03C0
0780
0700
0E00
0000
1C70
1CF0
1DF0
1FC0
1F00
1E00
3C00
3800
3800
3800
7000
7000
7000
7000
7000
E000
E000
E000
ENDCHAR
STARTCHAR Rcommaaccent
ENCODING 342
SWIDTH 722 0
DWIDTH 24 0
BBX 23 34 3 -9
BITMAP
07FFE0
07FFF8
07FFFC
0F003E
0E001E
0E000E
0E000E
0E001E
1C001E
1C001C
1C003C
1C00F8
1FFFF0
3FFFE0
3FFFF0
3800F0
380078
780078
700078
700078
700070
E000F0
E000F0
E000F0
E000F8
000000
003C00
003C00
003C00
001800
001800
003000
006000
004000
ENDCHAR
STARTCHAR rcommaaccent
ENCODING 343
SWIDTH 333 0
DWIDTH 11 0
BBX 12 27 2 -9
BITMAP
1C70
1CF0
1DF0
1FC0
1F00
1E00
3C00
3800
3800
3800
7000
7000
7000
7000
7000
E000
E000
E000
0000
7800
7800
7800
3000
3000
6000
C000
8000
ENDCHAR
STARTCHAR Rcaron
ENCODING 344
SWIDTH 722 0
DWIDTH 24 0
BBX 23 31 3 0
BITMAP
00E180
006380
007700
003E00
003C00
000000
07FFE0
07FFF8
07FFFC
0F003E
0E001E
0E000E
0E000E
0E001E
1C001E
1C001C
1C003C
1C00F8
1FFFF0
3FFFE0
3FFFF0
3800F0
380078
780078
700078
700078
700070
E000F0
E000F0
E000F0
E000F8
ENDCHAR
STARTCHAR rcaron
ENCODING 345
SWIDTH 333 0
DWIDTH 11 0
BBX 12 24 2 0
BITMAP
3860
18E0
1DC0
0F80
0F00
0000
1C70
1CF0
1DF0
1FC0
1F00
1E00
3C00
3800
3800
3800
7000
7000
7000
7000
7000
E000
E000
E000
ENDCHAR
STARTCHAR Sacute
ENCODING 346
SWIDTH 667 0
DWIDTH 22 0
BBX 21 31 3 0
BITMAP
000780
000F00
001E00
001C00
003800
000000
003F00
01FFE0
03FFF0
0780F8
0E0078
0E0038
1C0038
1C0038
1C0000
1F0000
0FE000
0FFE00
03FF80
007FE0
0007E0
0001F0
0000F0
E000F0
E000E0
E001E0
F003C0
FC07C0
7FFF00
3FFE00
07F000
ENDCHAR
STARTCHAR sacute
ENCODING 347
SWIDTH 500 0
DWIDTH 17 0
BBX 15 24 2 0
BITMAP
0078
00F0
01E0
01C0
0380
0000
03F0
0FFC
1FFE
1C1E
380E
3800
3C00
3F00
1FE0
0FF8
01FC
003C
E01C
E01C
F038
FFF8
7FF0
1FC0
ENDCHAR
STARTCHAR Scircumflex
ENCODING 348
SWIDTH 667 0
DWIDTH 22 0
BBX 21 31 3 0
BITMAP
001E00
003E00
007700
00E700
00C300
000000
003F00
01FFE0
03FFF0
0780F8
0E0078
0E0038
1C0038
1C0038
1C0000
1F0000
0FE000
0FFE00
03FF80
007FE0
0007E0
0001F0
0000F0
E000F0
E000E0
E001E0
F003C0
FC07C0
7FFF00
3FFE00
07F000
ENDCHAR
STARTCHAR scircumflex
ENCODING 349
SWIDTH 500 0
DWIDTH 17 0
BBX 15 24 2 0
BITMAP
01E0
03E0
0770
0E70
0C30
0000
03F0
0FFC
1FFE
1C1E
380E
3800
3C00
3F00
1FE0
0FF8
01FC
003C
E01C
E01C
F038
FFF8
7FF0
1FC0
ENDCHAR
STARTCHAR Scedilla
ENCODING 350
SWIDTH 667 0
DWIDTH 22 0
BBX 21 32 3 -7
BITMAP
003F00
01FFE0
03FFF0
0780F8
0E0078
0E0038
1C0038
1C0038
1C0000
1F0000
0FE000
0FFE00
03FF80
007FE0
0007E0
0001F0
0000F0
E000F0
E000E0
E001E0
F003C0
FC07C0
7FFF00
3FFE00
07F000
006000
006000
007000
003800
001800
033800
01F000
ENDCHAR
STARTCHAR scedilla
ENCODING 351
SWIDTH 500 0
DWIDTH 17 0
BBX 15 25 2 -7
BITMAP
03F0
0FFC
1FFE
1C1E
380E
3800
3C00
3F00
1FE0
0FF8
01FC
003C
E01C
E01C
F038
FFF8
7FF0
1FC0
0300
0300
0380
01C0
00C0
19C0
0F80
ENDCHAR
STARTCHAR Scaron
ENCODING 352
SWIDTH 667 0
DWIDTH 22 0
BBX 21 27 3 0
BITMAP
003860
0018E0
001DC0
000F80
000F00
000000
000000
003F00
01FFE0
03FFF0
0780F8
0E0078
1E0038
1FE000
0FFF80
07FFE0
01FFE0
0001F0
0000F0
E000F0
E000E0
E001E0
F003C0
FC07C0
7FFF00
3FFE00
07F000
ENDCHAR
STARTCHAR scaron
ENCODING 353
SWIDTH 500 0
DWIDTH 17 0
BBX 15 25 2 0
BITMAP
0386
018E
01DC
00F8
00F0
0000
0000
01F0
0FFC
1FFE
1C1E
380E
3800
3800
3F00
3FE0
0FF8
01FC
003C
E01C
E01C
E038
F0F8
FFF0
3FC0
ENDCHAR
STARTCHAR Tcommaaccent
ENCODING 354
SWIDTH 611 0
DWIDTH 20 0
BBX 19 32 6 -7
BITMAP
7FFFE0
FFFFE0
FFFFC0
01E000
01E000
01C000
01C000
01C000
03C000
038000
038000
038000
038000
078000
070000
070000
070000
0F0000
0F0000
0E0000
0E0000
0E0000
1E0000
1C0000
1C0000
030000
030000
038000
01C000
00C000
19C000
0F8000
ENDCHAR
STARTCHAR tcommaaccent
ENCODING 355
SWIDTH 278 0
DWIDTH 9 0
BBX 9 29 3 -7
BITMAP
0E00
0E00
0E00
0E00
3F80
7F80
7F00
1C00
1C00
1C00
3800
3800
3800
3800
3800
7000
7000
7000
7000
7C00
7C00
3800
1800
1800
1C00
0E00
0600
CE00
7C00
ENDCHAR
STARTCHAR Tcaron
ENCODING 356
SWIDTH 611 0
DWIDTH 20 0
BBX 19 31 6 0
BITMAP
070C00
031C00
03B800
01F000
01E000
000000
7FFFE0
FFFFE0
FFFFC0
01E000
01E000
01C000
01C000
01C000
03C000
038000
038000
038000
038000
078000
070000
070000
070000
0F0000
0F0000
0E0000
0E0000
0E0000
1E0000
1C0000
1C0000
ENDCHAR
STARTCHAR tcaron
ENCODING 357
SWIDTH 486 0
DWIDTH 16 0
BBX 15 25 4 0
BITMAP
000E
000E
000E
1C06
1C06
1C0C
1C18
7F00
FF00
FE00
3800
3800
3800
7000
7000
7000
7000
7000
E000
E000
E000
E000
F800
F800
7000
ENDCHAR
STARTCHAR Tbar
ENCODING 358
SWIDTH 611 0
DWIDTH 20 0
BBX 19 25 6 0
BITMAP
7FFFE0
FFFFE0
FFFFC0
01E000
01E000
01C000
01C000
01C000
03C000
038000
038000
03FC00
03FC00
078000
070000
070000
070000
0F0000
0F0000
0E0000
0E0000
0E0000
1E0000
1C0000
1C0000
ENDCHAR
STARTCHAR tbar
ENCODING 359
SWIDTH 278 0
DWIDTH 9 0
BBX 8 22 4 0
BITMAP
1C
1C
1C
1C
7F
FF
FE
38
38
38
70
70
FF
FF
70
E0
E0
E0
E0
F8
F8
70
ENDCHAR
STARTCHAR Utilde
ENCODING 360
SWIDTH 722 0
DWIDTH 24 0
BBX 22 30 4 0
BITMAP
007840
00FDC0
01DF80
010F00
000000
0E001C
0E001C
0E001C
1E003C
1C003C
1C0038
1C0038
1C0038
3C0078
380070
380070
380070
380070
7800F0
7000E0
7000E0
F000E0
F001E0
F001C0
7003C0
780780
7C0F00
3FFE00
1FFC00
07E000
ENDCHAR
STARTCHAR utilde
ENCODING 361
SWIDTH 556 0
DWIDTH 19 0
BBX 17 23 3 0
BITMAP
03C200
07EE00
0EFC00
087800
000000
1C0380
1C0380
380700
380700
380700
380700
700F00
700E00
700E00
700E00
700E00
E01E00
E01C00
E03C00
F0FC00
FFFC00
7F9C00
3E1C00
ENDCHAR
STARTCHAR Umacron
ENCODING 362
SWIDTH 722 0
DWIDTH 24 0
BBX 22 28 4 0
BITMAP
01FF80
01FF80
000000
0E001C
0E001C
0E001C
1E003C
1C003C
1C0038
1C0038
1C0038
3C0078
380070
380070
380070
380070
7800F0
7000E0
7000E0
F000E0
F001E0
F001C0
7003C0
780780
7C0F00
3FFE00
1FFC00
07E000
ENDCHAR
STARTCHAR umacron
ENCODING 363
SWIDTH 556 0
DWIDTH 19 0
BBX 17 21 3 0
BITMAP
0FFC00
0FFC00
000000
1C0380
1C0380
380700
380700
380700
380700
700F00
700E00
700E00
700E00
700E00
E01E00
E01C00
E03C00
F0FC00
FFFC00
7F9C00
3E1C00
ENDCHAR
STARTCHAR Ubreve
ENCODING 364
SWIDTH 722 0
DWIDTH 24 0
BBX 22 30 4 0
BITMAP
008080
00E380
007F00
003E00
000000
0E001C
0E001C
0E001C
1E003C
1C003C
1C0038
1C0038
1C0038
3C0078
380070
380070
380070
380070
7800F0
7000E0
7000E0
F000E0
F001E0
F001C0
7003C0
780780
7C0F00
3FFE00
1FFC00
07E000
ENDCHAR
STARTCHAR ubreve
ENCODING 365
SWIDTH 556 0
DWIDTH 19 0
BBX 17 23 3 0
BITMAP
040400
071C00
03F800
01F000
000000
1C0380
1C0380
380700
380700
380700
380700
700F00
700E00
700E00
700E00
700E00
E01E00
E01C00
E03C00
F0FC00
FFFC00
7F9C00
3E1C00
ENDCHAR
STARTCHAR Uring
ENCODING 366
SWIDTH 722 0
DWIDTH 24 0
BBX 22 32 4 0
BITMAP
001C00
003600
002200
006600
002C00
003800
000000
0E001C
0E001C
0E001C
1E003C
1C003C
1C0038
1C0038
1C0038
3C0078
380070
380070
380070
380070
7800F0
7000E0
7000E0
F000E0
F001E0
F001C0
7003C0
780780
7C0F00
3FFE00
1FFC00
07E000
ENDCHAR
STARTCHAR uring
ENCODING 367
SWIDTH 556 0
DWIDTH 19 0
BBX 17 25 3 0
BITMAP
00E000
01B000
011000
033000
016000
01C000
000000
1C0380
1C0380
380700
380700
380700
380700
700F00
700E00
700E00
700E00
700E00
E01E00
E01C00
E03C00
F0FC00
FFFC00
7F9C00
3E1C00
ENDCHAR
STARTCHAR Uhungarumlaut
ENCODING 368
SWIDTH 722 0
DWIDTH 24 0
BBX 22 31 4 0
BITMAP
0038E0
0079E0
00E380
01C700
018600
000000
0E001C
0E001C
0E001C
1E003C
1C003C
1C0038
1C0038
1C0038
3C0078
380070
380070
380070
380070
7800F0
7000E0
7000E0
F000E0
F001E0
F001C0
7003C0
780780
7C0F00
3FFE00
1FFC00
07E000
ENDCHAR
STARTCHAR uhungarumlaut
ENCODING 369
SWIDTH 556 0
DWIDTH 19 0
BBX 17 24 3 0
BITMAP
01C700
03CF00
071C00
0E3800
0C3000
000000
1C0380
1C0380
380700
380700
380700
380700
700F00
700E00
700E00
700E00
700E00
E01E00
E01C00
E03C00
F0FC00
FFFC00
7F9C00
3E1C00
ENDCHAR
STARTCHAR Uogonek
ENCODING 370
SWIDTH 722 0
DWIDTH 24 0
BBX 22 31 4 -6
BITMAP
0E001C
0E001C
0E001C
1E003C
1C003C
1C0038
1C0038
1C0038
3C0078
380070
380070
380070
380070
7800F0
7000E0
7000E0
F000E0
F001E0
F001C0
7003C0
780780
7C0F00
3FFE00
1FFC00
07E000
01C000
018000
038000
038800
03F800
01F000
ENDCHAR
STARTCHAR uogonek
ENCODING 371
SWIDTH 556 0
DWIDTH 19 0
BBX 17 24 3 -6
BITMAP
1C0380
1C0380
380700
380700
380700
380700
700F00
700E00
700E00
700E00
700E00
E01E00
E01C00
E03C00
F0FC00
FFFC00
7F9C00
3F9C00
038000
030000
070000
071000
07F000
03E000
ENDCHAR
STARTCHAR Wcircumflex
ENCODING 372
SWIDTH 944 0
DWIDTH 31 0
BBX 31 31 6 0
BITMAP
0003C000
0007C000
000EE000
001CE000
00186000
00000000
E007801E
E007801C
E00F803C
E00F8038
E01F8078
E01F8070
E03BC0F0
F03BC0E0
F073C1E0
F071C1C0
F0F1C1C0
F0E1C3C0
71E1C380
71C1C780
73C1C700
7381CF00
7781CE00
7701DE00
7F01DC00
7E01DC00
7E01F800
7C01F800
7C00F000
7800F000
7800F000
ENDCHAR
STARTCHAR wcircumflex
ENCODING 373
SWIDTH 722 0
DWIDTH 24 0
BBX 23 24 4 0
BITMAP
003C00
007C00
00EE00
01CE00
018600
000000
E0380E
E0781E
E0781C
E0F838
E0F838
E1F870
E1B870
E3B8E0
E3B8E0
E739C0
E719C0
EE1B80
6E1B80
7C1F00
7C1F00
781E00
781E00
701C00
ENDCHAR
STARTCHAR Ycircumflex
ENCODING 374
SWIDTH 667 0
DWIDTH 22 0
BBX 22 31 6 0
BITMAP
003C00
007C00
00EE00
01CE00
018600
000000
F0007C
F000F8
7800F0
7801E0
3803C0
3C0780
3C0700
1E0F00
1E1E00
0E3C00
0F7800
0F7000
07E000
07E000
03C000
038000
038000
078000
078000
070000
070000
070000
0F0000
0E0000
0E0000
ENDCHAR
STARTCHAR ycircumflex
ENCODING 375
SWIDTH 500 0
DWIDTH 17 0
BBX 19 31 0 -7
BITMAP
007800
00F800
01DC00
039C00
030C00
000000
0E00E0
0E01E0
0E01C0
0F0380
0F0380
070700
070700
070E00
071E00
071C00
073800
07B800
07F000
07F000
03E000
03C000
03C000
038000
038000
070000
0F0000
0E0000
FC0000
F80000
F00000
ENDCHAR
STARTCHAR Ydieresis
ENCODING 376
SWIDTH 667 0
DWIDTH 22 0
BBX 21 25 6 0
BITMAP
00E380
01E780
01C700
000000
000000
F00038
F00078
7800F0
3801E0
1E03C0
0F0780
0F1E00
07BC00
07F800
03F000
03C000
038000
078000
078000
070000
070000
070000
0F0000
0E0000
0E0000
ENDCHAR
STARTCHAR Zacute
ENCODING 377
SWIDTH 611 0
DWIDTH 20 0
BBX 23 31 1 0
BITMAP
0001E0
0003C0
000780
000700
000E00
000000
01FFFE
03FFFE
03FFFE
00001E
00003C
000078
0000F0
0001E0
0003C0
000780
000F00
001E00
003C00
007800
00F000
01E000
03C000
078000
0F0000
1E0000
3C0000
780000
FFFFE0
FFFFE0
FFFFC0
ENDCHAR
STARTCHAR zacute
ENCODING 378
SWIDTH 500 0
DWIDTH 17 0
BBX 16 24 2 0
BITMAP
003C
0078
00F0
00E0
01C0
0000
1FFF
1FFF
1FFF
000F
001E
003C
0078
00F0
01E0
03C0
0780
0F00
1E00
3C00
7800
FFFC
FFFC
FFFC
ENDCHAR
STARTCHAR Zdotaccent
ENCODING 379
SWIDTH 611 0
DWIDTH 20 0
BBX 23 29 1 0
BITMAP
000F00
000F00
000F00
000000
01FFFE
03FFFE
03FFFE
00001E
00003C
000078
0000F0
0001E0
0003C0
000780
000F00
001E00
003C00
007800
00F000
01E000
03C000
078000
0F0000
1E0000
3C0000
780000
FFFFE0
FFFFE0
FFFFC0
ENDCHAR
STARTCHAR zdotaccent
ENCODING 380
SWIDTH 500 0
DWIDTH 17 0
BBX 16 22 2 0
BITMAP
01E0
01E0
01E0
0000
1FFF
1FFF
1FFF
000F
001E
003C
0078
00F0
01E0
03C0
0780
0F00
1E00
3C00
7800
FFFC
FFFC
FFFC
ENDCHAR
STARTCHAR Zcaron
ENCODING 381
SWIDTH 611 0
DWIDTH 20 0
BBX 23 27 1 0
BITMAP
001C30
000C70
000EE0
0007C0
000780
000000
000000
03FFFE
03FFFE
03FFFE
00007C
0001F0
0003E0
000FC0
001F00
003E00
007C00
00F800
03E000
07C000
0F0000
1E0000
3C0000
780000
FFFFE0
FFFFE0
FFFFE0
ENDCHAR
STARTCHAR zcaron
ENCODING 382
SWIDTH 500 0
DWIDTH 17 0
BBX 18 25 1 0
BITMAP
01C300
00C700
00EE00
007C00
007800
000000
000000
0FFFC0
0FFF80
0FFF80
000700
000E00
001C00
003800
007000
00E000
01C000
038000
070000
0E0000
1C0000
380000
FFFE00
FFFE00
FFFC00
ENDCHAR
STARTCHAR uni0186
ENCODING 390
SWIDTH 722 0
DWIDTH 24 0
BBX 21 25 4 0
BITMAP
003F00
00FFC0
03FFE0
07C1E0
0F00F0
1E0070
3C0078
380038
780038
700038
000038
000038
000078
000070
000070
0000F0
0000E0
E001E0
E003C0
F00380
700F80
7C1F00
3FFE00
1FF800
07E000
ENDCHAR
STARTCHAR uni0189
ENCODING 393
SWIDTH 722 0
DWIDTH 24 0
BBX 22 25 3 0
BITMAP
07FF80
07FFE0
07FFF0
0F00F8
0E003C
0E003C
0E001C
0E001C
1E001C
1C001C
1C001C
FFC01C
FFC01C
3C003C
380038
380078
380078
780070
7800F0
7001E0
7003C0
700F80
FFFF00
FFFE00
FFF000
ENDCHAR
STARTCHAR uni018E
ENCODING 398
SWIDTH 667 0
DWIDTH 22 0
BBX 22 25 3 0
BITMAP
07FFFC
0FFFFC
0FFFFC
000038
000038
000038
000038
000078
000070
000070
000070
0FFFF0
1FFFE0
1FFFE0
0000E0
0000E0
0000E0
0001C0
0001C0
0001C0
0003C0
000380
7FFF80
FFFF80
FFFF80
ENDCHAR
STARTCHAR florin
ENCODING 402
SWIDTH 556 0
DWIDTH 18 0
BBX 24 32 -1 -7
BITMAP
00000E
00003F
00007E
0000E0
0001C0
0003C0
000380
000380
000700
000700
00FFE0
00FFE0
000E00
001C00
001C00
003800
003800
003800
007000
007000
00E000
00E000
01E000
01C000
01C000
038000
038000
070000
0F0000
FE0000
FC0000
F00000
ENDCHAR
STARTCHAR uni0197
ENCODING 407
SWIDTH 278 0
DWIDTH 9 0
BBX 8 25 3 0
BITMAP
07
07
07
07
0F
0E
0E
0E
1E
1C
1C
FF
FF
3C
38
38
38
38
78
70
70
70
F0
E0
E0
ENDCHAR
STARTCHAR uni019A
ENCODING 410
SWIDTH 222 0
DWIDTH 7 0
BBX 8 25 2 0
BITMAP
07
07
07
07
0E
0E
0E
0E
0C
1C
1C
FF
FF
38
38
38
38
38
70
70
70
70
F0
E0
E0
ENDCHAR
STARTCHAR uni019D
ENCODING 413
SWIDTH 722 0
DWIDTH 24 0
BBX 28 32 -2 -7
BITMAP
003C0070
003C0070
003E0070
007E0070
007E00F0
007700E0
007700E0
007780E0
00F380E0
00E381C0
00E3C1C0
00E1C1C0
00E1C1C0
01E1E1C0
01C0E380
01C0E380
01C0F380
03C07380
03807300
07003B00
07003F00
07003F00
07001E00
07001E00
0E001E00
0E000000
0E000000
0C000000
1C000000
3C000000
F8000000
F0000000
ENDCHAR
STARTCHAR uni019F
ENCODING 415
SWIDTH 778 0
DWIDTH 25 0
BBX 25 25 3 0
BITMAP
000FC000
007FF800
01FFFC00
03E03E00
07801F00
0F000F00
1E000780
3C000780
38000380
78000380
70000380
FFFFFF80
FFFFFF80
E0000780
E0000700
E0000F00
E0000E00
F0001E00
70003C00
78007800
7C00F800
3E03E000
1FFFC000
0FFF0000
01F80000
ENDCHAR
STARTCHAR Ohorn
ENCODING 416
SWIDTH 778 0
DWIDTH 25 0
BBX 26 25 3 0
BITMAP
000FC1C0
007FF9C0
01FFFDC0
03E03EC0
07801FC0
0F000F80
1E000780
3C000780
38000380
78000380
70000380
F0000380
F0000780
E0000780
E0000700
E0000F00
E0000E00
F0001E00
70003C00
78007800
7C00F800
3E03E000
1FFFC000
0FFF0000
01F80000
ENDCHAR
STARTCHAR ohorn
ENCODING 417
SWIDTH 556 0
DWIDTH 19 0
BBX 19 18 3 0
BITMAP
01F0E0
07FCE0
1FFEE0
3E1F60
380F60
7007C0
700780
F00700
E00700
E00700
E00E00
E00E00
E01E00
E03C00
F07800
7FF000
7FE000
1F8000
ENDCHAR
STARTCHAR Uhorn
ENCODING 431
SWIDTH 722 0
DWIDTH 24 0
BBX 24 25 4 0
BITMAP
0E001F
0E001F
0E001F
1E003F
1C003F
1C003E
1C003C
1C0038
3C0078
380070
380070
380070
380070
7800F0
7000E0
7000E0
F000E0
F001E0
F001C0
7003C0
780780
7C0F00
3FFE00
1FFC00
07E000
ENDCHAR
STARTCHAR uhorn
ENCODING 432
SWIDTH 556 0
DWIDTH 19 0
BBX 19 18 3 0
BITMAP
1C03E0
1C03E0
3807E0
380760
380760
3807C0
700F80
700E00
700E00
700E00
700E00
E01E00
E01C00
E03C00
F0FC00
FFFC00
7F9C00
3E1C00
ENDCHAR
STARTCHAR uni01B5
ENCODING 437
SWIDTH 611 0
DWIDTH 20 0
BBX 23 25 1 0
BITMAP
01FFFE
03FFFE
03FFFE
00001E
00003C
000078
0000F0
0001E0
0003C0
000780
000F00
00FF00
00FF00
007800
00F000
01E000
03C000
078000
0F0000
1E0000
3C0000
780000
FFFFE0
FFFFE0
FFFFC0
ENDCHAR
STARTCHAR uni01B6
ENCODING 438
SWIDTH 500 0
DWIDTH 17 0
BBX 16 18 2 0
BITMAP
1FFF
1FFF
1FFF
000F
001E
003C
0078
00F0
0FF0
0FF0
0780
0F00
1E00
3C00
7800
FFFC
FFFC
FFFC
ENDCHAR
STARTCHAR uni01BB
ENCODING 443
SWIDTH 556 0
DWIDTH 18 0
BBX 18 24 3 0
BITMAP
007C00
01FF00
07FF80
0F8780
0E03C0
1E01C0
1C01C0
1C0380
000380
000780
000F00
FFFFC0
FFFFC0
01F800
03E000
0F8000
1E0000
3C0000
700000
600000
E00000
FFFC00
FFFC00
FFFC00
ENDCHAR
STARTCHAR uni01BC
ENCODING 444
SWIDTH 556 0
DWIDTH 18 0
BBX 19 24 2 0
BITMAP
01FFE0
01FFE0
03FFC0
038000
070000
070000
060000
0E0000
0EF800
1FFE00
1FFF00
1E0F80
1C0780
000780
000380
000380
000380
F00780
F00700
F00F00
783E00
7FFC00
3FF000
0FC000
ENDCHAR
STARTCHAR uni01C0
ENCODING 448
SWIDTH 260 0
DWIDTH 9 0
BBX 8 30 2 -6
BITMAP
03
03
07
06
06
06
06
0E
0C
0C
0C
0C
1C
18
18
18
18
30
30
30
30
70
60
60
60
60
E0
C0
C0
C0
ENDCHAR
STARTCHAR uni01C2
ENCODING 450
SWIDTH 584 0
DWIDTH 19 0
BBX 17 30 3 -6
BITMAP
001800
001800
003800
003000
003000
003000
003000
007000
006000
006000
006000
3FFF80
7FFF80
7FFF00
00C000
00C000
00C000
7FFF00
FFFF00
FFFE00
018000
038000
030000
030000
030000
030000
070000
060000
060000
060000
ENDCHAR
STARTCHAR uni01C3
ENCODING 451
SWIDTH 278 0
DWIDTH 9 0
BBX 9 25 3 0
BITMAP
0380
0380
0380
0380
0700
0700
0700
0700
0600
0E00
0E00
0E00
0E00
0C00
1C00
1C00
1800
3800
3000
3000
0000
0000
F000
F000
F000
ENDCHAR
STARTCHAR uni01CD
ENCODING 461
SWIDTH 667 0
DWIDTH 22 0
BBX 20 31 1 0
BITMAP
0070C0
0031C0
003B80
001F00
001E00
000000
000780
000F80
000F80
001FC0
001DC0
003DC0
0039C0
0079C0
00F1C0
00E1C0
01E0E0
01C0E0
03C0E0
0380E0
0780E0
0FFFE0
0FFFF0
1FFFF0
1C0070
3C0070
380070
780070
700070
F00070
E00070
ENDCHAR
STARTCHAR uni01CE
ENCODING 462
SWIDTH 556 0
DWIDTH 18 0
BBX 17 24 2 0
BITMAP
070C00
031C00
03B800
01F000
01E000
000000
01FE00
07FF00
0F9F80
1C0380
1C0380
000380
000700
007F00
0FFF00
3FC700
7C0700
700E00
E00E00
E01E00
E03E00
F1FE00
7FCF00
3F8F00
ENDCHAR
STARTCHAR uni01CF
ENCODING 463
SWIDTH 278 0
DWIDTH 9 0
BBX 10 31 3 0
BITMAP
70C0
31C0
3B80
1F00
1E00
0000
0700
0700
0700
0700
0F00
0E00
0E00
0E00
1E00
1C00
1C00
1C00
1C00
3C00
3800
3800
3800
3800
7800
7000
7000
7000
F000
E000
E000
ENDCHAR
STARTCHAR uni01D0
ENCODING 464
SWIDTH 278 0
DWIDTH 9 0
BBX 9 24 3 0
BITMAP
E180
6380
7700
3E00
3C00
0000
0E00
0C00
1C00
1C00
1C00
1C00
3800
3800
3800
3800
3800
7000
7000
7000
7000
7000
E000
E000
ENDCHAR
STARTCHAR uni01D1
ENCODING 465
SWIDTH 778 0
DWIDTH 25 0
BBX 25 31 3 0
BITMAP
00386000
0018E000
001DC000
000F8000
000F0000
00000000
000FC000
007FF800
01FFFC00
03E03E00
07801F00
0F000F00
1E000780
3C000780
38000380
78000380
70000380
F0000380
F0000780
E0000780
E0000700
E0000F00
E0000E00
F0001E00
70003C00
78007800
7C00F800
3E03E000
1FFFC000
0FFF0000
01F80000
ENDCHAR
STARTCHAR uni01D2
ENCODING 466
SWIDTH 556 0
DWIDTH 19 0
BBX 16 24 3 0
BITMAP
0E18
0638
0770
03E0
03C0
0000
01F0
07FC
1FFE
3E1F
380F
7007
7007
F007
E007
E007
E00E
E00E
E01E
E03C
F078
7FF0
7FE0
1F80
ENDCHAR
STARTCHAR uni01D3
ENCODING 467
SWIDTH 722 0
DWIDTH 24 0
BBX 22 31 4 0
BITMAP
00E180
006380
007700
003E00
003C00
000000
0E001C
0E001C
0E001C
1E003C
1C003C
1C0038
1C0038
1C0038
3C0078
380070
380070
380070
380070
7800F0
7000E0
7000E0
F000E0
F001E0
F001C0
7003C0
780780
7C0F00
3FFE00
1FFC00
07E000
ENDCHAR
STARTCHAR uni01D4
ENCODING 468
SWIDTH 556 0
DWIDTH 19 0
BBX 17 24 3 0
BITMAP
070C00
031C00
03B800
01F000
01E000
000000
1C0380
1C0380
380700
380700
380700
380700
700F00
700E00
700E00
700E00
700E00
E01E00
E01C00
E03C00
F0FC00
FFFC00
7F9C00
3E1C00
ENDCHAR
STARTCHAR uni01D5
ENCODING 469
SWIDTH 722 0
DWIDTH 24 0
BBX 22 33 4 0
BITMAP
00FFC0
00FFC0
000000
00F1E0
00F1E0
00F1E0
000000
000000
0E001C
0E001C
0E001C
1E003C
1C003C
1C0038
1C0038
1C0038
3C0078
380070
380070
380070
380070
7800F0
7000E0
7000E0
F000E0
F001E0
F001C0
7003C0
780780
7C0F00
3FFE00
1FFC00
07E000
ENDCHAR
STARTCHAR uni01D6
ENCODING 470
SWIDTH 556 0
DWIDTH 18 0
BBX 17 26 3 0
BITMAP
07FE00
07FE00
000000
078F00
078F00
078F00
000000
000000
1C0380
1C0380
380700
380700
380700
380700
700E00
700E00
700E00
700E00
700E00
E01C00
E01C00
E03C00
F0FC00
FFF800
7FB800
3E3800
ENDCHAR
STARTCHAR uni01D7
ENCODING 471
SWIDTH 722 0
DWIDTH 24 0
BBX 22 36 4 0
BITMAP
000780
000F00
001E00
001C00
003800
000000
00F1E0
00F1E0
00F1E0
000000
000000
0E001C
0E001C
0E001C
1E003C
1C003C
1C0038
1C0038
1C0038
3C0078
380070
380070
380070
380070
7800F0
7000E0
7000E0
F000E0
F001E0
F001C0
7003C0
780780
7C0F00
3FFE00
1FFC00
07E000
ENDCHAR
STARTCHAR uni01D8
ENCODING 472
SWIDTH 556 0
DWIDTH 18 0
BBX 17 29 3 0
BITMAP
003C00
007800
00F000
00E000
01C000
000000
078F00
078F00
078F00
000000
000000
1C0380
1C0380
380700
380700
380700
380700
700E00
700E00
700E00
700E00
700E00
E01C00
E01C00
E03C00
F0FC00
FFF800
7FB800
3E3800
ENDCHAR
STARTCHAR uni01D9
ENCODING 473
SWIDTH 722 0
DWIDTH 24 0
BBX 22 36 4 0
BITMAP
00E180
006380
007700
003E00
003C00
000000
00F1E0
00F1E0
00F1E0
000000
000000
0E001C
0E001C
0E001C
1E003C
1C003C
1C0038
1C0038
1C0038
3C0078
380070
380070
380070
380070
7800F0
7000E0
7000E0
F000E0
F001E0
F001C0
7003C0
780780
7C0F00
3FFE00
1FFC00
07E000
ENDCHAR
STARTCHAR uni01DA
ENCODING 474
SWIDTH 556 0
DWIDTH 18 0
BBX 17 29 3 0
BITMAP
070C00
031C00
03B800
01F000
01E000
000000
078F00
078F00
078F00
000000
000000
1C0380
1C0380
380700
380700
380700
380700
700E00
700E00
700E00
700E00
700E00
E01C00
E01C00
E03C00
F0FC00
FFF800
7FB800
3E3800
ENDCHAR
STARTCHAR uni01DB
ENCODING 475
SWIDTH 722 0
DWIDTH 24 0
BBX 22 36 4 0
BITMAP
007000
007800
003800
001C00
000C00
000000
00F1E0
00F1E0
00F1E0
000000
000000
0E001C
0E001C
0E001C
1E003C
1C003C
1C0038
1C0038
1C0038
3C0078
380070
380070
380070
380070
7800F0
7000E0
7000E0
F000E0
F001E0
F001C0
7003C0
780780
7C0F00
3FFE00
1FFC00
07E000
ENDCHAR
STARTCHAR uni01DC
ENCODING 476
SWIDTH 556 0
DWIDTH 18 0
BBX 17 29 3 0
BITMAP
038000
03C000
01C000
00E000
006000
000000
078F00
078F00
078F00
000000
000000
1C0380
1C0380
380700
380700
380700
380700
700E00
700E00
700E00
700E00
700E00
E01C00
E01C00
E03C00
F0FC00
FFF800
7FB800
3E3800
ENDCHAR
STARTCHAR uni01DD
ENCODING 477
SWIDTH 556 0
DWIDTH 18 0
BBX 16 18 3 0
BITMAP
03F0
0FFC
1FFE
3E1E
780F
7007
0007
0007
FFFF
FFFF
FFFF
E00E
E00E
E01C
F07C
7FF8
7FE0
1F80
ENDCHAR
STARTCHAR uni01DE
ENCODING 478
SWIDTH 667 0
DWIDTH 22 0
BBX 20 33 1 0
BITMAP
00FFC0
00FFC0
000000
003CF0
003CF0
003CF0
000000
000000
000780
000F80
000F80
001FC0
001DC0
003DC0
0039C0
0079C0
00F1C0
00E1C0
01E0E0
01C0E0
03C0E0
0380E0
0780E0
0FFFE0
0FFFF0
1FFFF0
1C0070
3C0070
380070
780070
700070
F00070
E00070
ENDCHAR
STARTCHAR uni01DF
ENCODING 479
SWIDTH 556 0
DWIDTH 18 0
BBX 17 26 2 0
BITMAP
07FE00
07FE00
000000
078F00
078F00
078F00
000000
000000
01FE00
07FF80
0F9F80
1C0380
1C0380
000380
000700
003F00
0FFF00
3FE700
7C0700
700E00
E00E00
E01E00
E03E00
F1FE00
7FCF00
3F8F00
ENDCHAR
STARTCHAR uni01E0
ENCODING 480
SWIDTH 667 0
DWIDTH 22 0
BBX 20 32 1 0
BITMAP
00FFC0
00FFC0
000000
001E00
001E00
001E00
000000
000780
000F80
000F80
001FC0
001DC0
003DC0
0039C0
0079C0
00F1C0
00E1C0
01E0E0
01C0E0
03C0E0
0380E0
0780E0
0FFFE0
0FFFF0
1FFFF0
1C0070
3C0070
380070
780070
700070
F00070
E00070
ENDCHAR
STARTCHAR uni01E1
ENCODING 481
SWIDTH 556 0
DWIDTH 18 0
BBX 17 25 2 0
BITMAP
07FE00
07FE00
000000
00F000
00F000
00F000
000000
01FE00
07FF00
0F9F80
1C0380
1C0380
000380
000700
007F00
0FFF00
3FC700
7C0700
700E00
E00E00
E01E00
E03E00
F1FE00
7FCF00
3F8F00
ENDCHAR
STARTCHAR uni01E2
ENCODING 482
SWIDTH 1000 0
DWIDTH 33 0
BBX 34 28 1 0
BITMAP
0003FF0000
0003FF0000
0000000000
000FFFFFC0
000FFFFFC0
001FFFFF80
001C380000
003C380000
0038700000
0078700000
0070700000
00F0E00000
00E0E00000
01E0E00000
01C0FFFE00
03C1FFFE00
0381FFFC00
0781C00000
0FFFC00000
0FFF800000
1FFF800000
1C07800000
3C07000000
3807000000
7807000000
780FFFFC00
F00FFFFC00
F00FFFF800
ENDCHAR
STARTCHAR uni01E3
ENCODING 483
SWIDTH 889 0
DWIDTH 29 0
BBX 28 21 2 0
BITMAP
003FF000
003FF000
00000000
01FC1F80
07FF3FE0
0FCF7BE0
1E07E0F0
1C03C070
38038070
00078070
003F0070
07FFFFF0
1FFFFFF0
3F07FFF0
780E0000
F00E00E0
E01F01E0
E03F01C0
F1F78780
7FE3FF00
3F81FC00
ENDCHAR
STARTCHAR uni01E4
ENCODING 484
SWIDTH 778 0
DWIDTH 25 0
BBX 24 25 4 0
BITMAP
001FC0
007FF0
01FFFC
03E07C
07801E
0F001E
1E000E
1C000E
380000
380000
700000
700000
700FFE
E00FFE
E00FFC
E0001C
E0001C
F0003C
F000FF
7000FF
7800F8
3E03F8
3FFFB0
0FFE30
03F800
ENDCHAR
STARTCHAR uni01E5
ENCODING 485
SWIDTH 556 0
DWIDTH 18 0
BBX 19 25 1 -7
BITMAP
00F8E0
01FEE0
07FFC0
0F87C0
0E03C0
1C03C0
1C0380
380380
380380
380380
380780
380700
380F00
380F00
3C3F00
1FF700
0FE600
078E00
FFFFE0
FFFFE0
E01C00
F07800
7FF000
7FE000
1FC000
ENDCHAR
STARTCHAR Gcaron
ENCODING 486
SWIDTH 778 0
DWIDTH 25 0
BBX 23 31 4 0
BITMAP
0070C0
0031C0
003B80
001F00
001E00
000000
001FC0
007FF0
01FFFC
03E07C
07801E
0F001E
1E000E
1C000E
380000
380000
700000
700000
700FFE
E00FFE
E00FFC
E0001C
E0001C
F0003C
F00038
700078
7800F8
3E03F8
3FFFB0
0FFE30
03F800
ENDCHAR
STARTCHAR gcaron
ENCODING 487
SWIDTH 556 0
DWIDTH 18 0
BBX 19 31 1 -7
BITMAP
01C300
00C700
00EE00
007C00
007800
000000
00F8E0
01FEE0
07FFC0
0F87C0
0E03C0
1C03C0
1C0380
380380
380380
380380
380780
380700
380F00
380F00
3C3F00
1FF700
0FE600
078E00
000E00
E01C00
E01C00
F07800
7FF000
7FE000
1FC000
ENDCHAR
STARTCHAR uni01E8
ENCODING 488
SWIDTH 667 0
DWIDTH 22 0
BBX 23 31 3 0
BITMAP
00E180
006380
007700
003E00
003C00
000000
07001E
07003C
070078
0F00F0
0F01E0
0E03C0
0E0780
0E0F00
1E1E00
1C3C00
1CF800
1DF800
1FF800
3F3C00
3E1C00
3C1E00
380E00
780F00
780F00
700780
700780
7003C0
F003C0
E001E0
E001E0
ENDCHAR
STARTCHAR uni01E9
ENCODING 489
SWIDTH 500 0
DWIDTH 17 0
BBX 17 31 2 0
BITMAP
1C3000
0C7000
0EE000
07C000
078000
000000
070000
070000
070000
070000
0E0000
0E0000
0E0000
0E0780
0C0F00
1C1E00
1C3C00
1C7000
19E000
3BC000
3FE000
3FE000
3CF000
387000
707000
703800
703800
703C00
703C00
E01C00
E01E00
ENDCHAR
STARTCHAR uni01EA
ENCODING 490
SWIDTH 778 0
DWIDTH 25 0
BBX 25 31 3 -6
BITMAP
000FC000
007FF800
01FFFC00
03E03E00
07801F00
0F000F00
1E000780
3C000780
38000380
78000380
70000380
F0000380
F0000780
E0000780
E0000700
E0000F00
E0000E00
F0001E00
70003C00
78007800
7C00F800
3E03E000
1FFFC000
0FFF0000
01F80000
00700000
00600000
00E00000
00E20000
00FE0000
007C0000
ENDCHAR
STARTCHAR uni01EB
ENCODING 491
SWIDTH 556 0
DWIDTH 19 0
BBX 16 24 3 -6
BITMAP
01F0
07FC
1FFE
3E1F
380F
7007
7007
F007
E007
E007
E00E
E00E
E01E
E03C
F078
7FF0
7FE0
1F80
0700
0600
0E00
0E20
0FE0
07C0
ENDCHAR
STARTCHAR uni01EC
ENCODING 492
SWIDTH 778 0
DWIDTH 25 0
BBX 25 34 3 -6
BITMAP
007FE000
007FE000
00000000
000FC000
007FF800
01FFFC00
03E03E00
07801F00
0F000F00
1E000780
3C000780
38000380
78000380
70000380
F0000380
F0000780
E0000780
E0000700
E0000F00
E0000E00
F0001E00
70003C00
78007800
7C00F800
3E03E000
1FFFC000
0FFF0000
01F80000
00700000
00600000
00E00000
00E20000
00FE0000
007C0000
ENDCHAR
STARTCHAR uni01ED
ENCODING 493
SWIDTH 556 0
DWIDTH 19 0
BBX 16 27 3 -6
BITMAP
0FFC
0FFC
0000
01F0
07FC
1FFE
3E1F
380F
7007
7007
F007
E007
E007
E00E
E00E
E01E
E03C
F078
7FF0
7FE0
1F80
0700
0600
0E00
0E20
0FE0
07C0
ENDCHAR
STARTCHAR uni01F0
ENCODING 496
SWIDTH 222 0
DWIDTH 7 0
BBX 12 31 -2 -7
BITMAP
1C30
0C70
0EE0
07C0
0780
0000
00E0
00E0
01C0
01C0
01C0
01C0
0180
0180
0380
0380
0380
0380
0700
0700
0700
0700
0700
0E00
0E00
0E00
0C00
1C00
3C00
F800
F000
ENDCHAR
STARTCHAR uni01F4
ENCODING 500
SWIDTH 778 0
DWIDTH 25 0
BBX 23 31 4 0
BITMAP
0003C0
000780
000F00
000E00
001C00
000000
001FC0
007FF0
01FFFC
03E07C
07801E
0F001E
1E000E
1C000E
380000
380000
700000
700000
700FFE
E00FFE
E00FFC
E0001C
E0001C
F0003C
F00038
700078
7800F8
3E03F8
3FFFB0
0FFE30
03F800
ENDCHAR
STARTCHAR uni01F5
ENCODING 501
SWIDTH 556 0
DWIDTH 18 0
BBX 19 31 1 -7
BITMAP
001E00
003C00
007800
007000
00E000
000000
00F8E0
01FEE0
07FFC0
0F87C0
0E03C0
1C03C0
1C0380
380380
380380
380380
380780
380700
380F00
380F00
3C3F00
1FF700
0FE600
078E00
000E00
E01C00
E01C00
F07800
7FF000
7FE000
1FC000
ENDCHAR
STARTCHAR uni01F8
ENCODING 504
SWIDTH 722 0
DWIDTH 24 0
BBX 23 31 3 0
BITMAP
007000
007800
003800
001C00
000C00
000000
07800E
07800E
07C00E
0FC00E
0FC01E
0EE01C
0EE01C
0EF01C
1E701C
1C7038
1C7838
1C3838
1C3838
3C3C38
381C70
381C70
381E70
780E70
700E60
700760
7007E0
7007E0
F003C0
E003C0
E003C0
ENDCHAR
STARTCHAR uni01F9
ENCODING 505
SWIDTH 556 0
DWIDTH 18 0
BBX 17 24 2 0
BITMAP
038000
03C000
01C000
00E000
006000
000000
1C3C00
1CFF00
1FFF00
1F0780
1E0380
1C0380
3C0380
380700
380700
380700
380700
700E00
700E00
700E00
700E00
600E00
E01C00
E01C00
ENDCHAR
STARTCHAR Aringacute
ENCODING 506
SWIDTH 667 0
DWIDTH 22 0
BBX 20 37 1 0
BITMAP
0003C0
000780
000F00
000E00
001C00
000000
0003C0
000660
000C20
000860
000CC0
000780
000000
000F80
000F80
001FC0
001DC0
003DC0
0039C0
0079C0
00F1C0
00E1C0
01E0E0
01C0E0
03C0E0
0380E0
0780E0
0FFFE0
0FFFF0
1FFFF0
1C0070
3C0070
380070
780070
700070
F00070
E00070
ENDCHAR
STARTCHAR aringacute
ENCODING 507
SWIDTH 556 0
DWIDTH 18 0
BBX 17 31 2 0
BITMAP
001E00
003C00
007800
007000
00E000
000000
001C00
003600
006200
004600
006C00
003800
000000
01FE00
07FF80
0F9F80
1C0380
1C0380
000380
000700
003F00
0FFF00
3FE700
7C0700
700E00
E00E00
E01E00
E03E00
F1FE00
7FCF00
3F8F00
ENDCHAR
STARTCHAR AEacute
ENCODING 508
SWIDTH 1000 0
DWIDTH 33 0
BBX 34 31 1 0
BITMAP
00000F0000
00001E0000
00003C0000
0000380000
0000700000
0000000000
000FFFFFC0
000FFFFFC0
001FFFFF80
001C380000
003C380000
0038700000
0078700000
0070700000
00F0E00000
00E0E00000
01E0E00000
01C0FFFE00
03C1FFFE00
0381FFFC00
0781C00000
0FFFC00000
0FFF800000
1FFF800000
1C07800000
3C07000000
3807000000
7807000000
780FFFFC00
F00FFFFC00
F00FFFF800
ENDCHAR
STARTCHAR aeacute
ENCODING 509
SWIDTH 889 0
DWIDTH 29 0
BBX 28 24 2 0
BITMAP
0000F000
0001E000
0003C000
00038000
00070000
00000000
01FC1F80
07FF3FE0
0FCF7BE0
1E07E0F0
1C03C070
38038070
00078070
003F0070
07FFFFF0
1FFFFFF0
3F07FFF0
780E0000
F00E00E0
E01F01E0
E03F01C0
F1F78780
7FE3FF00
3F81FC00
ENDCHAR
STARTCHAR Oslashacute
ENCODING 510
SWIDTH 778 0
DWIDTH 26 0
BBX 29 31 1 0
BITMAP
00007800
0000F000
0001E000
0001C000
00038000
00000000
0003F818
001FFE30
007FFFE0
00F80FC0
01E003C0
03C007C0
07800DE0
0F0019E0
0E0030E0
1E00E0E0
1C0180E0
1C0300E0
1C0601E0
3C0C01E0
3C1801C0
3C7003C0
3CC00380
3D800780
1F000F00
1E001E00
1F003E00
3FC0F800
67FFF000
C1FFC000
007E0000
ENDCHAR
STARTCHAR oslashacute
ENCODING 511
SWIDTH 611 0
DWIDTH 20 0
BBX 21 24 1 0
BITMAP
000F00
001E00
003C00
003800
007000
000000
007C18
01FF30
07FFE0
0F8780
0E03C0
1E07C0
1C0DC0
3819C0
3831C0
3861C0
39C380
3B0380
3E0780
3C0F00
3E1E00
3FFC00
6FF800
C7E000
ENDCHAR
STARTCHAR Scommaaccent
ENCODING 536
SWIDTH 667 0
DWIDTH 22 0
BBX 21 34 3 -9
BITMAP
003F00
01FFE0
03FFF0
0780F8
0E0078
0E0038
1C0038
1C0038
1C0000
1F0000
0FE000
0FFE00
03FF80
007FE0
0007E0
0001F0
0000F0
E000F0
E000E0
E001E0
F003C0
FC07C0
7FFF00
3FFE00
07F000
000000
00F000
00F000
00F000
006000
006000
00C000
018000
010000
ENDCHAR
STARTCHAR scommaaccent
ENCODING 537
SWIDTH 500 0
DWIDTH 17 0
BBX 15 27 2 -9
BITMAP
03F0
0FFC
1FFE
1C1E
380E
3800
3C00
3F00
1FE0
0FF8
01FC
003C
E01C
E01C
F038
FFF8
7FF0
1FC0
0000
0780
0780
0780
0300
0300
0600
0C00
0800
ENDCHAR
STARTCHAR Tcommaaccent
ENCODING 538
SWIDTH 611 0
DWIDTH 20 0
BBX 19 34 6 -9
BITMAP
7FFFE0
FFFFE0
FFFFC0
01E000
01E000
01C000
01C000
01C000
03C000
038000
038000
038000
038000
078000
070000
070000
070000
0F0000
0F0000
0E0000
0E0000
0E0000
1E0000
1C0000
1C0000
000000
078000
078000
078000
030000
030000
060000
0C0000
080000
ENDCHAR
STARTCHAR tcommaaccent
ENCODING 539
SWIDTH 278 0
DWIDTH 9 0
BBX 8 31 4 -9
BITMAP
1C
1C
1C
1C
7F
FF
FE
38
38
38
70
70
70
70
70
E0
E0
E0
E0
F8
F8
70
00
78
78
78
30
30
60
C0
80
ENDCHAR
STARTCHAR uni021E
ENCODING 542
SWIDTH 722 0
DWIDTH 24 0
BBX 23 31 3 0
BITMAP
0070C0
0031C0
003B80
001F00
001E00
000000
07000E
07000E
07000E
07000E
0E001E
0E001C
0E001C
0E001C
0E003C
1C0038
1C0038
1FFFF8
1FFFF8
3FFFF8
380070
380070
380070
780070
7000F0
7000E0
7000E0
7000E0
E001C0
E001C0
E001C0
ENDCHAR
STARTCHAR uni021F
ENCODING 543
SWIDTH 556 0
DWIDTH 18 0
BBX 17 31 2 0
BITMAP
1C3000
0C7000
0EE000
07C000
078000
000000
070000
070000
070000
070000
0E0000
0E0000
0E0000
0E3C00
0CFF00
1FFF80
1F0780
1E0380
1C0380
380700
380700
380700
380700
380700
700E00
700E00
700E00
700E00
E01C00
E01C00
E01C00
ENDCHAR
STARTCHAR uni0226
ENCODING 550
SWIDTH 667 0
DWIDTH 22 0
BBX 20 29 1 0
BITMAP
001E00
001E00
001E00
000000
000780
000F80
000F80
001FC0
001DC0
003DC0
0039C0
0079C0
00F1C0
00E1C0
01E0E0
01C0E0
03C0E0
0380E0
0780E0
0FFFE0
0FFFF0
1FFFF0
1C0070
3C0070
380070
780070
700070
F00070
E00070
ENDCHAR
STARTCHAR uni0227
ENCODING 551
SWIDTH 556 0
DWIDTH 18 0
BBX 17 22 2 0
BITMAP
00F000
00F000
00F000
000000
01FE00
07FF00
0F9F80
1C0380
1C0380
000380
000700
007F00
0FFF00
3FC700
7C0700
700E00
E00E00
E01E00
E03E00
F1FE00
7FCF00
3F8F00
ENDCHAR
STARTCHAR uni0228
ENCODING 552
SWIDTH 667 0
DWIDTH 22 0
BBX 22 32 3 -7
BITMAP
07FFFC
07FFFC
07FFF8
070000
0F0000
0E0000
0E0000
0E0000
1C0000
1C0000
1C0000
1FFFE0
1FFFE0
3FFFC0
380000
380000
380000
780000
700000
700000
700000
700000
FFFFC0
FFFFC0
FFFF80
00C000
00C000
00E000
007000
003000
067000
03E000
ENDCHAR
STARTCHAR uni0229
ENCODING 553
SWIDTH 556 0
DWIDTH 18 0
BBX 16 25 3 -7
BITMAP
01F8
07FE
1FFE
3E0F
3807
7007
7007
FFFF
FFFF
FFFF
E000
E000
E00E
F01E
787C
7FF8
3FF0
0FC0
0180
0180
01C0
00E0
0060
0CE0
07C0
ENDCHAR
STARTCHAR uni022A
ENCODING 554
SWIDTH 778 0
DWIDTH 25 0
BBX 25 33 3 0
BITMAP
007FE000
007FE000
00000000
00787800
00787800
00787800
00000000
00000000
000FC000
007FF800
01FFFC00
03E03E00
07801F00
0F000F00
1E000780
3C000780
38000380
78000380
70000380
F0000380
F0000780
E0000780
E0000700
E0000F00
E0000E00
F0001E00
70003C00
78007800
7C00F800
3E03E000
1FFFC000
0FFF0000
01F80000
ENDCHAR
STARTCHAR uni022B
ENCODING 555
SWIDTH 556 0
DWIDTH 19 0
BBX 17 25 3 0
BITMAP
07FE00
07FE00
000000
078780
078780
078780
000000
01F000
07FC00
1FFE00
3E1F00
380F00
700700
700700
F00700
E00700
E00700
E00E00
E00E00
E01E00
E03C00
F07800
7FF000
7FE000
1F8000
ENDCHAR
STARTCHAR uni022C
ENCODING 556
SWIDTH 778 0
DWIDTH 25 0
BBX 25 33 3 0
BITMAP
007FE000
007FE000
00000000
001E1000
003F7000
0077E000
0043C000
00000000
000FC000
007FF800
01FFFC00
03E03E00
07801F00
0F000F00
1E000780
3C000780
38000380
78000380
70000380
F0000380
F0000780
E0000780
E0000700
E0000F00
E0000E00
F0001E00
70003C00
78007800
7C00F800
3E03E000
1FFFC000
0FFF0000
01F80000
ENDCHAR
STARTCHAR uni022D
ENCODING 557
SWIDTH 556 0
DWIDTH 19 0
BBX 16 27 3 0
BITMAP
07FE
07FE
0000
01E1
03F7
077E
043C
0000
0000
01F0
07FC
1FFE
3E1F
380F
7007
7007
F007
E007
E007
E00E
E00E
E01E
E03C
F078
7FF0
7FE0
1F80
ENDCHAR
STARTCHAR uni022E
ENCODING 558
SWIDTH 778 0
DWIDTH 25 0
BBX 25 29 3 0
BITMAP
000F0000
000F0000
000F0000
00000000
000FC000
007FF800
01FFFC00
03E03E00
07801F00
0F000F00
1E000780
3C000780
38000380
78000380
70000380
F0000380
F0000780
E0000780
E0000700
E0000F00
E0000E00
F0001E00
70003C00
78007800
7C00F800
3E03E000
1FFFC000
0FFF0000
01F80000
ENDCHAR
STARTCHAR uni022F
ENCODING 559
SWIDTH 556 0
DWIDTH 19 0
BBX 16 22 3 0
BITMAP
01E0
01E0
01E0
0000
01F0
07FC
1FFE
3E1F
380F
7007
7007
F007
E007
E007
E00E
E00E
E01E
E03C
F078
7FF0
7FE0
1F80
ENDCHAR
STARTCHAR uni0230
ENCODING 560
SWIDTH 778 0
DWIDTH 25 0
BBX 25 32 3 0
BITMAP
007FE000
007FE000
00000000
000F0000
000F0000
000F0000
00000000
000FC000
007FF800
01FFFC00
03E03E00
07801F00
0F000F00
1E000780
3C000780
38000380
78000380
70000380
F0000380
F0000780
E0000780
E0000700
E0000F00
E0000E00
F0001E00
70003C00
78007800
7C00F800
3E03E000
1FFFC000
0FFF0000
01F80000
ENDCHAR
STARTCHAR uni0231
ENCODING 561
SWIDTH 556 0
DWIDTH 19 0
BBX 16 25 3 0
BITMAP
0FFC
0FFC
0000
01E0
01E0
01E0
0000
01F0
07FC
1FFE
3E1F
380F
7007
7007
F007
E007
E007
E00E
E00E
E01E
E03C
F078
7FF0
7FE0
1F80
ENDCHAR
STARTCHAR uni0232
ENCODING 562
SWIDTH 667 0
DWIDTH 22 0
BBX 22 28 6 0
BITMAP
03FF00
03FF00
000000
F0007C
F000F8
7800F0
7801E0
3803C0
3C0780
3C0700
1E0F00
1E1E00
0E3C00
0F7800
0F7000
07E000
07E000
03C000
038000
038000
078000
078000
070000
070000
070000
0F0000
0E0000
0E0000
ENDCHAR
STARTCHAR uni0233
ENCODING 563
SWIDTH 500 0
DWIDTH 17 0
BBX 19 28 0 -7
BITMAP
07FE00
07FE00
000000
0E00E0
0E01E0
0E01C0
0F0380
0F0380
070700
070700
070E00
071E00
071C00
073800
07B800
07F000
07F000
03E000
03C000
03C000
038000
038000
070000
0F0000
0E0000
FC0000
F80000
F00000
ENDCHAR
STARTCHAR uni0250
ENCODING 592
SWIDTH 556 0
DWIDTH 18 0
BBX 17 18 2 0
BITMAP
78FE00
79FF00
3FC780
3E0380
3C0380
380380
380700
701F00
71FE00
7FF800
7F0000
700000
E00000
E01C00
E01C00
FCF800
7FF000
3FC000
ENDCHAR
STARTCHAR uni0259
ENCODING 601
SWIDTH 556 0
DWIDTH 18 0
BBX 16 18 3 0
BITMAP
03F0
0FFC
1FFE
3E1E
780F
7007
0007
0007
FFFF
FFFF
FFFF
E00E
E00E
E01C
F07C
7FF8
7FE0
1F80
ENDCHAR
STARTCHAR uni025F
ENCODING 607
SWIDTH 278 0
DWIDTH 9 0
BBX 11 25 3 -7
BITMAP
00E0
00E0
01C0
01C0
01C0
01C0
01C0
0380
0380
0380
0380
0380
0700
0700
0700
1FC0
3FC0
3F80
0E00
0E00
0E00
1C00
7C00
F800
F000
ENDCHAR
STARTCHAR uni0265
ENCODING 613
SWIDTH 556 0
DWIDTH 18 0
BBX 17 25 2 -7
BITMAP
1C0380
1C0380
1C0380
380700
380700
380700
380700
700E00
700E00
700E00
700E00
700E00
E01C00
E03C00
F07C00
FFFC00
7F9800
1E3800
003800
003800
003800
007000
007000
007000
007000
ENDCHAR
STARTCHAR uni0275
ENCODING 629
SWIDTH 556 0
DWIDTH 19 0
BBX 16 18 3 0
BITMAP
01F0
07FC
1FFE
3E1F
380F
7007
7007
F007
FFFF
FFFF
E00E
E00E
E01E
E03C
F078
7FF0
7FE0
1F80
ENDCHAR
STARTCHAR uni0279
ENCODING 633
SWIDTH 333 0
DWIDTH 11 0
BBX 12 18 2 0
BITMAP
0070
0070
0070
00E0
00E0
00E0
00E0
00E0
01C0
01C0
01C0
03C0
0780
0F80
3F80
FB80
F380
E380
ENDCHAR
STARTCHAR uni0287
ENCODING 647
SWIDTH 278 0
DWIDTH 9 0
BBX 8 22 4 0
BITMAP
0E
1F
1F
07
07
07
07
0E
0E
0E
0E
0E
1C
1C
1C
7F
FF
FE
38
38
38
38
ENDCHAR
STARTCHAR uni0289
ENCODING 649
SWIDTH 556 0
DWIDTH 19 0
BBX 17 18 3 0
BITMAP
1C0380
1C0380
380700
380700
380700
380700
700F00
700E00
FFFF80
FFFF80
700E00
E01E00
E01C00
E03C00
F0FC00
FFFC00
7F9C00
3E1C00
ENDCHAR
STARTCHAR uni028C
ENCODING 652
SWIDTH 500 0
DWIDTH 17 0
BBX 15 18 4 0
BITMAP
0038
0078
00F8
00FC
01DC
01DC
039C
039C
071C
0E1C
0E0C
1C0E
1C0E
380E
700E
700E
E00E
E00E
ENDCHAR
STARTCHAR uni028D
ENCODING 653
SWIDTH 722 0
DWIDTH 24 0
BBX 23 18 4 0
BITMAP
00701C
00F03C
00F03C
01F07C
01F07C
03B0EC
03B0EE
0731CE
0739CE
0E3B8E
0E3B8E
1C3B0E
1C3F0E
383E0E
383E0E
703C0E
F03C0E
E0380E
ENDCHAR
STARTCHAR uni028E
ENCODING 654
SWIDTH 500 0
DWIDTH 17 0
BBX 19 25 0 0
BITMAP
0001E0
0003E0
0007E0
000E00
001E00
001C00
003800
003800
007800
007800
00F800
01FC00
01FC00
03BC00
039C00
071C00
0F1C00
0E1C00
1C1C00
1C1C00
381E00
381E00
700E00
F00E00
E00E00
ENDCHAR
STARTCHAR uni029E
ENCODING 670
SWIDTH 500 0
DWIDTH 17 0
BBX 17 25 2 -7
BITMAP
3C0380
1C0380
1E0700
1E0700
0E0700
0E0700
070700
070E00
079E00
03FE00
03FE00
01EE00
03CC00
071C00
1E1C00
3C1C00
781800
F03800
003800
003800
003800
007000
007000
007000
007000
ENDCHAR
STARTCHAR uni02BB
ENCODING 699
SWIDTH 222 0
DWIDTH 7 0
BBX 3 7 6 18
BITMAP
20
60
C0
C0
E0
E0
E0
ENDCHAR
STARTCHAR afii57929
ENCODING 700
SWIDTH 222 0
DWIDTH 7 0
BBX 4 7 6 18
BITMAP
70
70
70
30
30
60
C0
ENDCHAR
STARTCHAR afii64937
ENCODING 701
SWIDTH 222 0
DWIDTH 7 0
BBX 4 7 6 18
BITMAP
E0
E0
E0
C0
C0
60
30
ENDCHAR
STARTCHAR circumflex
ENCODING 710
SWIDTH 333 0
DWIDTH 11 0
BBX 8 5 6 20
BITMAP
1E
3E
77
E7
C3
ENDCHAR
STARTCHAR caron
ENCODING 711
SWIDTH 333 0
DWIDTH 11 0
BBX 9 5 6 20
BITMAP
E180
6380
7700
3E00
3C00
ENDCHAR
STARTCHAR uni02C8
ENCODING 712
SWIDTH 191 0
DWIDTH 6 0
BBX 4 8 6 15
BITMAP
70
70
F0
E0
E0
E0
C0
C0
ENDCHAR
STARTCHAR macron
ENCODING 713
SWIDTH 333 0
DWIDTH 11 0
BBX 10 2 5 22
BITMAP
FFC0
FFC0
ENDCHAR
STARTCHAR uni02CA
ENCODING 714
SWIDTH 333 0
DWIDTH 11 0
BBX 7 5 8 22
BITMAP
1E
3C
78
70
E0
ENDCHAR
STARTCHAR uni02CB
ENCODING 715
SWIDTH 333 0
DWIDTH 11 0
BBX 5 5 7 20
BITMAP
E0
F0
70
38
18
ENDCHAR
STARTCHAR uni02CD
ENCODING 717
SWIDTH 333 0
DWIDTH 11 0
BBX 10 2 5 -3
BITMAP
FFC0
FFC0
ENDCHAR
STARTCHAR uni02CE
ENCODING 718
SWIDTH 333 0
DWIDTH 11 0
BBX 5 5 7 -6
BITMAP
E0
F0
70
38
18
ENDCHAR
STARTCHAR uni02CF
ENCODING 719
SWIDTH 333 0
DWIDTH 11 0
BBX 7 5 8 -6
BITMAP
1E
3C
78
70
E0
ENDCHAR
STARTCHAR breve
ENCODING 728
SWIDTH 333 0
DWIDTH 11 0
BBX 9 4 6 20
BITMAP
8080
E380
7F00
3E00
ENDCHAR
STARTCHAR dotaccent
ENCODING 729
SWIDTH 333 0
DWIDTH 11 0
BBX 4 3 8 20
BITMAP
F0
F0
F0
ENDCHAR
STARTCHAR ring
ENCODING 730
SWIDTH 333 0
DWIDTH 11 0
BBX 6 6 7 19
BITMAP
38
6C
44
CC
58
70
ENDCHAR
STARTCHAR ogonek
ENCODING 731
SWIDTH 333 0
DWIDTH 11 0
BBX 7 7 1 -6
BITMAP
30
70
60
E0
E2
FE
7C
ENDCHAR
STARTCHAR tilde
ENCODING 732
SWIDTH 333 0
DWIDTH 11 0
BBX 11 4 5 20
BITMAP
3C20
7EE0
EFC0
8780
ENDCHAR
STARTCHAR hungarumlaut
ENCODING 733
SWIDTH 333 0
DWIDTH 11 0
BBX 12 5 4 20
BITMAP
1C70
3CF0
71C0
E380
C300
ENDCHAR
STARTCHAR uni02EE
ENCODING 750
SWIDTH 333 0
DWIDTH 11 0
BBX 9 7 6 16
BITMAP
E380
E380
E380
6180
6180
C300
8200
ENDCHAR
STARTCHAR uni037E
ENCODING 894
SWIDTH 278 0
DWIDTH 9 0
BBX 8 21 3 -4
BITMAP
0F
0F
0F
00
00
00
00
00
00
00
00
00
00
00
78
78
78
30
30
60
C0
ENDCHAR
STARTCHAR tonos
ENCODING 900
SWIDTH 333 0
DWIDTH 11 0
BBX 7 5 8 22
BITMAP
1E
3C
78
70
E0
ENDCHAR
STARTCHAR dieresistonos
ENCODING 901
SWIDTH 333 0
DWIDTH 11 0
BBX 10 9 5 22
BITMAP
03C0
0780
0F00
0E00
1C00
0000
F3C0
F3C0
F3C0
ENDCHAR
STARTCHAR anoteleia
ENCODING 903
SWIDTH 278 0
DWIDTH 9 0
BBX 5 4 5 10
BITMAP
78
78
F0
F0
ENDCHAR
STARTCHAR mu
ENCODING 956
SWIDTH 556 0
DWIDTH 19 0
BBX 19 24 1 -6
BITMAP
0700E0
0700E0
0E01C0
0E01C0
0E01C0
0E01C0
1C0380
1C0380
1C0380
1C0380
1C0380
380700
380700
380F00
3C3F00
3FFF00
7FEE00
778E00
700000
700000
E00000
E00000
E00000
E00000
ENDCHAR
STARTCHAR uni1E00
ENCODING 7680
SWIDTH 667 0
DWIDTH 22 0
BBX 20 32 1 -7
BITMAP
000780
000F80
000F80
001FC0
001DC0
003DC0
0039C0
0079C0
00F1C0
00E1C0
01E0E0
01C0E0
03C0E0
0380E0
0780E0
0FFFE0
0FFFF0
1FFFF0
1C0070
3C0070
380070
780070
700070
F00070
E00070
000000
007000
00D800
008800
019800
00B000
00E000
ENDCHAR
STARTCHAR uni1E01
ENCODING 7681
SWIDTH 556 0
DWIDTH 18 0
BBX 17 25 2 -7
BITMAP
01FE00
07FF00
0F9F80
1C0380
1C0380
000380
000700
007F00
0FFF00
3FC700
7C0700
700E00
E00E00
E01E00
E03E00
F1FE00
7FCF00
3F8F00
000000
01C000
036000
022000
066000
02C000
038000
ENDCHAR
STARTCHAR uni1E02
ENCODING 7682
SWIDTH 667 0
DWIDTH 22 0
BBX 21 29 3 0
BITMAP
003C00
003C00
003C00
000000
07FFC0
07FFF0
07FFF0
0F0078
0E0038
0E0038
0E0038
0E0078
1C0070
1C00F0
1C01E0
1FFFC0
1FFF80
3FFFC0
3801C0
3800E0
3800E0
7800E0
7000E0
7000E0
7001C0
7003C0
FFFF80
FFFF00
FFFC00
ENDCHAR
STARTCHAR uni1E03
ENCODING 7683
SWIDTH 556 0
DWIDTH 18 0
BBX 17 29 2 0
BITMAP
078000
078000
078000
000000
070000
070000
070000
060000
0E0000
0E0000
0E0000
0C7C00
0DFF00
1FFF00
1F0780
1E0380
1C0380
3C0380
380380
380380
380380
380780
780700
780F00
780E00
7C3C00
FFF800
EFF000
03C000
ENDCHAR
STARTCHAR uni1E04
ENCODING 7684
SWIDTH 667 0
DWIDTH 22 0
BBX 21 29 3 -4
BITMAP
07FFC0
07FFF0
07FFF0
0F0078
0E0038
0E0038
0E0038
0E0078
1C0070
1C00F0
1C01E0
1FFFC0
1FFF80
3FFFC0
3801C0
3800E0
3800E0
7800E0
7000E0
7000E0
7001C0
7003C0
FFFF80
FFFF00
FFFC00
000000
01E000
01E000
01E000
ENDCHAR
STARTCHAR uni1E05
ENCODING 7685
SWIDTH 556 0
DWIDTH 18 0
BBX 17 29 2 -4
BITMAP
070000
070000
070000
060000
0E0000
0E0000
0E0000
0C7C00
0DFF00
1FFF00
1F0780
1E0380
1C0380
3C0380
380380
380380
380380
380780
780700
780F00
780E00
7C3C00
FFF800
EFF000
03C000
000000
03C000
03C000
03C000
ENDCHAR
STARTCHAR uni1E06
ENCODING 7686
SWIDTH 667 0
DWIDTH 22 0
BBX 21 28 3 -3
BITMAP
07FFC0
07FFF0
07FFF0
0F0078
0E0038
0E0038
0E0038
0E0078
1C0070
1C00F0
1C01E0
1FFFC0
1FFF80
3FFFC0
3801C0
3800E0
3800E0
7800E0
7000E0
7000E0
7001C0
7003C0
FFFF80
FFFF00
FFFC00
000000
0FFC00
0FFC00
ENDCHAR
STARTCHAR uni1E07
ENCODING 7687
SWIDTH 556 0
DWIDTH 18 0
BBX 17 28 2 -3
BITMAP
070000
070000
070000
060000
0E0000
0E0000
0E0000
0C7C00
0DFF00
1FFF00
1F0780
1E0380
1C0380
3C0380
380380
380380
380380
380780
780700
780F00
780E00
7C3C00
FFF800
EFF000
03C000
000000
1FF800
1FF800
ENDCHAR
STARTCHAR uni1E08
ENCODING 7688
SWIDTH 722 0
DWIDTH 24 0
BBX 21 38 4 -7
BITMAP
000F00
001E00
003C00
003800
007000
000000
001F00
00FFC0
03FFE0
07C1F0
0F8078
0E0078
1E0038
3C0038
380000
780000
780000
700000
F00000
F00000
F00000
E00070
E000F0
F000E0
F001E0
7003C0
780780
3C1F00
3FFE00
1FF800
07E000
018000
030000
03C000
00E000
106000
18E000
0FC000
ENDCHAR
STARTCHAR uni1E09
ENCODING 7689
SWIDTH 500 0
DWIDTH 17 0
BBX 15 31 3 -7
BITMAP
0078
00F0
01E0
01C0
0380
0000
00F0
07FC
0FFE
1E0E
380E
780E
7000
F000
E000
E000
E000
E01E
E01C
E03C
F078
7FF0
7FE0
1F00
0600
0600
0700
0380
0180
3380
1F00
ENDCHAR
STARTCHAR uni1E0A
ENCODING 7690
SWIDTH 722 0
DWIDTH 24 0
BBX 22 29 3 0
BITMAP
003C00
003C00
003C00
000000
07FF80
07FFE0
07FFF0
0F00F8
0E0038
0E003C
0E001C
0E001C
1C001C
1C001C
1C001C
1C001C
1C001C
38001C
380038
380038
380078
780070
7000E0
7001E0
7003C0
700F80
FFFF00
FFFE00
FFF000
ENDCHAR
STARTCHAR uni1E0B
ENCODING 7691
SWIDTH 556 0
DWIDTH 18 0
BBX 19 29 3 0
BITMAP
000780
000780
000780
000000
0000E0
0000E0
0000E0
0000E0
0001C0
0001C0
0001C0
03F1C0
07F980
1FFF80
3E1F80
380780
780780
700700
F00700
E00700
E00700
E00F00
E00E00
E01E00
E03E00
F0FE00
7FEE00
3FCE00
1F8E00
ENDCHAR
STARTCHAR uni1E0C
ENCODING 7692
SWIDTH 722 0
DWIDTH 24 0
BBX 22 29 3 -4
BITMAP
07FF80
07FFE0
07FFF0
0F00F8
0E0038
0E003C
0E001C
0E001C
1C001C
1C001C
1C001C
1C001C
1C001C
38001C
380038
380038
380078
780070
7000E0
7001E0
7003C0
700F80
FFFF00
FFFE00
FFF000
000000
01E000
01E000
01E000
ENDCHAR
STARTCHAR uni1E0D
ENCODING 7693
SWIDTH 556 0
DWIDTH 18 0
BBX 19 29 3 -4
BITMAP
0000E0
0000E0
0000E0
0000E0
0001C0
0001C0
0001C0
03F1C0
07F980
1FFF80
3E1F80
380780
780780
700700
F00700
E00700
E00700
E00F00
E00E00
E01E00
E03E00
F0FE00
7FEE00
3FCE00
1F8E00
000000
01E000
01E000
01E000
ENDCHAR
STARTCHAR uni1E0E
ENCODING 7694
SWIDTH 722 0
DWIDTH 24 0
BBX 22 28 3 -3
BITMAP
07FF80
07FFE0
07FFF0
0F00F8
0E0038
0E003C
0E001C
0E001C
1C001C
1C001C
1C001C
1C001C
1C001C
38001C
380038
380038
380078
780070
7000E0
7001E0
7003C0
700F80
FFFF00
FFFE00
FFF000
000000
0FFC00
0FFC00
ENDCHAR
STARTCHAR uni1E0F
ENCODING 7695
SWIDTH 556 0
DWIDTH 18 0
BBX 19 28 3 -3
BITMAP
0000E0
0000E0
0000E0
0000E0
0001C0
0001C0
0001C0
03F1C0
07F980
1FFF80
3E1F80
380780
780780
700700
F00700
E00700
E00700
E00F00
E00E00
E01E00
E03E00
F0FE00
7FEE00
3FCE00
1F8E00
000000
0FFC00
0FFC00
ENDCHAR
STARTCHAR uni1E10
ENCODING 7696
SWIDTH 722 0
DWIDTH 24 0
BBX 22 32 3 -7
BITMAP
07FF80
07FFE0
07FFF0
0F00F8
0E0038
0E003C
0E001C
0E001C
1C001C
1C001C
1C001C
1C001C
1C001C
38001C
380038
380038
380078
780070
7000E0
7001E0
7003C0
700F80
FFFF00
FFFE00
FFF000
00C000
00C000
00E000
007000
003000
067000
03E000
ENDCHAR
STARTCHAR uni1E11
ENCODING 7697
SWIDTH 556 0
DWIDTH 18 0
BBX 19 32 3 -7
BITMAP
0000E0
0000E0
0000E0
0000E0
0001C0
0001C0
0001C0
03F1C0
07F980
1FFF80
3E1F80
380780
780780
700700
F00700
E00700
E00700
E00F00
E00E00
E01E00
E03E00
F0FE00
7FEE00
3FCE00
1F8E00
00C000
00C000
00E000
007000
003000
067000
03E000
ENDCHAR
STARTCHAR uni1E12
ENCODING 7698
SWIDTH 722 0
DWIDTH 24 0
BBX 22 31 3 -6
BITMAP
07FF80
07FFE0
07FFF0
0F00F8
0E0038
0E003C
0E001C
0E001C
1C001C
1C001C
1C001C
1C001C
1C001C
38001C
380038
380038
380078
780070
7000E0
7001E0
7003C0
700F80
FFFF00
FFFE00
FFF000
000000
00F000
01F000
03B800
073800
061800
ENDCHAR
STARTCHAR uni1E13
ENCODING 7699
SWIDTH 556 0
DWIDTH 18 0
BBX 19 31 3 -6
BITMAP
0000E0
0000E0
0000E0
0000E0
0001C0
0001C0
0001C0
03F1C0
07F980
1FFF80
3E1F80
380780
780780
700700
F00700
E00700
E00700
E00F00
E00E00
E01E00
E03E00
F0FE00
7FEE00
3FCE00
1F8E00
000000
01E000
03E000
077000
0E7000
0C3000
ENDCHAR
STARTCHAR uni1E14
ENCODING 7700
SWIDTH 667 0
DWIDTH 22 0
BBX 22 34 3 0
BITMAP
007000
007800
003800
001C00
000C00
000000
01FF80
01FF80
000000
07FFFC
07FFFC
07FFF8
070000
0F0000
0E0000
0E0000
0E0000
1C0000
1C0000
1C0000
1FFFE0
1FFFE0
3FFFC0
380000
380000
380000
780000
700000
700000
700000
700000
FFFFC0
FFFFC0
FFFF80
ENDCHAR
STARTCHAR uni1E15
ENCODING 7701
SWIDTH 556 0
DWIDTH 18 0
BBX 16 27 3 0
BITMAP
0380
03C0
01C0
00E0
0060
0000
0FFC
0FFC
0000
01F8
07FE
1FFE
3E0F
3807
7007
7007
FFFF
FFFF
FFFF
E000
E000
E00E
F01E
787C
7FF8
3FF0
0FC0
ENDCHAR
STARTCHAR uni1E16
ENCODING 7702
SWIDTH 667 0
DWIDTH 22 0
BBX 22 34 3 0
BITMAP
000F00
001E00
003C00
003800
007000
000000
01FF80
01FF80
000000
07FFFC
07FFFC
07FFF8
070000
0F0000
0E0000
0E0000
0E0000
1C0000
1C0000
1C0000
1FFFE0
1FFFE0
3FFFC0
380000
380000
380000
780000
700000
700000
700000
700000
FFFFC0
FFFFC0
FFFF80
ENDCHAR
STARTCHAR uni1E17
ENCODING 7703
SWIDTH 556 0
DWIDTH 18 0
BBX 16 27 3 0
BITMAP
0078
00F0
01E0
01C0
0380
0000
0FFC
0FFC
0000
01F8
07FE
1FFE
3E0F
3807
7007
7007
FFFF
FFFF
FFFF
E000
E000
E00E
F01E
787C
7FF8
3FF0
0FC0
ENDCHAR
STARTCHAR uni1E18
ENCODING 7704
SWIDTH 667 0
DWIDTH 22 0
BBX 22 31 3 -6
BITMAP
07FFFC
07FFFC
07FFF8
070000
0F0000
0E0000
0E0000
0E0000
1C0000
1C0000
1C0000
1FFFE0
1FFFE0
3FFFC0
380000
380000
380000
780000
700000
700000
700000
700000
FFFFC0
FFFFC0
FFFF80
000000
01E000
03E000
077000
0E7000
0C3000
ENDCHAR
STARTCHAR uni1E19
ENCODING 7705
SWIDTH 556 0
DWIDTH 18 0
BBX 16 24 3 -6
BITMAP
01F8
07FE
1FFE
3E0F
3807
7007
7007
FFFF
FFFF
FFFF
E000
E000
E00E
F01E
787C
7FF8
3FF0
0FC0
0000
03C0
07C0
0EE0
1CE0
1860
ENDCHAR
STARTCHAR uni1E1A
ENCODING 7706
SWIDTH 667 0
DWIDTH 22 0
BBX 22 30 3 -5
BITMAP
07FFFC
07FFFC
07FFF8
070000
0F0000
0E0000
0E0000
0E0000
1C0000
1C0000
1C0000
1FFFE0
1FFFE0
3FFFC0
380000
380000
380000
780000
700000
700000
700000
700000
FFFFC0
FFFFC0
FFFF80
000000
078400
0FDC00
1DF800
10F000
ENDCHAR
STARTCHAR uni1E1B
ENCODING 7707
SWIDTH 556 0
DWIDTH 18 0
BBX 16 23 3 -5
BITMAP
01F8
07FE
1FFE
3E0F
3807
7007
7007
FFFF
FFFF
FFFF
E000
E000
E00E
F01E
787C
7FF8
3FF0
0FC0
0000
0F08
1FB8
3BF0
21E0
ENDCHAR
STARTCHAR uni1E1C
ENCODING 7708
SWIDTH 667 0
DWIDTH 22 0
BBX 22 37 3 -7
BITMAP
010100
01C700
00FE00
007C00
000000
07FFFC
07FFFC
07FFF8
070000
0F0000
0E0000
0E0000
0E0000
1C0000
1C0000
1C0000
1FFFE0
1FFFE0
3FFFC0
380000
380000
380000
780000
700000
700000
700000
700000
FFFFC0
FFFFC0
FFFF80
00C000
00C000
00E000
007000
003000
067000
03E000
ENDCHAR
STARTCHAR uni1E1D
ENCODING 7709
SWIDTH 556 0
DWIDTH 18 0
BBX 16 30 3 -7
BITMAP
0808
0E38
07F0
03E0
0000
01F8
07FE
1FFE
3E0F
3807
7007
7007
FFFF
FFFF
FFFF
E000
E000
E00E
F01E
787C
7FF8
3FF0
0FC0
0180
0180
01C0
00E0
0060
0CE0
07C0
ENDCHAR
STARTCHAR uni1E1E
ENCODING 7710
SWIDTH 611 0
DWIDTH 20 0
BBX 21 29 3 0
BITMAP
007800
007800
007800
000000
07FFF8
07FFF8
07FFF0
070000
0F0000
0E0000
0E0000
0E0000
0E0000
1C0000
1C0000
1FFF80
1FFF80
3FFF00
380000
380000
380000
380000
700000
700000
700000
700000
E00000
E00000
E00000
ENDCHAR
STARTCHAR uni1E1F
ENCODING 7711
SWIDTH 278 0
DWIDTH 9 0
BBX 11 29 3 0
BITMAP
0780
0780
0780
0000
01E0
03E0
07C0
0700
0E00
0E00
0E00
3F80
7F80
7F00
1C00
1C00
1C00
3800
3800
3800
3800
3800
7000
7000
7000
7000
7000
E000
E000
ENDCHAR
STARTCHAR uni1E20
ENCODING 7712
SWIDTH 778 0
DWIDTH 25 0
BBX 23 28 4 0
BITMAP
00FFC0
00FFC0
000000
001FC0
007FF0
01FFFC
03E07C
07801E
0F001E
1E000E
1C000E
380000
380000
700000
700000
700FFE
E00FFE
E00FFC
E0001C
E0001C
F0003C
F00038
700078
7800F8
3E03F8
3FFFB0
0FFE30
03F800
ENDCHAR
STARTCHAR uni1E21
ENCODING 7713
SWIDTH 556 0
DWIDTH 18 0
BBX 19 28 1 -7
BITMAP
03FF00
03FF00
000000
00F8E0
01FEE0
07FFC0
0F87C0
0E03C0
1C03C0
1C0380
380380
380380
380380
380780
380700
380F00
380F00
3C3F00
1FF700
0FE600
078E00
000E00
E01C00
E01C00
F07800
7FF000
7FE000
1FC000
ENDCHAR
STARTCHAR uni1E22
ENCODING 7714
SWIDTH 722 0
DWIDTH 24 0
BBX 23 29 3 0
BITMAP
001E00
001E00
001E00
000000
07000E
07000E
07000E
07000E
0E001E
0E001C
0E001C
0E001C
0E003C
1C0038
1C0038
1FFFF8
1FFFF8
3FFFF8
380070
380070
380070
780070
7000F0
7000E0
7000E0
7000E0
E001C0
E001C0
E001C0
ENDCHAR
STARTCHAR uni1E23
ENCODING 7715
SWIDTH 556 0
DWIDTH 18 0
BBX 17 29 2 0
BITMAP
078000
078000
078000
000000
070000
070000
070000
070000
0E0000
0E0000
0E0000
0E3C00
0CFF00
1FFF80
1F0780
1E0380
1C0380
380700
380700
380700
380700
380700
700E00
700E00
700E00
700E00
E01C00
E01C00
E01C00
ENDCHAR
STARTCHAR uni1E24
ENCODING 7716
SWIDTH 722 0
DWIDTH 24 0
BBX 23 29 3 -4
BITMAP
07000E
07000E
07000E
07000E
0E001E
0E001C
0E001C
0E001C
0E003C
1C0038
1C0038
1FFFF8
1FFFF8
3FFFF8
380070
380070
380070
780070
7000F0
7000E0
7000E0
7000E0
E001C0
E001C0
E001C0
000000
00F000
00F000
00F000
ENDCHAR
STARTCHAR uni1E25
ENCODING 7717
SWIDTH 556 0
DWIDTH 18 0
BBX 17 29 2 -4
BITMAP
070000
070000
070000
070000
0E0000
0E0000
0E0000
0E3C00
0CFF00
1FFF80
1F0780
1E0380
1C0380
380700
380700
380700
380700
380700
700E00
700E00
700E00
700E00
E01C00
E01C00
E01C00
000000
03C000
03C000
03C000
ENDCHAR
STARTCHAR uni1E26
ENCODING 7718
SWIDTH 722 0
DWIDTH 24 0
BBX 23 29 3 0
BITMAP
00F3C0
00F3C0
00F3C0
000000
07000E
07000E
07000E
07000E
0E001E
0E001C
0E001C
0E001C
0E003C
1C0038
1C0038
1FFFF8
1FFFF8
3FFFF8
380070
380070
380070
780070
7000F0
7000E0
7000E0
7000E0
E001C0
E001C0
E001C0
ENDCHAR
STARTCHAR uni1E27
ENCODING 7719
SWIDTH 556 0
DWIDTH 18 0
BBX 17 29 2 0
BITMAP
3CF000
3CF000
3CF000
000000
070000
070000
070000
070000
0E0000
0E0000
0E0000
0E3C00
0CFF00
1FFF80
1F0780
1E0380
1C0380
380700
380700
380700
380700
380700
700E00
700E00
700E00
700E00
E01C00
E01C00
E01C00
ENDCHAR
STARTCHAR uni1E28
ENCODING 7720
SWIDTH 722 0
DWIDTH 24 0
BBX 23 32 3 -7
BITMAP
07000E
07000E
07000E
07000E
0E001E
0E001C
0E001C
0E001C
0E003C
1C0038
1C0038
1FFFF8
1FFFF8
3FFFF8
380070
380070
380070
780070
7000F0
7000E0
7000E0
7000E0
E001C0
E001C0
E001C0
003000
003000
003800
001C00
000C00
019C00
00F800
ENDCHAR
STARTCHAR uni1E29
ENCODING 7721
SWIDTH 556 0
DWIDTH 18 0
BBX 17 32 2 -7
BITMAP
070000
070000
070000
070000
0E0000
0E0000
0E0000
0E3C00
0CFF00
1FFF80
1F0780
1E0380
1C0380
380700
380700
380700
380700
380700
700E00
700E00
700E00
700E00
E01C00
E01C00
E01C00
018000
018000
01C000
00E000
006000
0CE000
07C000
ENDCHAR
STARTCHAR uni1E2A
ENCODING 7722
SWIDTH 722 0
DWIDTH 24 0
BBX 23 30 3 -5
BITMAP
07000E
07000E
07000E
07000E
0E001E
0E001C
0E001C
0E001C
0E003C
1C0038
1C0038
1FFFF8
1FFFF8
3FFFF8
380070
380070
380070
780070
7000F0
7000E0
7000E0
7000E0
E001C0
E001C0
E001C0
000000
020200
038E00
01FC00
00F800
ENDCHAR
STARTCHAR uni1E2B
ENCODING 7723
SWIDTH 556 0
DWIDTH 18 0
BBX 17 30 2 -5
BITMAP
070000
070000
070000
070000
0E0000
0E0000
0E0000
0E3C00
0CFF00
1FFF80
1F0780
1E0380
1C0380
380700
380700
380700
380700
380700
700E00
700E00
700E00
700E00
E01C00
E01C00
E01C00
000000
101000
1C7000
0FE000
07C000
ENDCHAR
STARTCHAR uni1E2C
ENCODING 7724
SWIDTH 278 0
DWIDTH 9 0
BBX 11 30 0 -5
BITMAP
00E0
00E0
00E0
00E0
01E0
01C0
01C0
01C0
03C0
0380
0380
0380
0380
0780
0700
0700
0700
0700
0F00
0E00
0E00
0E00
1E00
1C00
1C00
0000
3C20
7EE0
EFC0
8780
ENDCHAR
STARTCHAR uni1E2D
ENCODING 7725
SWIDTH 222 0
DWIDTH 7 0
BBX 11 30 -1 -5
BITMAP
00E0
00E0
00E0
00E0
0000
0000
0000
01C0
01C0
0180
0380
0380
0380
0380
0700
0700
0700
0700
0E00
0E00
0E00
0E00
0E00
1C00
1C00
0000
3C20
7EE0
EFC0
8780
ENDCHAR
STARTCHAR uni1E2E
ENCODING 7726
SWIDTH 278 0
DWIDTH 9 0
BBX 12 36 3 0
BITMAP
01E0
03C0
0780
0700
0E00
0000
3CF0
3CF0
3CF0
0000
0000
0700
0700
0700
0700
0F00
0E00
0E00
0E00
1E00
1C00
1C00
1C00
1C00
3C00
3800
3800
3800
3800
7800
7000
7000
7000
F000
E000
E000
ENDCHAR
STARTCHAR uni1E2F
ENCODING 7727
SWIDTH 278 0
DWIDTH 9 0
BBX 11 29 3 0
BITMAP
03C0
0780
0F00
0E00
1C00
0000
79E0
79E0
79E0
0000
0000
0E00
0C00
1C00
1C00
1C00
1C00
3800
3800
3800
3800
3800
7000
7000
7000
7000
7000
E000
E000
ENDCHAR
STARTCHAR uni1E30
ENCODING 7728
SWIDTH 667 0
DWIDTH 22 0
BBX 23 31 3 0
BITMAP
000780
000F00
001E00
001C00
003800
000000
07001E
07003C
070078
0F00F0
0F01E0
0E03C0
0E0780
0E0F00
1E1E00
1C3C00
1CF800
1DF800
1FF800
3F3C00
3E1C00
3C1E00
380E00
780F00
780F00
700780
700780
7003C0
F003C0
E001E0
E001E0
ENDCHAR
STARTCHAR uni1E31
ENCODING 7729
SWIDTH 500 0
DWIDTH 17 0
BBX 17 31 2 0
BITMAP
01E000
03C000
078000
070000
0E0000
000000
070000
070000
070000
070000
0E0000
0E0000
0E0000
0E0780
0C0F00
1C1E00
1C3C00
1C7000
19E000
3BC000
3FE000
3FE000
3CF000
387000
707000
703800
703800
703C00
703C00
E01C00
E01E00
ENDCHAR
STARTCHAR uni1E32
ENCODING 7730
SWIDTH 667 0
DWIDTH 22 0
BBX 23 29 3 -4
BITMAP
07001E
07003C
070078
0F00F0
0F01E0
0E03C0
0E0780
0E0F00
1E1E00
1C3C00
1CF800
1DF800
1FF800
3F3C00
3E1C00
3C1E00
380E00
780F00
780F00
700780
700780
7003C0
F003C0
E001E0
E001E0
000000
00F000
00F000
00F000
ENDCHAR
STARTCHAR uni1E33
ENCODING 7731
SWIDTH 500 0
DWIDTH 17 0
BBX 17 29 2 -4
BITMAP
070000
070000
070000
070000
0E0000
0E0000
0E0000
0E0780
0C0F00
1C1E00
1C3C00
1C7000
19E000
3BC000
3FE000
3FE000
3CF000
387000
707000
703800
703800
703C00
703C00
E01C00
E01E00
000000
03C000
03C000
03C000
ENDCHAR
STARTCHAR uni1E34
ENCODING 7732
SWIDTH 667 0
DWIDTH 22 0
BBX 23 28 3 -3
BITMAP
07001E
07003C
070078
0F00F0
0F01E0
0E03C0
0E0780
0E0F00
1E1E00
1C3C00
1CF800
1DF800
1FF800
3F3C00
3E1C00
3C1E00
380E00
780F00
780F00
700780
700780
7003C0
F003C0
E001E0
E001E0
000000
07FE00
07FE00
ENDCHAR
STARTCHAR uni1E35
ENCODING 7733
SWIDTH 500 0
DWIDTH 17 0
BBX 17 28 2 -3
BITMAP
070000
070000
070000
070000
0E0000
0E0000
0E0000
0E0780
0C0F00
1C1E00
1C3C00
1C7000
19E000
3BC000
3FE000
3FE000
3CF000
387000
707000
703800
703800
703C00
703C00
E01C00
E01E00
000000
1FF800
1FF800
ENDCHAR
STARTCHAR uni1E36
ENCODING 7734
SWIDTH 556 0
DWIDTH 18 0
BBX 15 29 3 -4
BITMAP
0700
0700
0700
0700
0F00
0E00
0E00
0E00
1E00
1C00
1C00
1C00
1C00
3C00
3800
3800
3800
7800
7800
7000
7000
7000
FFFE
FFFE
FFFC
0000
0780
0780
0780
ENDCHAR
STARTCHAR uni1E37
ENCODING 7735
SWIDTH 222 0
DWIDTH 7 0
BBX 8 29 2 -4
BITMAP
07
07
07
07
0E
0E
0E
0E
0C
1C
1C
1C
1C
38
38
38
38
38
70
70
70
70
F0
E0
E0
00
78
78
78
ENDCHAR
STARTCHAR uni1E38
ENCODING 7736
SWIDTH 556 0
DWIDTH 18 0
BBX 15 32 3 -4
BITMAP
3FF0
3FF0
0000
0700
0700
0700
0700
0F00
0E00
0E00
0E00
1E00
1C00
1C00
1C00
1C00
3C00
3800
3800
3800
7800
7800
7000
7000
7000
FFFE
FFFE
FFFC
0000
0780
0780
0780
ENDCHAR
STARTCHAR uni1E39
ENCODING 7737
SWIDTH 222 0
DWIDTH 7 0
BBX 10 32 2 -4
BITMAP
FFC0
FFC0
0000
0700
0700
0700
0700
0E00
0E00
0E00
0E00
0C00
1C00
1C00
1C00
1C00
3800
3800
3800
3800
3800
7000
7000
7000
7000
F000
E000
E000
0000
7800
7800
7800
ENDCHAR
STARTCHAR uni1E3A
ENCODING 7738
SWIDTH 556 0
DWIDTH 18 0
BBX 15 28 3 -3
BITMAP
0700
0700
0700
0700
0F00
0E00
0E00
0E00
1E00
1C00
1C00
1C00
1C00
3C00
3800
3800
3800
7800
7800
7000
7000
7000
FFFE
FFFE
FFFC
0000
3FF0
3FF0
ENDCHAR
STARTCHAR uni1E3B
ENCODING 7739
SWIDTH 222 0
DWIDTH 7 0
BBX 10 28 0 -3
BITMAP
01C0
01C0
01C0
01C0
0380
0380
0380
0380
0300
0700
0700
0700
0700
0E00
0E00
0E00
0E00
0E00
1C00
1C00
1C00
1C00
3C00
3800
3800
0000
FFC0
FFC0
ENDCHAR
STARTCHAR uni1E3C
ENCODING 7740
SWIDTH 556 0
DWIDTH 18 0
BBX 15 31 3 -6
BITMAP
0700
0700
0700
0700
0F00
0E00
0E00
0E00
1E00
1C00
1C00
1C00
1C00
3C00
3800
3800
3800
7800
7800
7000
7000
7000
FFFE
FFFE
FFFC
0000
0780
0F80
1DC0
39C0
30C0
ENDCHAR
STARTCHAR uni1E3D
ENCODING 7741
SWIDTH 222 0
DWIDTH 7 0
BBX 10 31 0 -6
BITMAP
01C0
01C0
01C0
01C0
0380
0380
0380
0380
0300
0700
0700
0700
0700
0E00
0E00
0E00
0E00
0E00
1C00
1C00
1C00
1C00
3C00
3800
3800
0000
1E00
3E00
7700
E700
C300
ENDCHAR
STARTCHAR uni1E3E
ENCODING 7742
SWIDTH 833 0
DWIDTH 27 0
BBX 29 31 2 0
BITMAP
0000F000
0001E000
0003C000
00038000
00070000
00000000
07C000F8
07C001F8
07C001F8
07C003F0
0FC003F0
0FC007F0
0EE00EE0
0EE00EE0
1EE01CE0
1CE01CE0
1CE039C0
1CE039C0
1CE071C0
3CE0E3C0
3870E380
3871C380
3871C380
38738380
78738700
70770700
70770700
707E0700
F03E0F00
E03C0E00
E0380E00
ENDCHAR
STARTCHAR uni1E3F
ENCODING 7743
SWIDTH 833 0
DWIDTH 28 0
BBX 26 24 2 0
BITMAP
0003C000
00078000
000F0000
000E0000
001C0000
00000000
1C7C1F00
1DFE7F80
1FFFFFC0
1F0FC3C0
1E0781C0
1C0701C0
3C0E0380
380E0380
380E0380
380E0380
380E0380
701C0700
701C0700
701C0700
701C0700
60180700
E0380E00
E0380E00
ENDCHAR
STARTCHAR uni1E40
ENCODING 7744
SWIDTH 833 0
DWIDTH 27 0
BBX 29 29 2 0
BITMAP
0003C000
0003C000
0003C000
00000000
07C000F8
07C001F8
07C001F8
07C003F0
0FC003F0
0FC007F0
0EE00EE0
0EE00EE0
1EE01CE0
1CE01CE0
1CE039C0
1CE039C0
1CE071C0
3CE0E3C0
3870E380
3871C380
3871C380
38738380
78738700
70770700
70770700
707E0700
F03E0F00
E03C0E00
E0380E00
ENDCHAR
STARTCHAR uni1E41
ENCODING 7745
SWIDTH 833 0
DWIDTH 28 0
BBX 26 22 2 0
BITMAP
000F0000
000F0000
000F0000
00000000
1C7C1F00
1DFE7F80
1FFFFFC0
1F0FC3C0
1E0781C0
1C0701C0
3C0E0380
380E0380
380E0380
380E0380
380E0380
701C0700
701C0700
701C0700
701C0700
60180700
E0380E00
E0380E00
ENDCHAR
STARTCHAR uni1E42
ENCODING 7746
SWIDTH 833 0
DWIDTH 27 0
BBX 29 29 2 -4
BITMAP
07C000F8
07C001F8
07C001F8
07C003F0
0FC003F0
0FC007F0
0EE00EE0
0EE00EE0
1EE01CE0
1CE01CE0
1CE039C0
1CE039C0
1CE071C0
3CE0E3C0
3870E380
3871C380
3871C380
38738380
78738700
70770700
70770700
707E0700
F03E0F00
E03C0E00
E0380E00
00000000
001E0000
001E0000
001E0000
ENDCHAR
STARTCHAR uni1E43
ENCODING 7747
SWIDTH 833 0
DWIDTH 28 0
BBX 26 22 2 -4
BITMAP
1C7C1F00
1DFE7F80
1FFFFFC0
1F0FC3C0
1E0781C0
1C0701C0
3C0E0380
380E0380
380E0380
380E0380
380E0380
701C0700
701C0700
701C0700
701C0700
60180700
E0380E00
E0380E00
00000000
001E0000
001E0000
001E0000
ENDCHAR
STARTCHAR uni1E44
ENCODING 7748
SWIDTH 722 0
DWIDTH 24 0
BBX 23 29 3 0
BITMAP
003C00
003C00
003C00
000000
07800E
07800E
07C00E
0FC00E
0FC01E
0EE01C
0EE01C
0EF01C
1E701C
1C7038
1C7838
1C3838
1C3838
3C3C38
381C70
381C70
381E70
780E70
700E60
700760
7007E0
7007E0
F003C0
E003C0
E003C0
ENDCHAR
STARTCHAR uni1E45
ENCODING 7749
SWIDTH 556 0
DWIDTH 18 0
BBX 17 22 2 0
BITMAP
01E000
01E000
01E000
000000
1C3C00
1CFF00
1FFF00
1F0780
1E0380
1C0380
3C0380
380700
380700
380700
380700
700E00
700E00
700E00
700E00
600E00
E01C00
E01C00
ENDCHAR
STARTCHAR uni1E46
ENCODING 7750
SWIDTH 722 0
DWIDTH 24 0
BBX 23 29 3 -4
BITMAP
07800E
07800E
07C00E
0FC00E
0FC01E
0EE01C
0EE01C
0EF01C
1E701C
1C7038
1C7838
1C3838
1C3838
3C3C38
381C70
381C70
381E70
780E70
700E60
700760
7007E0
7007E0
F003C0
E003C0
E003C0
000000
007800
007800
007800
ENDCHAR
STARTCHAR uni1E47
ENCODING 7751
SWIDTH 556 0
DWIDTH 18 0
BBX 17 22 2 -4
BITMAP
1C3C00
1CFF00
1FFF00
1F0780
1E0380
1C0380
3C0380
380700
380700
380700
380700
700E00
700E00
700E00
700E00
600E00
E01C00
E01C00
000000
03C000
03C000
03C000
ENDCHAR
STARTCHAR uni1E48
ENCODING 7752
SWIDTH 722 0
DWIDTH 24 0
BBX 23 28 3 -3
BITMAP
07800E
07800E
07C00E
0FC00E
0FC01E
0EE01C
0EE01C
0EF01C
1E701C
1C7038
1C7838
1C3838
1C3838
3C3C38
381C70
381C70
381E70
780E70
700E60
700760
7007E0
7007E0
F003C0
E003C0
E003C0
000000
03FF00
03FF00
ENDCHAR
STARTCHAR uni1E49
ENCODING 7753
SWIDTH 556 0
DWIDTH 18 0
BBX 17 21 2 -3
BITMAP
1C3C00
1CFF00
1FFF00
1F0780
1E0380
1C0380
3C0380
380700
380700
380700
380700
700E00
700E00
700E00
700E00
600E00
E01C00
E01C00
000000
1FF800
1FF800
ENDCHAR
STARTCHAR uni1E4A
ENCODING 7754
SWIDTH 722 0
DWIDTH 24 0
BBX 23 31 3 -6
BITMAP
07800E
07800E
07C00E
0FC00E
0FC01E
0EE01C
0EE01C
0EF01C
1E701C
1C7038
1C7838
1C3838
1C3838
3C3C38
381C70
381C70
381E70
780E70
700E60
700760
7007E0
7007E0
F003C0
E003C0
E003C0
000000
007800
00F800
01DC00
039C00
030C00
ENDCHAR
STARTCHAR uni1E4B
ENCODING 7755
SWIDTH 556 0
DWIDTH 18 0
BBX 17 24 2 -6
BITMAP
1C3C00
1CFF00
1FFF00
1F0780
1E0380
1C0380
3C0380
380700
380700
380700
380700
700E00
700E00
700E00
700E00
600E00
E01C00
E01C00
000000
01E000
03E000
077000
0E7000
0C3000
ENDCHAR
STARTCHAR uni1E4C
ENCODING 7756
SWIDTH 778 0
DWIDTH 25 0
BBX 25 36 3 0
BITMAP
0003C000
00078000
000F0000
000E0000
001C0000
00000000
001E1000
003F7000
0077E000
0043C000
00000000
000FC000
007FF800
01FFFC00
03E03E00
07801F00
0F000F00
1E000780
3C000780
38000380
78000380
70000380
F0000380
F0000780
E0000780
E0000700
E0000F00
E0000E00
F0001E00
70003C00
78007800
7C00F800
3E03E000
1FFFC000
0FFF0000
01F80000
ENDCHAR
STARTCHAR uni1E4D
ENCODING 7757
SWIDTH 556 0
DWIDTH 19 0
BBX 16 30 3 0
BITMAP
003C
0078
00F0
00E0
01C0
0000
01E1
03F7
077E
043C
0000
0000
01F0
07FC
1FFE
3E1F
380F
7007
7007
F007
E007
E007
E00E
E00E
E01E
E03C
F078
7FF0
7FE0
1F80
ENDCHAR
STARTCHAR uni1E4E
ENCODING 7758
SWIDTH 778 0
DWIDTH 25 0
BBX 25 34 3 0
BITMAP
0079E000
0079E000
0079E000
00000000
001E1000
003F7000
0077E000
0043C000
00000000
000FC000
007FF800
01FFFC00
03E03E00
07801F00
0F000F00
1E000780
3C000780
38000380
78000380
70000380
F0000380
F0000780
E0000780
E0000700
E0000F00
E0000E00
F0001E00
70003C00
78007800
7C00F800
3E03E000
1FFFC000
0FFF0000
01F80000
ENDCHAR
STARTCHAR uni1E4F
ENCODING 7759
SWIDTH 556 0
DWIDTH 19 0
BBX 16 28 3 0
BITMAP
079E
079E
079E
0000
01E1
03F7
077E
043C
0000
0000
01F0
07FC
1FFE
3E1F
380F
7007
7007
F007
E007
E007
E00E
E00E
E01E
E03C
F078
7FF0
7FE0
1F80
ENDCHAR
STARTCHAR uni1E50
ENCODING 7760
SWIDTH 778 0
DWIDTH 25 0
BBX 25 34 3 0
BITMAP
001C0000
001E0000
000E0000
00070000
00030000
00000000
007FE000
007FE000
00000000
000FC000
007FF800
01FFFC00
03E03E00
07801F00
0F000F00
1E000780
3C000780
38000380
78000380
70000380
F0000380
F0000780
E0000780
E0000700
E0000F00
E0000E00
F0001E00
70003C00
78007800
7C00F800
3E03E000
1FFFC000
0FFF0000
01F80000
ENDCHAR
STARTCHAR uni1E51
ENCODING 7761
SWIDTH 556 0
DWIDTH 19 0
BBX 16 27 3 0
BITMAP
0700
0780
0380
01C0
00C0
0000
0FFC
0FFC
0000
01F0
07FC
1FFE
3E1F
380F
7007
7007
F007
E007
E007
E00E
E00E
E01E
E03C
F078
7FF0
7FE0
1F80
ENDCHAR
STARTCHAR uni1E52
ENCODING 7762
SWIDTH 778 0
DWIDTH 25 0
BBX 25 34 3 0
BITMAP
0003C000
00078000
000F0000
000E0000
001C0000
00000000
007FE000
007FE000
00000000
000FC000
007FF800
01FFFC00
03E03E00
07801F00
0F000F00
1E000780
3C000780
38000380
78000380
70000380
F0000380
F0000780
E0000780
E0000700
E0000F00
E0000E00
F0001E00
70003C00
78007800
7C00F800
3E03E000
1FFFC000
0FFF0000
01F80000
ENDCHAR
STARTCHAR uni1E53
ENCODING 7763
SWIDTH 556 0
DWIDTH 19 0
BBX 16 27 3 0
BITMAP
0078
00F0
01E0
01C0
0380
0000
0FFC
0FFC
0000
01F0
07FC
1FFE
3E1F
380F
7007
7007
F007
E007
E007
E00E
E00E
E01E
E03C
F078
7FF0
7FE0
1F80
ENDCHAR
STARTCHAR uni1E54
ENCODING 7764
SWIDTH 667 0
DWIDTH 22 0
BBX 21 31 3 0
BITMAP
000F00
001E00
003C00
003800
007000
000000
07FF80
07FFE0
07FFF0
0700F8
0E0078
0E0038
0E0038
0E0038
0E0078
1C0070
1C00F0
1C01E0
1FFFC0
3FFF80
3FFE00
380000
380000
380000
700000
700000
700000
700000
E00000
E00000
E00000
ENDCHAR
STARTCHAR uni1E55
ENCODING 7765
SWIDTH 556 0
DWIDTH 19 0
BBX 18 31 1 -7
BITMAP
001E00
003C00
007800
007000
00E000
000000
003E00
0EFF00
0FFF80
0F83C0
0F01C0
0E01C0
1E01C0
1C01C0
1C01C0
1C01C0
1C03C0
3C0380
3C0780
3C0700
3E1F00
3FFE00
77F800
73F000
700000
700000
600000
E00000
E00000
E00000
E00000
ENDCHAR
STARTCHAR uni1E56
ENCODING 7766
SWIDTH 667 0
DWIDTH 22 0
BBX 21 29 3 0
BITMAP
003C00
003C00
003C00
000000
07FF80
07FFE0
07FFF0
0700F8
0E0078
0E0038
0E0038
0E0038
0E0078
1C0070
1C00F0
1C01E0
1FFFC0
3FFF80
3FFE00
380000
380000
380000
700000
700000
700000
700000
E00000
E00000
E00000
ENDCHAR
STARTCHAR uni1E57
ENCODING 7767
SWIDTH 556 0
DWIDTH 19 0
BBX 18 29 1 -7
BITMAP
00F000
00F000
00F000
000000
003E00
0EFF00
0FFF80
0F83C0
0F01C0
0E01C0
1E01C0
1C01C0
1C01C0
1C01C0
1C03C0
3C0380
3C0780
3C0700
3E1F00
3FFE00
77F800
73F000
700000
700000
600000
E00000
E00000
E00000
E00000
ENDCHAR
STARTCHAR uni1E58
ENCODING 7768
SWIDTH 722 0
DWIDTH 24 0
BBX 23 29 3 0
BITMAP
001E00
001E00
001E00
000000
07FFE0
07FFF8
07FFFC
0F003E
0E001E
0E000E
0E000E
0E001E
1C001E
1C001C
1C003C
1C00F8
1FFFF0
3FFFE0
3FFFF0
3800F0
380078
780078
700078
700078
700070
E000F0
E000F0
E000F0
E000F8
ENDCHAR
STARTCHAR uni1E59
ENCODING 7769
SWIDTH 333 0
DWIDTH 11 0
BBX 12 22 2 0
BITMAP
0780
0780
0780
0000
1C70
1CF0
1DF0
1FC0
1F00
1E00
3C00
3800
3800
3800
7000
7000
7000
7000
7000
E000
E000
E000
ENDCHAR
STARTCHAR uni1E5A
ENCODING 7770
SWIDTH 722 0
DWIDTH 24 0
BBX 23 29 3 -4
BITMAP
07FFE0
07FFF8
07FFFC
0F003E
0E001E
0E000E
0E000E
0E001E
1C001E
1C001C
1C003C
1C00F8
1FFFF0
3FFFE0
3FFFF0
3800F0
380078
780078
700078
700078
700070
E000F0
E000F0
E000F0
E000F8
000000
007800
007800
007800
ENDCHAR
STARTCHAR uni1E5B
ENCODING 7771
SWIDTH 333 0
DWIDTH 11 0
BBX 12 22 2 -4
BITMAP
1C70
1CF0
1DF0
1FC0
1F00
1E00
3C00
3800
3800
3800
7000
7000
7000
7000
7000
E000
E000
E000
0000
7800
7800
7800
ENDCHAR
STARTCHAR uni1E5C
ENCODING 7772
SWIDTH 722 0
DWIDTH 24 0
BBX 23 32 3 -4
BITMAP
00FFC0
00FFC0
000000
07FFE0
07FFF8
07FFFC
0F003E
0E001E
0E000E
0E000E
0E001E
1C001E
1C001C
1C003C
1C00F8
1FFFF0
3FFFE0
3FFFF0
3800F0
380078
780078
700078
700078
700070
E000F0
E000F0
E000F0
E000F8
000000
007800
007800
007800
ENDCHAR
STARTCHAR uni1E5D
ENCODING 7773
SWIDTH 333 0
DWIDTH 11 0
BBX 12 25 2 -4
BITMAP
3FF0
3FF0
0000
1C70
1CF0
1DF0
1FC0
1F00
1E00
3C00
3800
3800
3800
7000
7000
7000
7000
7000
E000
E000
E000
0000
7800
7800
7800
ENDCHAR
STARTCHAR uni1E5E
ENCODING 7774
SWIDTH 722 0
DWIDTH 24 0
BBX 23 28 3 -3
BITMAP
07FFE0
07FFF8
07FFFC
0F003E
0E001E
0E000E
0E000E
0E001E
1C001E
1C001C
1C003C
1C00F8
1FFFF0
3FFFE0
3FFFF0
3800F0
380078
780078
700078
700078
700070
E000F0
E000F0
E000F0
E000F8
000000
03FF00
03FF00
ENDCHAR
STARTCHAR uni1E5F
ENCODING 7775
SWIDTH 333 0
DWIDTH 11 0
BBX 14 21 0 -3
BITMAP
071C
073C
077C
07F0
07C0
0780
0F00
0E00
0E00
0E00
1C00
1C00
1C00
1C00
1C00
3800
3800
3800
0000
FFC0
FFC0
ENDCHAR
STARTCHAR uni1E60
ENCODING 7776
SWIDTH 667 0
DWIDTH 22 0
BBX 21 29 3 0
BITMAP
003C00
003C00
003C00
000000
003F00
01FFE0
03FFF0
0780F8
0E0078
0E0038
1C0038
1C0038
1C0000
1F0000
0FE000
0FFE00
03FF80
007FE0
0007E0
0001F0
0000F0
E000F0
E000E0
E001E0
F003C0
FC07C0
7FFF00
3FFE00
07F000
ENDCHAR
STARTCHAR uni1E61
ENCODING 7777
SWIDTH 500 0
DWIDTH 17 0
BBX 15 22 2 0
BITMAP
03C0
03C0
03C0
0000
03F0
0FFC
1FFE
1C1E
380E
3800
3C00
3F00
1FE0
0FF8
01FC
003C
E01C
E01C
F038
FFF8
7FF0
1FC0
ENDCHAR
STARTCHAR uni1E62
ENCODING 7778
SWIDTH 667 0
DWIDTH 22 0
BBX 21 29 3 -4
BITMAP
003F00
01FFE0
03FFF0
0780F8
0E0078
0E0038
1C0038
1C0038
1C0000
1F0000
0FE000
0FFE00
03FF80
007FE0
0007E0
0001F0
0000F0
E000F0
E000E0
E001E0
F003C0
FC07C0
7FFF00
3FFE00
07F000
000000
01E000
01E000
01E000
ENDCHAR
STARTCHAR uni1E63
ENCODING 7779
SWIDTH 500 0
DWIDTH 17 0
BBX 15 22 2 -4
BITMAP
03F0
0FFC
1FFE
1C1E
380E
3800
3C00
3F00
1FE0
0FF8
01FC
003C
E01C
E01C
F038
FFF8
7FF0
1FC0
0000
0780
0780
0780
ENDCHAR
STARTCHAR uni1E64
ENCODING 7780
SWIDTH 667 0
DWIDTH 22 0
BBX 21 35 3 0
BITMAP
003C00
003C00
003C00
000000
000780
000F00
001E00
001C00
003800
000000
003F00
01FFE0
03FFF0
0780F8
0E0078
0E0038
1C0038
1C0038
1C0000
1F0000
0FE000
0FFE00
03FF80
007FE0
0007E0
0001F0
0000F0
E000F0
E000E0
E001E0
F003C0
FC07C0
7FFF00
3FFE00
07F000
ENDCHAR
STARTCHAR uni1E65
ENCODING 7781
SWIDTH 500 0
DWIDTH 17 0
BBX 15 28 2 0
BITMAP
01E0
01E0
01E0
0000
0078
00F0
01E0
01C0
0380
0000
03F0
0FFC
1FFE
1C1E
380E
3800
3C00
3F00
1FE0
0FF8
01FC
003C
E01C
E01C
F038
FFF8
7FF0
1FC0
ENDCHAR
STARTCHAR uni1E66
ENCODING 7782
SWIDTH 667 0
DWIDTH 22 0
BBX 21 31 3 0
BITMAP
001E00
001E00
001E00
000000
003860
0018E0
001DC0
000F80
000F00
000000
000000
003F00
01FFE0
03FFF0
0780F8
0E0078
1E0038
1FE000
0FFF80
07FFE0
01FFE0
0001F0
0000F0
E000F0
E000E0
E001E0
F003C0
FC07C0
7FFF00
3FFE00
07F000
ENDCHAR
STARTCHAR uni1E67
ENCODING 7783
SWIDTH 500 0
DWIDTH 17 0
BBX 15 29 2 0
BITMAP
00F0
00F0
00F0
0000
0386
018E
01DC
00F8
00F0
0000
0000
01F0
0FFC
1FFE
1C1E
380E
3800
3800
3F00
3FE0
0FF8
01FC
003C
E01C
E01C
E038
F0F8
FFF0
3FC0
ENDCHAR
STARTCHAR uni1E68
ENCODING 7784
SWIDTH 667 0
DWIDTH 22 0
BBX 21 33 3 -4
BITMAP
003C00
003C00
003C00
000000
003F00
01FFE0
03FFF0
0780F8
0E0078
0E0038
1C0038
1C0038
1C0000
1F0000
0FE000
0FFE00
03FF80
007FE0
0007E0
0001F0
0000F0
E000F0
E000E0
E001E0
F003C0
FC07C0
7FFF00
3FFE00
07F000
000000
01E000
01E000
01E000
ENDCHAR
STARTCHAR uni1E69
ENCODING 7785
SWIDTH 500 0
DWIDTH 17 0
BBX 15 26 2 -4
BITMAP
03C0
03C0
03C0
0000
03F0
0FFC
1FFE
1C1E
380E
3800
3C00
3F00
1FE0
0FF8
01FC
003C
E01C
E01C
F038
FFF8
7FF0
1FC0
0000
0780
0780
0780
ENDCHAR
STARTCHAR uni1E6A
ENCODING 7786
SWIDTH 611 0
DWIDTH 20 0
BBX 19 29 6 0
BITMAP
01E000
01E000
01E000
000000
7FFFE0
FFFFE0
FFFFC0
01E000
01E000
01C000
01C000
01C000
03C000
038000
038000
038000
038000
078000
070000
070000
070000
0F0000
0F0000
0E0000
0E0000
0E0000
1E0000
1C0000
1C0000
ENDCHAR
STARTCHAR uni1E6B
ENCODING 7787
SWIDTH 278 0
DWIDTH 9 0
BBX 8 26 4 0
BITMAP
3C
3C
3C
00
1C
1C
1C
1C
7F
FF
FE
38
38
38
70
70
70
70
70
E0
E0
E0
E0
F8
F8
70
ENDCHAR
STARTCHAR uni1E6C
ENCODING 7788
SWIDTH 611 0
DWIDTH 20 0
BBX 19 29 6 -4
BITMAP
7FFFE0
FFFFE0
FFFFC0
01E000
01E000
01C000
01C000
01C000
03C000
038000
038000
038000
038000
078000
070000
070000
070000
0F0000
0F0000
0E0000
0E0000
0E0000
1E0000
1C0000
1C0000
000000
078000
078000
078000
ENDCHAR
STARTCHAR uni1E6D
ENCODING 7789
SWIDTH 278 0
DWIDTH 9 0
BBX 8 26 4 -4
BITMAP
1C
1C
1C
1C
7F
FF
FE
38
38
38
70
70
70
70
70
E0
E0
E0
E0
F8
F8
70
00
78
78
78
ENDCHAR
STARTCHAR uni1E6E
ENCODING 7790
SWIDTH 611 0
DWIDTH 20 0
BBX 19 28 6 -3
BITMAP
7FFFE0
FFFFE0
FFFFC0
01E000
01E000
01C000
01C000
01C000
03C000
038000
038000
038000
038000
078000
070000
070000
070000
0F0000
0F0000
0E0000
0E0000
0E0000
1E0000
1C0000
1C0000
000000
3FF000
3FF000
ENDCHAR
STARTCHAR uni1E6F
ENCODING 7791
SWIDTH 278 0
DWIDTH 9 0
BBX 10 25 2 -3
BITMAP
0700
0700
0700
0700
1FC0
3FC0
3F80
0E00
0E00
0E00
1C00
1C00
1C00
1C00
1C00
3800
3800
3800
3800
3E00
3E00
1C00
0000
FFC0
FFC0
ENDCHAR
STARTCHAR uni1E70
ENCODING 7792
SWIDTH 611 0
DWIDTH 20 0
BBX 19 31 6 -6
BITMAP
7FFFE0
FFFFE0
FFFFC0
01E000
01E000
01C000
01C000
01C000
03C000
038000
038000
038000
038000
078000
070000
070000
070000
0F0000
0F0000
0E0000
0E0000
0E0000
1E0000
1C0000
1C0000
000000
078000
0F8000
1DC000
39C000
30C000
ENDCHAR
STARTCHAR uni1E71
ENCODING 7793
SWIDTH 278 0
DWIDTH 9 0
BBX 10 28 2 -6
BITMAP
0700
0700
0700
0700
1FC0
3FC0
3F80
0E00
0E00
0E00
1C00
1C00
1C00
1C00
1C00
3800
3800
3800
3800
3E00
3E00
1C00
0000
1E00
3E00
7700
E700
C300
ENDCHAR
STARTCHAR uni1E72
ENCODING 7794
SWIDTH 722 0
DWIDTH 24 0
BBX 22 29 4 -4
BITMAP
0E001C
0E001C
0E001C
1E003C
1C003C
1C0038
1C0038
1C0038
3C0078
380070
380070
380070
380070
7800F0
7000E0
7000E0
F000E0
F001E0
F001C0
7003C0
780780
7C0F00
3FFE00
1FFC00
07E000
000000
0F3C00
0F3C00
0F3C00
ENDCHAR
STARTCHAR uni1E73
ENCODING 7795
SWIDTH 556 0
DWIDTH 19 0
BBX 17 22 3 -4
BITMAP
1C0380
1C0380
380700
380700
380700
380700
700F00
700E00
700E00
700E00
700E00
E01E00
E01C00
E03C00
F0FC00
FFFC00
7F9C00
3E1C00
000000
1E7800
1E7800
1E7800
ENDCHAR
STARTCHAR uni1E74
ENCODING 7796
SWIDTH 722 0
DWIDTH 24 0
BBX 22 30 4 -5
BITMAP
0E001C
0E001C
0E001C
1E003C
1C003C
1C0038
1C0038
1C0038
3C0078
380070
380070
380070
380070
7800F0
7000E0
7000E0
F000E0
F001E0
F001C0
7003C0
780780
7C0F00
3FFE00
1FFC00
07E000
000000
03C200
07EE00
0EFC00
087800
ENDCHAR
STARTCHAR uni1E75
ENCODING 7797
SWIDTH 556 0
DWIDTH 19 0
BBX 17 23 3 -5
BITMAP
1C0380
1C0380
380700
380700
380700
380700
700F00
700E00
700E00
700E00
700E00
E01E00
E01C00
E03C00
F0FC00
FFFC00
7F9C00
3E1C00
000000
0F0800
1FB800
3BF000
21E000
ENDCHAR
STARTCHAR uni1E76
ENCODING 7798
SWIDTH 722 0
DWIDTH 24 0
BBX 22 31 4 -6
BITMAP
0E001C
0E001C
0E001C
1E003C
1C003C
1C0038
1C0038
1C0038
3C0078
380070
380070
380070
380070
7800F0
7000E0
7000E0
F000E0
F001E0
F001C0
7003C0
780780
7C0F00
3FFE00
1FFC00
07E000
000000
00F000
01F000
03B800
073800
061800
ENDCHAR
STARTCHAR uni1E77
ENCODING 7799
SWIDTH 556 0
DWIDTH 19 0
BBX 17 24 3 -6
BITMAP
1C0380
1C0380
380700
380700
380700
380700
700F00
700E00
700E00
700E00
700E00
E01E00
E01C00
E03C00
F0FC00
FFFC00
7F9C00
3E1C00
000000
03C000
07C000
0EE000
1CE000
186000
ENDCHAR
STARTCHAR uni1E78
ENCODING 7800
SWIDTH 722 0
DWIDTH 24 0
BBX 22 36 4 0
BITMAP
000780
000F00
001E00
001C00
003800
000000
007840
00FDC0
01DF80
010F00
000000
0E001C
0E001C
0E001C
1E003C
1C003C
1C0038
1C0038
1C0038
3C0078
380070
380070
380070
380070
7800F0
7000E0
7000E0
F000E0
F001E0
F001C0
7003C0
780780
7C0F00
3FFE00
1FFC00
07E000
ENDCHAR
STARTCHAR uni1E79
ENCODING 7801
SWIDTH 556 0
DWIDTH 19 0
BBX 17 29 3 0
BITMAP
003C00
007800
00F000
00E000
01C000
000000
03C200
07EE00
0EFC00
087800
000000
1C0380
1C0380
380700
380700
380700
380700
700F00
700E00
700E00
700E00
700E00
E01E00
E01C00
E03C00
F0FC00
FFFC00
7F9C00
3E1C00
ENDCHAR
STARTCHAR uni1E7A
ENCODING 7802
SWIDTH 722 0
DWIDTH 24 0
BBX 22 32 4 0
BITMAP
01E780
01E780
01E780
000000
01FF80
01FF80
000000
0E001C
0E001C
0E001C
1E003C
1C003C
1C0038
1C0038
1C0038
3C0078
380070
380070
380070
380070
7800F0
7000E0
7000E0
F000E0
F001E0
F001C0
7003C0
780780
7C0F00
3FFE00
1FFC00
07E000
ENDCHAR
STARTCHAR uni1E7B
ENCODING 7803
SWIDTH 556 0
DWIDTH 19 0
BBX 17 25 3 0
BITMAP
0F3C00
0F3C00
0F3C00
000000
0FFC00
0FFC00
000000
1C0380
1C0380
380700
380700
380700
380700
700F00
700E00
700E00
700E00
700E00
E01E00
E01C00
E03C00
F0FC00
FFFC00
7F9C00
3E1C00
ENDCHAR
STARTCHAR uni1E7C
ENCODING 7804
SWIDTH 667 0
DWIDTH 22 0
BBX 20 30 7 0
BITMAP
03C200
07EE00
0EFC00
087800
000000
E000F0
E000E0
E001E0
E001C0
E003C0
F00380
F00780
F00700
700E00
700E00
701C00
703C00
703800
787800
787000
38F000
38E000
39C000
39C000
3B8000
3B8000
3F0000
3F0000
1E0000
1E0000
ENDCHAR
STARTCHAR uni1E7D
ENCODING 7805
SWIDTH 500 0
DWIDTH 17 0
BBX 15 23 4 0
BITMAP
0F08
1FB8
3BF0
21E0
0000
E00E
E00E
E01C
E01C
E038
E070
E070
60E0
70E0
71C0
7380
7380
7700
7700
7E00
3E00
3C00
3800
ENDCHAR
STARTCHAR uni1E7E
ENCODING 7806
SWIDTH 667 0
DWIDTH 22 0
BBX 20 29 7 -4
BITMAP
E000F0
E000E0
E001E0
E001C0
E003C0
F00380
F00780
F00700
700E00
700E00
701C00
703C00
703800
787800
787000
38F000
38E000
39C000
39C000
3B8000
3B8000
3F0000
3F0000
1E0000
1E0000
000000
078000
078000
078000
ENDCHAR
STARTCHAR uni1E7F
ENCODING 7807
SWIDTH 500 0
DWIDTH 17 0
BBX 15 22 4 -4
BITMAP
E00E
E00E
E01C
E01C
E038
E070
E070
60E0
70E0
71C0
7380
7380
7700
7700
7E00
3E00
3C00
3800
0000
1E00
1E00
1E00
ENDCHAR
STARTCHAR Wgrave
ENCODING 7808
SWIDTH 944 0
DWIDTH 31 0
BBX 31 31 6 0
BITMAP
000E0000
000F0000
00070000
00038000
00018000
00000000
E007801E
E007801C
E00F803C
E00F8038
E01F8078
E01F8070
E03BC0F0
F03BC0E0
F073C1E0
F071C1C0
F0F1C1C0
F0E1C3C0
71E1C380
71C1C780
73C1C700
7381CF00
7781CE00
7701DE00
7F01DC00
7E01DC00
7E01F800
7C01F800
7C00F000
7800F000
7800F000
ENDCHAR
STARTCHAR wgrave
ENCODING 7809
SWIDTH 722 0
DWIDTH 24 0
BBX 23 24 4 0
BITMAP
00E000
00F000
007000
003800
001800
000000
E0380E
E0781E
E0781C
E0F838
E0F838
E1F870
E1B870
E3B8E0
E3B8E0
E739C0
E719C0
EE1B80
6E1B80
7C1F00
7C1F00
781E00
781E00
701C00
ENDCHAR
STARTCHAR Wacute
ENCODING 7810
SWIDTH 944 0
DWIDTH 31 0
BBX 31 31 6 0
BITMAP
0000F000
0001E000
0003C000
00038000
00070000
00000000
E007801E
E007801C
E00F803C
E00F8038
E01F8078
E01F8070
E03BC0F0
F03BC0E0
F073C1E0
F071C1C0
F0F1C1C0
F0E1C3C0
71E1C380
71C1C780
73C1C700
7381CF00
7781CE00
7701DE00
7F01DC00
7E01DC00
7E01F800
7C01F800
7C00F000
7800F000
7800F000
ENDCHAR
STARTCHAR wacute
ENCODING 7811
SWIDTH 722 0
DWIDTH 24 0
BBX 23 24 4 0
BITMAP
000F00
001E00
003C00
003800
007000
000000
E0380E
E0781E
E0781C
E0F838
E0F838
E1F870
E1B870
E3B8E0
E3B8E0
E739C0
E719C0
EE1B80
6E1B80
7C1F00
7C1F00
781E00
781E00
701C00
ENDCHAR
STARTCHAR Wdieresis
ENCODING 7812
SWIDTH 944 0
DWIDTH 31 0
BBX 31 29 6 0
BITMAP
003CF000
003CF000
003CF000
00000000
E007801E
E007801C
E00F803C
E00F8038
E01F8078
E01F8070
E03BC0F0
F03BC0E0
F073C1E0
F071C1C0
F0F1C1C0
F0E1C3C0
71E1C380
71C1C780
73C1C700
7381CF00
7781CE00
7701DE00
7F01DC00
7E01DC00
7E01F800
7C01F800
7C00F000
7800F000
7800F000
ENDCHAR
STARTCHAR wdieresis
ENCODING 7813
SWIDTH 722 0
DWIDTH 24 0
BBX 23 22 4 0
BITMAP
03CF00
03CF00
03CF00
000000
E0380E
E0781E
E0781C
E0F838
E0F838
E1F870
E1B870
E3B8E0
E3B8E0
E739C0
E719C0
EE1B80
6E1B80
7C1F00
7C1F00
781E00
781E00
701C00
ENDCHAR
STARTCHAR uni1E86
ENCODING 7814
SWIDTH 944 0
DWIDTH 31 0
BBX 31 29 6 0
BITMAP
00078000
00078000
00078000
00000000
E007801E
E007801C
E00F803C
E00F8038
E01F8078
E01F8070
E03BC0F0
F03BC0E0
F073C1E0
F071C1C0
F0F1C1C0
F0E1C3C0
71E1C380
71C1C780
73C1C700
7381CF00
7781CE00
7701DE00
7F01DC00
7E01DC00
7E01F800
7C01F800
7C00F000
7800F000
7800F000
ENDCHAR
STARTCHAR uni1E87
ENCODING 7815
SWIDTH 722 0
DWIDTH 24 0
BBX 23 22 4 0
BITMAP
007800
007800
007800
000000
E0380E
E0781E
E0781C
E0F838
E0F838
E1F870
E1B870
E3B8E0
E3B8E0
E739C0
E719C0
EE1B80
6E1B80
7C1F00
7C1F00
781E00
781E00
701C00
ENDCHAR
STARTCHAR uni1E88
ENCODING 7816
SWIDTH 944 0
DWIDTH 31 0
BBX 31 29 6 -4
BITMAP
E007801E
E007801C
E00F803C
E00F8038
E01F8078
E01F8070
E03BC0F0
F03BC0E0
F073C1E0
F071C1C0
F0F1C1C0
F0E1C3C0
71E1C380
71C1C780
73C1C700
7381CF00
7781CE00
7701DE00
7F01DC00
7E01DC00
7E01F800
7C01F800
7C00F000
7800F000
7800F000
00000000
003C0000
003C0000
003C0000
ENDCHAR
STARTCHAR uni1E89
ENCODING 7817
SWIDTH 722 0
DWIDTH 24 0
BBX 23 22 4 -4
BITMAP
E0380E
E0781E
E0781C
E0F838
E0F838
E1F870
E1B870
E3B8E0
E3B8E0
E739C0
E719C0
EE1B80
6E1B80
7C1F00
7C1F00
781E00
781E00
701C00
000000
01E000
01E000
01E000
ENDCHAR
STARTCHAR uni1E8A
ENCODING 7818
SWIDTH 667 0
DWIDTH 22 0
BBX 25 29 1 0
BITMAP
000F0000
000F0000
000F0000
00000000
07800780
07800F00
03C01E00
03C03C00
01E03C00
00E07800
00F0F000
00F1E000
007BC000
007F8000
003F0000
001E0000
001E0000
003E0000
007F0000
00F70000
01E78000
03C78000
07838000
0F03C000
1E01C000
1C01E000
3C00E000
7800F000
F000F000
ENDCHAR
STARTCHAR uni1E8B
ENCODING 7819
SWIDTH 500 0
DWIDTH 17 0
BBX 18 22 2 0
BITMAP
00F000
00F000
00F000
000000
0E01C0
0F03C0
070780
078F00
039E00
03FC00
01F800
01F000
00E000
01E000
03F000
07F000
0F7800
1E3800
3C3C00
781C00
F01E00
E00E00
ENDCHAR
STARTCHAR uni1E8C
ENCODING 7820
SWIDTH 667 0
DWIDTH 22 0
BBX 25 29 1 0
BITMAP
0079E000
0079E000
0079E000
00000000
07800780
07800F00
03C01E00
03C03C00
01E03C00
00E07800
00F0F000
00F1E000
007BC000
007F8000
003F0000
001E0000
001E0000
003E0000
007F0000
00F70000
01E78000
03C78000
07838000
0F03C000
1E01C000
1C01E000
3C00E000
7800F000
F000F000
ENDCHAR
STARTCHAR uni1E8D
ENCODING 7821
SWIDTH 500 0
DWIDTH 17 0
BBX 18 22 2 0
BITMAP
079E00
079E00
079E00
000000
0E01C0
0F03C0
070780
078F00
039E00
03FC00
01F800
01F000
00E000
01E000
03F000
07F000
0F7800
1E3800
3C3C00
781C00
F01E00
E00E00
ENDCHAR
STARTCHAR uni1E8E
ENCODING 7822
SWIDTH 667 0
DWIDTH 22 0
BBX 22 29 6 0
BITMAP
007800
007800
007800
000000
F0007C
F000F8
7800F0
7801E0
3803C0
3C0780
3C0700
1E0F00
1E1E00
0E3C00
0F7800
0F7000
07E000
07E000
03C000
038000
038000
078000
078000
070000
070000
070000
0F0000
0E0000
0E0000
ENDCHAR
STARTCHAR uni1E8F
ENCODING 7823
SWIDTH 500 0
DWIDTH 17 0
BBX 19 29 0 -7
BITMAP
00F000
00F000
00F000
000000
0E00E0
0E01E0
0E01C0
0F0380
0F0380
070700
070700
070E00
071E00
071C00
073800
07B800
07F000
07F000
03E000
03C000
03C000
038000
038000
070000
0F0000
0E0000
FC0000
F80000
F00000
ENDCHAR
STARTCHAR uni1E90
ENCODING 7824
SWIDTH 611 0
DWIDTH 20 0
BBX 23 31 1 0
BITMAP
000780
000F80
001DC0
0039C0
0030C0
000000
01FFFE
03FFFE
03FFFE
00001E
00003C
000078
0000F0
0001E0
0003C0
000780
000F00
001E00
003C00
007800
00F000
01E000
03C000
078000
0F0000
1E0000
3C0000
780000
FFFFE0
FFFFE0
FFFFC0
ENDCHAR
STARTCHAR uni1E91
ENCODING 7825
SWIDTH 500 0
DWIDTH 17 0
BBX 16 24 2 0
BITMAP
00F0
01F0
03B8
0738
0618
0000
1FFF
1FFF
1FFF
000F
001E
003C
0078
00F0
01E0
03C0
0780
0F00
1E00
3C00
7800
FFFC
FFFC
FFFC
ENDCHAR
STARTCHAR uni1E92
ENCODING 7826
SWIDTH 611 0
DWIDTH 20 0
BBX 23 29 1 -4
BITMAP
01FFFE
03FFFE
03FFFE
00001E
00003C
000078
0000F0
0001E0
0003C0
000780
000F00
001E00
003C00
007800
00F000
01E000
03C000
078000
0F0000
1E0000
3C0000
780000
FFFFE0
FFFFE0
FFFFC0
000000
01E000
01E000
01E000
ENDCHAR
STARTCHAR uni1E93
ENCODING 7827
SWIDTH 500 0
DWIDTH 17 0
BBX 16 22 2 -4
BITMAP
1FFF
1FFF
1FFF
000F
001E
003C
0078
00F0
01E0
03C0
0780
0F00
1E00
3C00
7800
FFFC
FFFC
FFFC
0000
0780
0780
0780
ENDCHAR
STARTCHAR uni1E94
ENCODING 7828
SWIDTH 611 0
DWIDTH 20 0
BBX 23 28 1 -3
BITMAP
01FFFE
03FFFE
03FFFE
00001E
00003C
000078
0000F0
0001E0
0003C0
000780
000F00
001E00
003C00
007800
00F000
01E000
03C000
078000
0F0000
1E0000
3C0000
780000
FFFFE0
FFFFE0
FFFFC0
000000
0FFC00
0FFC00
ENDCHAR
STARTCHAR uni1E95
ENCODING 7829
SWIDTH 500 0
DWIDTH 17 0
BBX 16 21 2 -3
BITMAP
1FFF
1FFF
1FFF
000F
001E
003C
0078
00F0
01E0
03C0
0780
0F00
1E00
3C00
7800
FFFC
FFFC
FFFC
0000
3FF0
3FF0
ENDCHAR
STARTCHAR uni1E96
ENCODING 7830
SWIDTH 556 0
DWIDTH 18 0
BBX 17 28 2 -3
BITMAP
070000
070000
070000
070000
0E0000
0E0000
0E0000
0E3C00
0CFF00
1FFF80
1F0780
1E0380
1C0380
380700
380700
380700
380700
380700
700E00
700E00
700E00
700E00
E01C00
E01C00
E01C00
000000
1FF800
1FF800
ENDCHAR
STARTCHAR uni1E97
ENCODING 7831
SWIDTH 278 0
DWIDTH 9 0
BBX 10 26 3 0
BITMAP
F3C0
F3C0
F3C0
0000
0E00
0E00
0E00
0E00
3F80
7F80
7F00
1C00
1C00
1C00
3800
3800
3800
3800
3800
7000
7000
7000
7000
7C00
7C00
3800
ENDCHAR
STARTCHAR uni1E98
ENCODING 7832
SWIDTH 722 0
DWIDTH 24 0
BBX 23 25 4 0
BITMAP
003800
006C00
004400
00CC00
005800
007000
000000
E0380E
E0781E
E0781C
E0F838
E0F838
E1F870
E1B870
E3B8E0
E3B8E0
E739C0
E719C0
EE1B80
6E1B80
7C1F00
7C1F00
781E00
781E00
701C00
ENDCHAR
STARTCHAR uni1E99
ENCODING 7833
SWIDTH 500 0
DWIDTH 17 0
BBX 19 32 0 -7
BITMAP
007000
00D800
008800
019800
00B000
00E000
000000
0E00E0
0E01E0
0E01C0
0F0380
0F0380
070700
070700
070E00
071E00
071C00
073800
07B800
07F000
07F000
03E000
03C000
03C000
038000
038000
070000
0F0000
0E0000
FC0000
F80000
F00000
ENDCHAR
STARTCHAR uni1EA0
ENCODING 7840
SWIDTH 667 0
DWIDTH 22 0
BBX 20 29 1 -4
BITMAP
000780
000F80
000F80
001FC0
001DC0
003DC0
0039C0
0079C0
00F1C0
00E1C0
01E0E0
01C0E0
03C0E0
0380E0
0780E0
0FFFE0
0FFFF0
1FFFF0
1C0070
3C0070
380070
780070
700070
F00070
E00070
000000
00F000
00F000
00F000
ENDCHAR
STARTCHAR uni1EA1
ENCODING 7841
SWIDTH 556 0
DWIDTH 18 0
BBX 17 22 2 -4
BITMAP
01FE00
07FF00
0F9F80
1C0380
1C0380
000380
000700
007F00
0FFF00
3FC700
7C0700
700E00
E00E00
E01E00
E03E00
F1FE00
7FCF00
3F8F00
000000
03C000
03C000
03C000
ENDCHAR
STARTCHAR uni1EA4
ENCODING 7844
SWIDTH 667 0
DWIDTH 22 0
BBX 20 37 1 0
BITMAP
0003C0
000780
000F00
000E00
001C00
000000
0003C0
0007C0
000EE0
001CE0
003870
000000
000780
000F80
000F80
001FC0
001DC0
003DC0
0039C0
0079C0
00F1C0
00E1C0
01E0E0
01C0E0
03C0E0
0380E0
0780E0
0FFFE0
0FFFF0
1FFFF0
1C0070
3C0070
380070
780070
700070
F00070
E00070
ENDCHAR
STARTCHAR uni1EA5
ENCODING 7845
SWIDTH 556 0
DWIDTH 18 0
BBX 17 31 2 0
BITMAP
001E00
003C00
007800
007000
00E000
000000
003C00
007C00
00EE00
01CE00
038700
000000
000000
01FE00
07FF80
0F9F80
1C0380
1C0380
000380
000700
003F00
0FFF00
3FE700
7C0700
700E00
E00E00
E01E00
E03E00
F1FE00
7FCF00
3F8F00
ENDCHAR
STARTCHAR uni1EA6
ENCODING 7846
SWIDTH 667 0
DWIDTH 22 0
BBX 20 37 1 0
BITMAP
003800
003C00
001C00
000E00
000600
000000
0003C0
0007C0
000EE0
001CE0
003870
000000
000780
000F80
000F80
001FC0
001DC0
003DC0
0039C0
0079C0
00F1C0
00E1C0
01E0E0
01C0E0
03C0E0
0380E0
0780E0
0FFFE0
0FFFF0
1FFFF0
1C0070
3C0070
380070
780070
700070
F00070
E00070
ENDCHAR
STARTCHAR uni1EA7
ENCODING 7847
SWIDTH 556 0
DWIDTH 18 0
BBX 17 31 2 0
BITMAP
01C000
01E000
00E000
007000
003000
000000
003C00
007C00
00EE00
01CE00
038700
000000
000000
01FE00
07FF80
0F9F80
1C0380
1C0380
000380
000700
003F00
0FFF00
3FE700
7C0700
700E00
E00E00
E01E00
E03E00
F1FE00
7FCF00
3F8F00
ENDCHAR
STARTCHAR uni1EAA
ENCODING 7850
SWIDTH 667 0
DWIDTH 22 0
BBX 20 36 1 0
BITMAP
003C20
007EE0
00EFC0
008780
000000
0003C0
0007C0
000EE0
001CE0
003870
000000
000780
000F80
000F80
001FC0
001DC0
003DC0
0039C0
0079C0
00F1C0
00E1C0
01E0E0
01C0E0
03C0E0
0380E0
0780E0
0FFFE0
0FFFF0
1FFFF0
1C0070
3C0070
380070
780070
700070
F00070
E00070
ENDCHAR
STARTCHAR uni1EAB
ENCODING 7851
SWIDTH 556 0
DWIDTH 18 0
BBX 17 30 2 0
BITMAP
01E100
03F700
077E00
043C00
000000
003C00
007C00
00EE00
01CE00
038700
000000
000000
01FE00
07FF80
0F9F80
1C0380
1C0380
000380
000700
003F00
0FFF00
3FE700
7C0700
700E00
E00E00
E01E00
E03E00
F1FE00
7FCF00
3F8F00
ENDCHAR
STARTCHAR uni1EAC
ENCODING 7852
SWIDTH 667 0
DWIDTH 22 0
BBX 20 35 1 -4
BITMAP
000F00
001F00
003B80
007380
006180
000000
000780
000F80
000F80
001FC0
001DC0
003DC0
0039C0
0079C0
00F1C0
00E1C0
01E0E0
01C0E0
03C0E0
0380E0
0780E0
0FFFE0
0FFFF0
1FFFF0
1C0070
3C0070
380070
780070
700070
F00070
E00070
000000
00F000
00F000
00F000
ENDCHAR
STARTCHAR uni1EAD
ENCODING 7853
SWIDTH 556 0
DWIDTH 18 0
BBX 17 28 2 -4
BITMAP
007800
00F800
01DC00
039C00
030C00
000000
01FE00
07FF00
0F9F80
1C0380
1C0380
000380
000700
007F00
0FFF00
3FC700
7C0700
700E00
E00E00
E01E00
E03E00
F1FE00
7FCF00
3F8F00
000000
03C000
03C000
03C000
ENDCHAR
STARTCHAR uni1EAE
ENCODING 7854
SWIDTH 667 0
DWIDTH 22 0
BBX 20 36 1 0
BITMAP
000780
000F00
001E00
001C00
003800
000000
008080
00E380
007F00
003E00
000000
000780
000F80
000F80
001FC0
001DC0
003DC0
0039C0
0079C0
00F1C0
00E1C0
01E0E0
01C0E0
03C0E0
0380E0
0780E0
0FFFE0
0FFFF0
1FFFF0
1C0070
3C0070
380070
780070
700070
F00070
E00070
ENDCHAR
STARTCHAR uni1EAF
ENCODING 7855
SWIDTH 556 0
DWIDTH 18 0
BBX 17 29 2 0
BITMAP
003C00
007800
00F000
00E000
01C000
000000
040400
071C00
03F800
01F000
000000
01FE00
07FF00
0F9F80
1C0380
1C0380
000380
000700
007F00
0FFF00
3FC700
7C0700
700E00
E00E00
E01E00
E03E00
F1FE00
7FCF00
3F8F00
ENDCHAR
STARTCHAR uni1EB0
ENCODING 7856
SWIDTH 667 0
DWIDTH 22 0
BBX 20 36 1 0
BITMAP
007000
007800
003800
001C00
000C00
000000
008080
00E380
007F00
003E00
000000
000780
000F80
000F80
001FC0
001DC0
003DC0
0039C0
0079C0
00F1C0
00E1C0
01E0E0
01C0E0
03C0E0
0380E0
0780E0
0FFFE0
0FFFF0
1FFFF0
1C0070
3C0070
380070
780070
700070
F00070
E00070
ENDCHAR
STARTCHAR uni1EB1
ENCODING 7857
SWIDTH 556 0
DWIDTH 18 0
BBX 17 29 2 0
BITMAP
038000
03C000
01C000
00E000
006000
000000
040400
071C00
03F800
01F000
000000
01FE00
07FF00
0F9F80
1C0380
1C0380
000380
000700
007F00
0FFF00
3FC700
7C0700
700E00
E00E00
E01E00
E03E00
F1FE00
7FCF00
3F8F00
ENDCHAR
STARTCHAR uni1EB4
ENCODING 7860
SWIDTH 667 0
DWIDTH 22 0
BBX 20 35 1 0
BITMAP
007840
00FDC0
01DF80
010F00
000000
008080
00E380
007F00
003E00
000000
000780
000F80
000F80
001FC0
001DC0
003DC0
0039C0
0079C0
00F1C0
00E1C0
01E0E0
01C0E0
03C0E0
0380E0
0780E0
0FFFE0
0FFFF0
1FFFF0
1C0070
3C0070
380070
780070
700070
F00070
E00070
ENDCHAR
STARTCHAR uni1EB5
ENCODING 7861
SWIDTH 556 0
DWIDTH 18 0
BBX 17 28 2 0
BITMAP
03C200
07EE00
0EFC00
087800
000000
040400
071C00
03F800
01F000
000000
01FE00
07FF00
0F9F80
1C0380
1C0380
000380
000700
007F00
0FFF00
3FC700
7C0700
700E00
E00E00
E01E00
E03E00
F1FE00
7FCF00
3F8F00
ENDCHAR
STARTCHAR uni1EB6
ENCODING 7862
SWIDTH 667 0
DWIDTH 22 0
BBX 20 34 1 -4
BITMAP
008080
00E380
007F00
003E00
000000
000780
000F80
000F80
001FC0
001DC0
003DC0
0039C0
0079C0
00F1C0
00E1C0
01E0E0
01C0E0
03C0E0
0380E0
0780E0
0FFFE0
0FFFF0
1FFFF0
1C0070
3C0070
380070
780070
700070
F00070
E00070
000000
00F000
00F000
00F000
ENDCHAR
STARTCHAR uni1EB7
ENCODING 7863
SWIDTH 556 0
DWIDTH 18 0
BBX 17 27 2 -4
BITMAP
020200
038E00
01FC00
00F800
000000
01FE00
07FF00
0F9F80
1C0380
1C0380
000380
000700
007F00
0FFF00
3FC700
7C0700
700E00
E00E00
E01E00
E03E00
F1FE00
7FCF00
3F8F00
000000
03C000
03C000
03C000
ENDCHAR
STARTCHAR uni1EB8
ENCODING 7864
SWIDTH 667 0
DWIDTH 22 0
BBX 22 29 3 -4
BITMAP
07FFFC
07FFFC
07FFF8
070000
0F0000
0E0000
0E0000
0E0000
1C0000
1C0000
1C0000
1FFFE0
1FFFE0
3FFFC0
380000
380000
380000
780000
700000
700000
700000
700000
FFFFC0
FFFFC0
FFFF80
000000
01E000
01E000
01E000
ENDCHAR
STARTCHAR uni1EB9
ENCODING 7865
SWIDTH 556 0
DWIDTH 18 0
BBX 16 22 3 -4
BITMAP
01F8
07FE
1FFE
3E0F
3807
7007
7007
FFFF
FFFF
FFFF
E000
E000
E00E
F01E
787C
7FF8
3FF0
0FC0
0000
0780
0780
0780
ENDCHAR
STARTCHAR uni1EBC
ENCODING 7868
SWIDTH 667 0
DWIDTH 22 0
BBX 22 30 3 0
BITMAP
00F080
01FB80
03BF00
021E00
000000
07FFFC
07FFFC
07FFF8
070000
0F0000
0E0000
0E0000
0E0000
1C0000
1C0000
1C0000
1FFFE0
1FFFE0
3FFFC0
380000
380000
380000
780000
700000
700000
700000
700000
FFFFC0
FFFFC0
FFFF80
ENDCHAR
STARTCHAR uni1EBD
ENCODING 7869
SWIDTH 556 0
DWIDTH 18 0
BBX 16 23 3 0
BITMAP
0784
0FDC
1DF8
10F0
0000
01F8
07FE
1FFE
3E0F
3807
7007
7007
FFFF
FFFF
FFFF
E000
E000
E00E
F01E
787C
7FF8
3FF0
0FC0
ENDCHAR
STARTCHAR uni1EBE
ENCODING 7870
SWIDTH 667 0
DWIDTH 22 0
BBX 22 37 3 0
BITMAP
000780
000F00
001E00
001C00
003800
000000
000700
000F80
001DC0
0039C0
0070E0
000000
07FFFC
07FFFC
07FFF8
070000
0F0000
0E0000
0E0000
0E0000
1C0000
1C0000
1C0000
1FFFE0
1FFFE0
3FFFC0
380000
380000
380000
780000
700000
700000
700000
700000
FFFFC0
FFFFC0
FFFF80
ENDCHAR
STARTCHAR uni1EBF
ENCODING 7871
SWIDTH 556 0
DWIDTH 18 0
BBX 16 30 3 0
BITMAP
001E
003C
0078
0070
00E0
0000
003C
007C
00EE
01CE
0387
0000
01F8
07FE
1FFE
3E0F
3807
7007
7007
FFFF
FFFF
FFFF
E000
E000
E00E
F01E
787C
7FF8
3FF0
0FC0
ENDCHAR
STARTCHAR uni1EC0
ENCODING 7872
SWIDTH 667 0
DWIDTH 22 0
BBX 22 37 3 0
BITMAP
003800
003C00
001C00
000E00
000600
000000
000700
000F80
001DC0
0039C0
0070E0
000000
07FFFC
07FFFC
07FFF8
070000
0F0000
0E0000
0E0000
0E0000
1C0000
1C0000
1C0000
1FFFE0
1FFFE0
3FFFC0
380000
380000
380000
780000
700000
700000
700000
700000
FFFFC0
FFFFC0
FFFF80
ENDCHAR
STARTCHAR uni1EC1
ENCODING 7873
SWIDTH 556 0
DWIDTH 18 0
BBX 16 30 3 0
BITMAP
01C0
01E0
00E0
0070
0030
0000
003C
007C
00EE
01CE
0387
0000
01F8
07FE
1FFE
3E0F
3807
7007
7007
FFFF
FFFF
FFFF
E000
E000
E00E
F01E
787C
7FF8
3FF0
0FC0
ENDCHAR
STARTCHAR uni1EC4
ENCODING 7876
SWIDTH 667 0
DWIDTH 22 0
BBX 22 36 3 0
BITMAP
007840
00FDC0
01DF80
010F00
000000
000700
000F80
001DC0
0039C0
0070E0
000000
07FFFC
07FFFC
07FFF8
070000
0F0000
0E0000
0E0000
0E0000
1C0000
1C0000
1C0000
1FFFE0
1FFFE0
3FFFC0
380000
380000
380000
780000
700000
700000
700000
700000
FFFFC0
FFFFC0
FFFF80
ENDCHAR
STARTCHAR uni1EC5
ENCODING 7877
SWIDTH 556 0
DWIDTH 18 0
BBX 16 29 3 0
BITMAP
01E1
03F7
077E
043C
0000
003C
007C
00EE
01CE
0387
0000
01F8
07FE
1FFE
3E0F
3807
7007
7007
FFFF
FFFF
FFFF
E000
E000
E00E
F01E
787C
7FF8
3FF0
0FC0
ENDCHAR
STARTCHAR uni1EC6
ENCODING 7878
SWIDTH 667 0
DWIDTH 22 0
BBX 22 35 3 -4
BITMAP
003C00
007C00
00EE00
01CE00
018600
000000
07FFFC
07FFFC
07FFF8
070000
0F0000
0E0000
0E0000
0E0000
1C0000
1C0000
1C0000
1FFFE0
1FFFE0
3FFFC0
380000
380000
380000
780000
700000
700000
700000
700000
FFFFC0
FFFFC0
FFFF80
000000
01E000
01E000
01E000
ENDCHAR
STARTCHAR uni1EC7
ENCODING 7879
SWIDTH 556 0
DWIDTH 18 0
BBX 16 28 3 -4
BITMAP
00F0
01F0
03B8
0738
0618
0000
01F8
07FE
1FFE
3E0F
3807
7007
7007
FFFF
FFFF
FFFF
E000
E000
E00E
F01E
787C
7FF8
3FF0
0FC0
0000
0780
0780
0780
ENDCHAR
STARTCHAR uni1ECA
ENCODING 7882
SWIDTH 278 0
DWIDTH 9 0
BBX 8 29 3 -4
BITMAP
07
07
07
07
0F
0E
0E
0E
1E
1C
1C
1C
1C
3C
38
38
38
38
78
70
70
70
F0
E0
E0
00
78
78
78
ENDCHAR
STARTCHAR uni1ECB
ENCODING 7883
SWIDTH 222 0
DWIDTH 7 0
BBX 8 29 2 -4
BITMAP
07
07
07
07
00
00
00
0E
0E
0C
1C
1C
1C
1C
38
38
38
38
70
70
70
70
70
E0
E0
00
78
78
78
ENDCHAR
STARTCHAR uni1ECC
ENCODING 7884
SWIDTH 778 0
DWIDTH 25 0
BBX 25 29 3 -4
BITMAP
000FC000
007FF800
01FFFC00
03E03E00
07801F00
0F000F00
1E000780
3C000780
38000380
78000380
70000380
F0000380
F0000780
E0000780
E0000700
E0000F00
E0000E00
F0001E00
70003C00
78007800
7C00F800
3E03E000
1FFFC000
0FFF0000
01F80000
00000000
00780000
00780000
00780000
ENDCHAR
STARTCHAR uni1ECD
ENCODING 7885
SWIDTH 556 0
DWIDTH 19 0
BBX 16 22 3 -4
BITMAP
01F0
07FC
1FFE
3E1F
380F
7007
7007
F007
E007
E007
E00E
E00E
E01E
E03C
F078
7FF0
7FE0
1F80
0000
0780
0780
0780
ENDCHAR
STARTCHAR uni1ED0
ENCODING 7888
SWIDTH 778 0
DWIDTH 25 0
BBX 25 37 3 0
BITMAP
0001E000
0003C000
00078000
00070000
000E0000
00000000
0001E000
0003E000
00077000
000E7000
001C3800
00000000
000FC000
007FF800
01FFFC00
03E03E00
07801F00
0F000F00
1E000780
3C000780
38000380
78000380
70000380
F0000380
F0000780
E0000780
E0000700
E0000F00
E0000E00
F0001E00
70003C00
78007800
7C00F800
3E03E000
1FFFC000
0FFF0000
01F80000
ENDCHAR
STARTCHAR uni1ED1
ENCODING 7889
SWIDTH 556 0
DWIDTH 19 0
BBX 16 30 3 0
BITMAP
001E
003C
0078
0070
00E0
0000
003C
007C
00EE
01CE
0387
0000
01F0
07FC
1FFE
3E1F
380F
7007
7007
F007
E007
E007
E00E
E00E
E01E
E03C
F078
7FF0
7FE0
1F80
ENDCHAR
STARTCHAR uni1ED2
ENCODING 7890
SWIDTH 778 0
DWIDTH 25 0
BBX 25 37 3 0
BITMAP
001C0000
001E0000
000E0000
00070000
00030000
00000000
0001E000
0003E000
00077000
000E7000
001C3800
00000000
000FC000
007FF800
01FFFC00
03E03E00
07801F00
0F000F00
1E000780
3C000780
38000380
78000380
70000380
F0000380
F0000780
E0000780
E0000700
E0000F00
E0000E00
F0001E00
70003C00
78007800
7C00F800
3E03E000
1FFFC000
0FFF0000
01F80000
ENDCHAR
STARTCHAR uni1ED3
ENCODING 7891
SWIDTH 556 0
DWIDTH 19 0
BBX 16 30 3 0
BITMAP
01C0
01E0
00E0
0070
0030
0000
003C
007C
00EE
01CE
0387
0000
01F0
07FC
1FFE
3E1F
380F
7007
7007
F007
E007
E007
E00E
E00E
E01E
E03C
F078
7FF0
7FE0
1F80
ENDCHAR
STARTCHAR uni1ED6
ENCODING 7894
SWIDTH 778 0
DWIDTH 25 0
BBX 25 36 3 0
BITMAP
001E1000
003F7000
0077E000
0043C000
00000000
0001E000
0003E000
00077000
000E7000
001C3800
00000000
000FC000
007FF800
01FFFC00
03E03E00
07801F00
0F000F00
1E000780
3C000780
38000380
78000380
70000380
F0000380
F0000780
E0000780
E0000700
E0000F00
E0000E00
F0001E00
70003C00
78007800
7C00F800
3E03E000
1FFFC000
0FFF0000
01F80000
ENDCHAR
STARTCHAR uni1ED7
ENCODING 7895
SWIDTH 556 0
DWIDTH 19 0
BBX 16 29 3 0
BITMAP
01E1
03F7
077E
043C
0000
003C
007C
00EE
01CE
0387
0000
01F0
07FC
1FFE
3E1F
380F
7007
7007
F007
E007
E007
E00E
E00E
E01E
E03C
F078
7FF0
7FE0
1F80
ENDCHAR
STARTCHAR uni1ED8
ENCODING 7896
SWIDTH 778 0
DWIDTH 25 0
BBX 25 35 3 -4
BITMAP
00078000
000F8000
001DC000
0039C000
0030C000
00000000
000FC000
007FF800
01FFFC00
03E03E00
07801F00
0F000F00
1E000780
3C000780
38000380
78000380
70000380
F0000380
F0000780
E0000780
E0000700
E0000F00
E0000E00
F0001E00
70003C00
78007800
7C00F800
3E03E000
1FFFC000
0FFF0000
01F80000
00000000
00780000
00780000
00780000
ENDCHAR
STARTCHAR uni1ED9
ENCODING 7897
SWIDTH 556 0
DWIDTH 19 0
BBX 16 28 3 -4
BITMAP
00F0
01F0
03B8
0738
0618
0000
01F0
07FC
1FFE
3E1F
380F
7007
7007
F007
E007
E007
E00E
E00E
E01E
E03C
F078
7FF0
7FE0
1F80
0000
0780
0780
0780
ENDCHAR
STARTCHAR uni1EDA
ENCODING 7898
SWIDTH 778 0
DWIDTH 25 0
BBX 26 31 3 0
BITMAP
0000F000
0001E000
0003C000
00038000
00070000
00000000
000FC1C0
007FF9C0
01FFFDC0
03E03EC0
07801FC0
0F000F80
1E000780
3C000780
38000380
78000380
70000380
F0000380
F0000780
E0000780
E0000700
E0000F00
E0000E00
F0001E00
70003C00
78007800
7C00F800
3E03E000
1FFFC000
0FFF0000
01F80000
ENDCHAR
STARTCHAR uni1EDB
ENCODING 7899
SWIDTH 556 0
DWIDTH 19 0
BBX 19 24 3 0
BITMAP
001E00
003C00
007800
007000
00E000
000000
01F0E0
07FCE0
1FFEE0
3E1F60
380F60
7007C0
700780
F00700
E00700
E00700
E00E00
E00E00
E01E00
E03C00
F07800
7FF000
7FE000
1F8000
ENDCHAR
STARTCHAR uni1EDC
ENCODING 7900
SWIDTH 778 0
DWIDTH 25 0
BBX 26 31 3 0
BITMAP
000E0000
000F0000
00070000
00038000
00018000
00000000
000FC1C0
007FF9C0
01FFFDC0
03E03EC0
07801FC0
0F000F80
1E000780
3C000780
38000380
78000380
70000380
F0000380
F0000780
E0000780
E0000700
E0000F00
E0000E00
F0001E00
70003C00
78007800
7C00F800
3E03E000
1FFFC000
0FFF0000
01F80000
ENDCHAR
STARTCHAR uni1EDD
ENCODING 7901
SWIDTH 556 0
DWIDTH 19 0
BBX 19 24 3 0
BITMAP
01C000
01E000
00E000
007000
003000
000000
01F0E0
07FCE0
1FFEE0
3E1F60
380F60
7007C0
700780
F00700
E00700
E00700
E00E00
E00E00
E01E00
E03C00
F07800
7FF000
7FE000
1F8000
ENDCHAR
STARTCHAR uni1EE0
ENCODING 7904
SWIDTH 778 0
DWIDTH 25 0
BBX 26 30 3 0
BITMAP
000F0800
001FB800
003BF000
0021E000
00000000
000FC1C0
007FF9C0
01FFFDC0
03E03EC0
07801FC0
0F000F80
1E000780
3C000780
38000380
78000380
70000380
F0000380
F0000780
E0000780
E0000700
E0000F00
E0000E00
F0001E00
70003C00
78007800
7C00F800
3E03E000
1FFFC000
0FFF0000
01F80000
ENDCHAR
STARTCHAR uni1EE1
ENCODING 7905
SWIDTH 556 0
DWIDTH 19 0
BBX 19 23 3 0
BITMAP
01E100
03F700
077E00
043C00
000000
01F0E0
07FCE0
1FFEE0
3E1F60
380F60
7007C0
700780
F00700
E00700
E00700
E00E00
E00E00
E01E00
E03C00
F07800
7FF000
7FE000
1F8000
ENDCHAR
STARTCHAR uni1EE2
ENCODING 7906
SWIDTH 778 0
DWIDTH 25 0
BBX 26 29 3 -4
BITMAP
000FC1C0
007FF9C0
01FFFDC0
03E03EC0
07801FC0
0F000F80
1E000780
3C000780
38000380
78000380
70000380
F0000380
F0000780
E0000780
E0000700
E0000F00
E0000E00
F0001E00
70003C00
78007800
7C00F800
3E03E000
1FFFC000
0FFF0000
01F80000
00000000
00780000
00780000
00780000
ENDCHAR
STARTCHAR uni1EE3
ENCODING 7907
SWIDTH 556 0
DWIDTH 19 0
BBX 19 22 3 -4
BITMAP
01F0E0
07FCE0
1FFEE0
3E1F60
380F60
7007C0
700780
F00700
E00700
E00700
E00E00
E00E00
E01E00
E03C00
F07800
7FF000
7FE000
1F8000
000000
078000
078000
078000
ENDCHAR
STARTCHAR uni1EE4
ENCODING 7908
SWIDTH 722 0
DWIDTH 24 0
BBX 22 29 4 -4
BITMAP
0E001C
0E001C
0E001C
1E003C
1C003C
1C0038
1C0038
1C0038
3C0078
380070
380070
380070
380070
7800F0
7000E0
7000E0
F000E0
F001E0
F001C0
7003C0
780780
7C0F00
3FFE00
1FFC00
07E000
000000
01E000
01E000
01E000
ENDCHAR
STARTCHAR uni1EE5
ENCODING 7909
SWIDTH 556 0
DWIDTH 19 0
BBX 17 22 3 -4
BITMAP
1C0380
1C0380
380700
380700
380700
380700
700F00
700E00
700E00
700E00
700E00
E01E00
E01C00
E03C00
F0FC00
FFFC00
7F9C00
3E1C00
000000
03C000
03C000
03C000
ENDCHAR
STARTCHAR uni1EE8
ENCODING 7912
SWIDTH 722 0
DWIDTH 24 0
BBX 24 31 4 0
BITMAP
0003C0
000780
000F00
000E00
001C00
000000
0E001F
0E001F
0E001F
1E003F
1C003F
1C003E
1C003C
1C0038
3C0078
380070
380070
380070
380070
7800F0
7000E0
7000E0
F000E0
F001E0
F001C0
7003C0
780780
7C0F00
3FFE00
1FFC00
07E000
ENDCHAR
STARTCHAR uni1EE9
ENCODING 7913
SWIDTH 556 0
DWIDTH 19 0
BBX 19 24 3 0
BITMAP
001E00
003C00
007800
007000
00E000
000000
1C03E0
1C03E0
3807E0
380760
380760
3807C0
700F80
700E00
700E00
700E00
700E00
E01E00
E01C00
E03C00
F0FC00
FFFC00
7F9C00
3E1C00
ENDCHAR
STARTCHAR uni1EEA
ENCODING 7914
SWIDTH 722 0
DWIDTH 24 0
BBX 24 31 4 0
BITMAP
001C00
001E00
000E00
000700
000300
000000
0E001F
0E001F
0E001F
1E003F
1C003F
1C003E
1C003C
1C0038
3C0078
380070
380070
380070
380070
7800F0
7000E0
7000E0
F000E0
F001E0
F001C0
7003C0
780780
7C0F00
3FFE00
1FFC00
07E000
ENDCHAR
STARTCHAR uni1EEB
ENCODING 7915
SWIDTH 556 0
DWIDTH 19 0
BBX 19 24 3 0
BITMAP
00E000
00F000
007000
003800
001800
000000
1C03E0
1C03E0
3807E0
380760
380760
3807C0
700F80
700E00
700E00
700E00
700E00
E01E00
E01C00
E03C00
F0FC00
FFFC00
7F9C00
3E1C00
ENDCHAR
STARTCHAR uni1EEE
ENCODING 7918
SWIDTH 722 0
DWIDTH 24 0
BBX 24 30 4 0
BITMAP
001E10
003F70
0077E0
0043C0
000000
0E001F
0E001F
0E001F
1E003F
1C003F
1C003E
1C003C
1C0038
3C0078
380070
380070
380070
380070
7800F0
7000E0
7000E0
F000E0
F001E0
F001C0
7003C0
780780
7C0F00
3FFE00
1FFC00
07E000
ENDCHAR
STARTCHAR uni1EEF
ENCODING 7919
SWIDTH 556 0
DWIDTH 19 0
BBX 19 23 3 0
BITMAP
00F080
01FB80
03BF00
021E00
000000
1C03E0
1C03E0
3807E0
380760
380760
3807C0
700F80
700E00
700E00
700E00
700E00
E01E00
E01C00
E03C00
F0FC00
FFFC00
7F9C00
3E1C00
ENDCHAR
STARTCHAR uni1EF0
ENCODING 7920
SWIDTH 722 0
DWIDTH 24 0
BBX 24 29 4 -4
BITMAP
0E001F
0E001F
0E001F
1E003F
1C003F
1C003E
1C003C
1C0038
3C0078
380070
380070
380070
380070
7800F0
7000E0
7000E0
F000E0
F001E0
F001C0
7003C0
780780
7C0F00
3FFE00
1FFC00
07E000
000000
00F000
00F000
00F000
ENDCHAR
STARTCHAR uni1EF1
ENCODING 7921
SWIDTH 556 0
DWIDTH 19 0
BBX 19 22 3 -4
BITMAP
1C03E0
1C03E0
3807E0
380760
380760
3807C0
700F80
700E00
700E00
700E00
700E00
E01E00
E01C00
E03C00
F0FC00
FFFC00
7F9C00
3E1C00
000000
03C000
03C000
03C000
ENDCHAR
STARTCHAR Ygrave
ENCODING 7922
SWIDTH 667 0
DWIDTH 22 0
BBX 22 31 6 0
BITMAP
01C000
01E000
00E000
007000
003000
000000
F0007C
F000F8
7800F0
7801E0
3803C0
3C0780
3C0700
1E0F00
1E1E00
0E3C00
0F7800
0F7000
07E000
07E000
03C000
038000
038000
078000
078000
070000
070000
070000
0F0000
0E0000
0E0000
ENDCHAR
STARTCHAR ygrave
ENCODING 7923
SWIDTH 500 0
DWIDTH 17 0
BBX 19 31 0 -7
BITMAP
01C000
01E000
00E000
007000
003000
000000
0E00E0
0E01E0
0E01C0
0F0380
0F0380
070700
070700
070E00
071E00
071C00
073800
07B800
07F000
07F000
03E000
03C000
03C000
038000
038000
070000
0F0000
0E0000
FC0000
F80000
F00000
ENDCHAR
STARTCHAR uni1EF4
ENCODING 7924
SWIDTH 667 0
DWIDTH 22 0
BBX 22 29 6 -4
BITMAP
F0007C
F000F8
7800F0
7801E0
3803C0
3C0780
3C0700
1E0F00
1E1E00
0E3C00
0F7800
0F7000
07E000
07E000
03C000
038000
038000
078000
078000
070000
070000
070000
0F0000
0E0000
0E0000
000000
03C000
03C000
03C000
ENDCHAR
STARTCHAR uni1EF5
ENCODING 7925
SWIDTH 500 0
DWIDTH 17 0
BBX 19 29 0 -11
BITMAP
0E00E0
0E01E0
0E01C0
0F0380
0F0380
070700
070700
070E00
071E00
071C00
073800
07B800
07F000
07F000
03E000
03C000
03C000
038000
038000
070000
0F0000
0E0000
FC0000
F80000
F00000
000000
0F0000
0F0000
0F0000
ENDCHAR
STARTCHAR uni1EF8
ENCODING 7928
SWIDTH 667 0
DWIDTH 22 0
BBX 22 30 6 0
BITMAP
01E100
03F700
077E00
043C00
000000
F0007C
F000F8
7800F0
7801E0
3803C0
3C0780
3C0700
1E0F00
1E1E00
0E3C00
0F7800
0F7000
07E000
07E000
03C000
038000
038000
078000
078000
070000
070000
070000
0F0000
0E0000
0E0000
ENDCHAR
STARTCHAR uni1EF9
ENCODING 7929
SWIDTH 500 0
DWIDTH 17 0
BBX 19 30 0 -7
BITMAP
01E100
03F700
077E00
043C00
000000
0E00E0
0E01E0
0E01C0
0F0380
0F0380
070700
070700
070E00
071E00
071C00
073800
07B800
07F000
07F000
03E000
03C000
03C000
038000
038000
070000
0F0000
0E0000
FC0000
F80000
F00000
ENDCHAR
STARTCHAR uni2000
ENCODING 8192
SWIDTH 500 0
DWIDTH 17 0
BBX 1 1 0 0
BITMAP
00
ENDCHAR
STARTCHAR uni2001
ENCODING 8193
SWIDTH 1000 0
DWIDTH 33 0
BBX 1 1 0 0
BITMAP
00
ENDCHAR
STARTCHAR uni2002
ENCODING 8194
SWIDTH 500 0
DWIDTH 17 0
BBX 1 1 0 0
BITMAP
00
ENDCHAR
STARTCHAR uni2003
ENCODING 8195
SWIDTH 1000 0
DWIDTH 33 0
BBX 1 1 0 0
BITMAP
00
ENDCHAR
STARTCHAR uni2004
ENCODING 8196
SWIDTH 333 0
DWIDTH 11 0
BBX 1 1 0 0
BITMAP
00
ENDCHAR
STARTCHAR uni2005
ENCODING 8197
SWIDTH 250 0
DWIDTH 8 0
BBX 1 1 0 0
BITMAP
00
ENDCHAR
STARTCHAR uni2006
ENCODING 8198
SWIDTH 167 0
DWIDTH 6 0
BBX 1 1 0 0
BITMAP
00
ENDCHAR
STARTCHAR uni2007
ENCODING 8199
SWIDTH 556 0
DWIDTH 18 0
BBX 1 1 0 0
BITMAP
00
ENDCHAR
STARTCHAR uni2008
ENCODING 8200
SWIDTH 278 0
DWIDTH 9 0
BBX 1 1 0 0
BITMAP
00
ENDCHAR
STARTCHAR uni2009
ENCODING 8201
SWIDTH 200 0
DWIDTH 7 0
BBX 1 1 0 0
BITMAP
00
ENDCHAR
STARTCHAR uni200A
ENCODING 8202
SWIDTH 100 0
DWIDTH 3 0
BBX 1 1 0 0
BITMAP
00
ENDCHAR
STARTCHAR uni200B
ENCODING 8203
SWIDTH 0 0
DWIDTH 0 0
BBX 1 1 0 0
BITMAP
00
ENDCHAR
STARTCHAR uni2010
ENCODING 8208
SWIDTH 333 0
DWIDTH 11 0
BBX 9 2 3 8
BITMAP
FF80
FF80
ENDCHAR
STARTCHAR uni2011
ENCODING 8209
SWIDTH 333 0
DWIDTH 11 0
BBX 9 2 3 8
BITMAP
FF80
FF80
ENDCHAR
STARTCHAR figuredash
ENCODING 8210
SWIDTH 556 0
DWIDTH 18 0
BBX 18 2 2 8
BITMAP
FFFFC0
FFFFC0
ENDCHAR
STARTCHAR endash
ENCODING 8211
SWIDTH 556 0
DWIDTH 18 0
BBX 18 2 2 8
BITMAP
FFFFC0
FFFFC0
ENDCHAR
STARTCHAR emdash
ENCODING 8212
SWIDTH 1000 0
DWIDTH 32 0
BBX 32 2 1 8
BITMAP
FFFFFFFF
FFFFFFFF
ENDCHAR
STARTCHAR afii00208
ENCODING 8213
SWIDTH 1000 0
DWIDTH 32 0
BBX 32 2 1 8
BITMAP
FFFFFFFF
FFFFFFFF
ENDCHAR
STARTCHAR quoteleft
ENCODING 8216
SWIDTH 222 0
DWIDTH 7 0
BBX 3 7 6 18
BITMAP
20
60
C0
C0
E0
E0
E0
ENDCHAR
STARTCHAR quoteright
ENCODING 8217
SWIDTH 222 0
DWIDTH 7 0
BBX 4 7 6 18
BITMAP
70
70
70
30
30
60
C0
ENDCHAR
STARTCHAR quotesinglbase
ENCODING 8218
SWIDTH 222 0
DWIDTH 7 0
BBX 3 7 2 -4
BITMAP
E0
E0
E0
60
60
C0
80
ENDCHAR
STARTCHAR quotereversed
ENCODING 8219
SWIDTH 222 0
DWIDTH 7 0
BBX 4 7 6 18
BITMAP
E0
E0
E0
C0
C0
60
30
ENDCHAR
STARTCHAR quotedblleft
ENCODING 8220
SWIDTH 333 0
DWIDTH 11 0
BBX 8 7 6 16
BITMAP
21
63
C6
C6
E7
E7
E7
ENDCHAR
STARTCHAR quotedblright
ENCODING 8221
SWIDTH 333 0
DWIDTH 11 0
BBX 9 7 6 16
BITMAP
E380
E380
E380
6180
6180
C300
8200
ENDCHAR
STARTCHAR quotedblbase
ENCODING 8222
SWIDTH 333 0
DWIDTH 11 0
BBX 8 7 2 -4
BITMAP
E7
E7
E7
63
63
C6
84
ENDCHAR
STARTCHAR uni201F
ENCODING 8223
SWIDTH 333 0
DWIDTH 11 0
BBX 9 7 6 16
BITMAP
E380
E380
E380
C300
C300
6180
2080
ENDCHAR
STARTCHAR dagger
ENCODING 8224
SWIDTH 556 0
DWIDTH 18 0
BBX 16 30 5 -6
BITMAP
00E0
00E0
01E0
01E0
01C0
01C0
01C0
FFFF
FFFF
FFFF
0380
0780
0780
0700
0700
0700
0F00
0F00
0E00
0E00
0E00
1E00
1E00
1C00
1C00
3C00
3C00
3800
3800
3800
ENDCHAR
STARTCHAR daggerdbl
ENCODING 8225
SWIDTH 556 0
DWIDTH 18 0
BBX 19 30 2 -6
BITMAP
001C00
001C00
003C00
003C00
003800
003800
007800
1FFFE0
1FFFE0
1FFFC0
007000
00F000
00F000
00E000
00E000
00E000
01E000
01E000
01C000
01C000
FFFF00
FFFF00
FFFE00
038000
038000
078000
078000
070000
070000
070000
ENDCHAR
STARTCHAR bullet
ENCODING 8226
SWIDTH 350 0
DWIDTH 11 0
BBX 9 8 4 7
BITMAP
1E00
7F00
7F80
FF80
FF00
FF00
FE00
7C00
ENDCHAR
STARTCHAR ellipsis
ENCODING 8230
SWIDTH 1000 0
DWIDTH 33 0
BBX 26 3 4 0
BITMAP
F01E03C0
F01E03C0
F01E03C0
ENDCHAR
STARTCHAR perthousand
ENCODING 8240
SWIDTH 1000 0
DWIDTH 32 0
BBX 30 25 4 0
BITMAP
0F006000
3FC0E000
39C1C000
60C18000
E0C30000
C0C70000
C0CE0000
C1CC0000
E3980000
7F380000
3C300000
00600000
00E00000
01C00000
01800000
03000000
071F01F0
0E3F83F8
0C71C71C
18E0CC0C
38C0CC0C
70C1CC1C
60E38E38
C0FF07F0
C03C03C0
ENDCHAR
STARTCHAR guilsinglleft
ENCODING 8249
SWIDTH 333 0
DWIDTH 11 0
BBX 7 9 5 5
BITMAP
0C
1E
3C
78
F0
F0
78
3C
18
ENDCHAR
STARTCHAR guilsinglright
ENCODING 8250
SWIDTH 333 0
DWIDTH 11 0
BBX 7 9 3 5
BITMAP
30
78
3C
1E
1E
3C
78
F0
60
ENDCHAR
STARTCHAR fraction
ENCODING 8260
SWIDTH 167 0
DWIDTH 6 0
BBX 21 24 -5 0
BITMAP
000018
000030
000060
0000E0
0000C0
000180
000300
000600
000C00
001800
003800
003000
006000
00C000
018000
030000
070000
060000
0C0000
180000
300000
600000
C00000
C00000
ENDCHAR
STARTCHAR oneinferior
ENCODING 8321
SWIDTH 333 0
DWIDTH 11 0
BBX 6 15 6 -7
BITMAP
0C
1C
FC
F8
18
18
18
30
30
30
30
60
60
60
60
ENDCHAR
STARTCHAR twoinferior
ENCODING 8322
SWIDTH 333 0
DWIDTH 11 0
BBX 12 15 3 -7
BITMAP
03C0
0FE0
1C70
3830
3830
0070
0060
01C0
0780
1E00
3800
6000
C000
FFC0
FFC0
ENDCHAR
STARTCHAR threeinferior
ENCODING 8323
SWIDTH 333 0
DWIDTH 11 0
BBX 11 15 3 -7
BITMAP
0780
1FC0
1860
3060
3060
00E0
07C0
07C0
00E0
0060
C060
C0E0
E1C0
7F80
3E00
ENDCHAR
STARTCHAR uni20A5
ENCODING 8357
SWIDTH 833 0
DWIDTH 28 0
BBX 26 24 2 -3
BITMAP
00003000
00003000
00006000
1C7C7F00
1DFEFF80
1FFFFFC0
1F0FC3C0
1E0781C0
1C0701C0
3C0F0380
380E0380
380E0380
380E0380
381E0380
701C0700
703C0700
703C0700
707C0700
60780700
E0F80E00
E0F80E00
01800000
03000000
03000000
ENDCHAR
STARTCHAR uni20A6
ENCODING 8358
SWIDTH 722 0
DWIDTH 24 0
BBX 23 25 3 0
BITMAP
07800E
07800E
07C00E
0FC00E
0FC01E
0EE01C
0EE01C
0EF01C
1FFFFC
1FFFF8
1FFFF8
1C3838
1C3838
3C3C38
3FFFF0
3FFFF0
3FFFF0
780E70
700E60
700760
7007E0
7007E0
F003C0
E003C0
E003C0
ENDCHAR
STARTCHAR uni20A9
ENCODING 8361
SWIDTH 944 0
DWIDTH 31 0
BBX 31 25 6 0
BITMAP
E007801E
E007801C
E00F803C
E00F8038
E01F8078
E01F8070
E03BC0F0
F03BC0E0
F07FFFE0
F0FFFFC0
F0FFFFC0
F0E1C3C0
71E1C380
71C1C780
73FFFF00
73FFFF00
77FFFE00
7701DE00
7F01DC00
7E01DC00
7E01F800
7C01F800
7C00F000
7800F000
7800F000
ENDCHAR
STARTCHAR Euro
ENCODING 8364
SWIDTH 722 0
DWIDTH 24 0
BBX 25 25 0 0
BITMAP
0003F000
000FFC00
003FFE00
007C1F00
00F80700
00E00780
01E00380
03C00380
3FFF8000
7FFF8000
7FFF0000
07000000
0F000000
0E000000
7FFF0000
FFFF0700
FFFE0F00
0E000E00
0F001E00
07003C00
07807800
03C1F000
03FFE000
01FF8000
007E0000
ENDCHAR
STARTCHAR uni20AD
ENCODING 8365
SWIDTH 667 0
DWIDTH 22 0
BBX 23 25 3 0
BITMAP
07001E
07003C
070078
0F00F0
0F01E0
0E03C0
0E0780
0E0F00
1E1E00
1C3C00
1CF800
FFFFFE
FFFFFE
3F3C00
3E1C00
3C1E00
380E00
780F00
780F00
700780
700780
7003C0
F003C0
E001E0
E001E0
ENDCHAR
STARTCHAR uni2103
ENCODING 8451
SWIDTH 1102 0
DWIDTH 36 0
BBX 31 25 6 0
BITMAP
00000FC0
00003FF0
1F00FFF8
7F81F07C
6183E01C
C183801E
C187800E
C18F000E
C30E0000
FF1E0000
7C1C0000
001C0000
003C0000
00380000
00380000
0038001C
0038003C
00380038
003C0078
001C00F0
001E01E0
000F07C0
000FFF80
0007FE00
0001F800
ENDCHAR
STARTCHAR uni2109
ENCODING 8457
SWIDTH 991 0
DWIDTH 32 0
BBX 30 25 6 0
BITMAP
0003FFFC
0003FFFC
1F03FFF8
7F838000
61878000
C1870000
C1870000
C1870000
C3070000
FF0E0000
7C0E0000
000FFFC0
000FFFC0
001FFF80
001C0000
001C0000
001C0000
001C0000
00380000
00380000
00380000
00380000
00700000
00700000
00700000
ENDCHAR
STARTCHAR trademark
ENCODING 8482
SWIDTH 1000 0
DWIDTH 33 0
BBX 29 14 7 11
BITMAP
FFF3C038
FFF3C078
0E03C0F8
0E07E0F8
0E07E1B8
0C0663B0
0C066330
1C066730
1C0E6670
1C0C7C60
180C7C60
180C3860
381C38E0
381C30E0
ENDCHAR
STARTCHAR uni212A
ENCODING 8490
SWIDTH 667 0
DWIDTH 22 0
BBX 23 25 3 0
BITMAP
07001E
07003C
070078
0F00F0
0F01E0
0E03C0
0E0780
0E0F00
1E1E00
1C3C00
1CF800
1DF800
1FF800
3F3C00
3E1C00
3C1E00
380E00
780F00
780F00
700780
700780
7003C0
F003C0
E001E0
E001E0
ENDCHAR
STARTCHAR uni212B
ENCODING 8491
SWIDTH 667 0
DWIDTH 22 0
BBX 20 31 1 0
BITMAP
0003C0
000660
000C20
000860
000CC0
000780
000000
000F80
000F80
001FC0
001DC0
003DC0
0039C0
0079C0
00F1C0
00E1C0
01E0E0
01C0E0
03C0E0
0380E0
0780E0
0FFFE0
0FFFF0
1FFFF0
1C0070
3C0070
380070
780070
700070
F00070
E00070
ENDCHAR
STARTCHAR uni2132
ENCODING 8498
SWIDTH 611 0
DWIDTH 20 0
BBX 21 25 3 0
BITMAP
000038
000038
000038
000070
000070
000070
000070
0000E0
0000E0
0000E0
0000E0
07FFE0
0FFFC0
0FFFC0
0001C0
0001C0
000380
000380
000380
000380
000780
000700
7FFF00
FFFF00
FFFF00
ENDCHAR
STARTCHAR minus
ENCODING 8722
SWIDTH 584 0
DWIDTH 19 0
BBX 16 3 4 6
BITMAP
7FFF
FFFF
FFFE
ENDCHAR
STARTCHAR fraction
ENCODING 8725
SWIDTH 167 0
DWIDTH 6 0
BBX 21 24 -5 0
BITMAP
000018
000030
000060
0000E0
0000C0
000180
000300
000600
000C00
001800
003800
003000
006000
00C000
018000
030000
070000
060000
0C0000
180000
300000
600000
C00000
C00000
ENDCHAR
STARTCHAR periodcentered
ENCODING 8729
SWIDTH 278 0
DWIDTH 9 0
BBX 5 4 5 10
BITMAP
78
78
F0
F0
ENDCHAR
STARTCHAR uni2236
ENCODING 8758
SWIDTH 278 0
DWIDTH 9 0
BBX 7 17 4 0
BITMAP
1E
1E
1E
00
00
00
00
00
00
00
00
00
00
00
F0
F0
F0
ENDCHAR
STARTCHAR uni2259
ENCODING 8793
SWIDTH 584 0
DWIDTH 19 0
BBX 17 15 3 4
BITMAP
00F000
01F000
03B800
073800
061800
000000
3FFF80
7FFF80
7FFF00
000000
000000
000000
7FFF00
FFFF00
FFFE00
ENDCHAR
STARTCHAR uni225A
ENCODING 8794
SWIDTH 584 0
DWIDTH 19 0
BBX 17 15 3 4
BITMAP
0E1800
063800
077000
03E000
03C000
000000
3FFF80
7FFF80
7FFF00
000000
000000
000000
7FFF00
FFFF00
FFFE00
ENDCHAR
STARTCHAR notequal
ENCODING 8800
SWIDTH 584 0
DWIDTH 19 0
BBX 17 24 3 -3
BITMAP
000300
000300
000600
000600
000C00
000C00
001800
001800
3FFF80
7FFF80
7FFF00
00C000
00C000
018000
7FFF00
FFFF00
FFFE00
060000
060000
0C0000
0C0000
180000
300000
300000
ENDCHAR
STARTCHAR equivalence
ENCODING 8801
SWIDTH 584 0
DWIDTH 19 0
BBX 17 8 0 3
BITMAP
FFFF80
FFFF80
000000
FFFF80
FFFF80
000000
FFFF80
FFFF80
ENDCHAR
STARTCHAR uni2262
ENCODING 8802
SWIDTH 584 0
DWIDTH 19 0
BBX 17 24 0 -5
BITMAP
000300
000300
000600
000600
000C00
000C00
001800
001800
FFFF80
FFFF80
006000
FFFF80
FFFF80
018000
FFFF80
FFFF80
030000
060000
060000
0C0000
0C0000
180000
300000
300000
ENDCHAR
STARTCHAR lessequal
ENCODING 8804
SWIDTH 584 0
DWIDTH 19 0
BBX 17 19 4 -3
BITMAP
000180
000780
001F80
00FE00
03F000
1FC000
7E0000
F00000
F00000
3C0000
1F0000
07E000
01F800
007E00
001E00
000600
000000
FFFF80
FFFF80
ENDCHAR
STARTCHAR greaterequal
ENCODING 8805
SWIDTH 584 0
DWIDTH 19 0
BBX 18 19 2 -3
BITMAP
180000
1E0000
1F8000
0FE000
01F800
007E00
001F80
0007C0
0007C0
003F80
00FC00
07F000
3F8000
FE0000
F00000
C00000
000000
FFFFC0
FFFFC0
ENDCHAR
STARTCHAR uni226E
ENCODING 8814
SWIDTH 584 0
DWIDTH 19 0
BBX 17 24 4 -4
BITMAP
000300
000300
000600
000600
000D80
000F80
001F80
00FE00
03F000
1FF000
7E6000
F0C000
F0C000
3D8000
1F8000
07E000
03F800
067E00
061E00
0C0600
0C0000
180000
300000
300000
ENDCHAR
STARTCHAR uni226F
ENCODING 8815
SWIDTH 584 0
DWIDTH 19 0
BBX 18 24 2 -4
BITMAP
000300
000300
000600
000600
180C00
1E0C00
1F9800
0FF800
01F800
007E00
007F80
00C7C0
00C7C0
01BF80
01FC00
07F000
3F8000
FE0000
F60000
CC0000
0C0000
180000
300000
300000
ENDCHAR
STARTCHAR uni2270
ENCODING 8816
SWIDTH 584 0
DWIDTH 19 0
BBX 17 24 4 -5
BITMAP
000300
000300
000600
000780
000F80
001F80
00FE00
03F800
1FF000
7E3000
F06000
F0C000
3CC000
1F8000
07E000
03F800
037E00
061E00
060600
0C0000
FFFF80
FFFF80
300000
300000
ENDCHAR
STARTCHAR uni2271
ENCODING 8817
SWIDTH 584 0
DWIDTH 19 0
BBX 18 24 2 -5
BITMAP
000300
000300
000600
180600
1E0C00
1F8C00
0FF800
01F800
007E00
003F80
0067C0
00C7C0
00FF80
01FC00
07F000
3F8000
FF0000
F60000
C60000
0C0000
FFFFC0
FFFFC0
300000
300000
ENDCHAR
STARTCHAR fi
ENCODING -1
SWIDTH 500 0
DWIDTH 16 0
BBX 17 25 3 0
BITMAP
01E380
03E380
078380
070380
0E0000
0E0000
0E0000
7F8700
7F8700
7F8E00
1C0E00
1C0E00
1C0E00
381C00
381C00
381C00
381C00
381C00
703800
703800
703800
703800
703800
E07000
E07000
ENDCHAR
STARTCHAR fl
ENCODING -1
SWIDTH 500 0
DWIDTH 16 0
BBX 16 25 3 0
BITMAP
01E7
03E7
0787
0707
0E0E
0E0E
0E0E
7F8E
7F8C
7F9C
1C1C
1C1C
1C1C
3818
3838
3838
3838
3038
7030
7070
7070
7070
6070
E0E0
E0E0
ENDCHAR
ENDFONT
